<svg xmlns:dc="http://purl.org/dc/elements/1.1/" xmlns:cc="http://creativecommons.org/ns#"
     xmlns:rdf="http://www.w3.org/1999/02/22-rdf-syntax-ns#" xmlns:svg="http://www.w3.org/2000/svg"
     xmlns="http://www.w3.org/2000/svg" xmlns:sodipodi="http://sodipodi.sourceforge.net/DTD/sodipodi-0.dtd"
     xmlns:inkscape="http://www.inkscape.org/namespaces/inkscape" viewBox="0 0 25 25" version="1.1"
     x="0px" y="0px">
    <g transform="translate(131.02975,-196.70833)">
        <path d="m -117.75392,196.97294 a 0.27587049,0.27587049 0 0 0 -0.27165,0.27972 v 2.07583 a 0.27587049,0.27587049 0 1 0 0.55147,0 v -2.07583 a 0.27587049,0.27587049 0 0 0 -0.27982,-0.27972 z m -2.7065,0.35753 a 0.27587049,0.27587049 0 0 0 -0.27164,0.35105 l 0.53757,2.00535 a 0.27587049,0.27587049 0 1 0 0.53261,-0.14298 l -0.53757,-2.00525 a 0.27587049,0.27587049 0 0 0 -0.26097,-0.20817 z m -2.54864,1.04874 a 0.27587049,0.27587049 0 0 0 -0.22638,0.41699 l 1.0385,1.79761 a 0.27587049,0.27587049 0 1 0 0.47766,-0.27573 l -1.0385,-1.79804 a 0.27587049,0.27587049 0 0 0 -0.25128,-0.14083 z m 9.22759,0.80996 c -0.56246,0.003 -1.14841,0.0701 -1.7517,0.20979 l 0.64876,2.41955 c 0.12287,-0.087 0.26276,-0.15425 0.41582,-0.19524 0.1733,-0.0464 0.34847,-0.055 0.51634,-0.0313 0.5036,0.071 0.94314,0.43482 1.08247,0.95467 0.18578,0.69312 -0.22958,1.41269 -0.92278,1.59839 -0.15309,0.041 -0.30783,0.0527 -0.45784,0.0387 l 0.65577,2.44703 2.36665,-0.63411 a 0.27587054,0.27587054 0 0 1 0.35903,0.38381 0.27595994,0.27595994 0 0 1 -0.005,0.009 c -0.0967,0.16737 -0.12971,0.36931 -0.0754,0.57183 0.10857,0.40507 0.51804,0.64118 0.92332,0.53262 0.4053,-0.10856 0.64162,-0.51772 0.53305,-0.92278 -0.0543,-0.20253 -0.18362,-0.36077 -0.35106,-0.4574 a 0.27587054,0.27587054 0 0 1 -0.007,-0.004 0.27596021,0.27596021 0 0 1 -0.007,-0.004 0.27587054,0.27587054 0 0 1 0.11454,-0.5061 l 2.26029,-0.60535 c -0.0611,-0.60681 -0.16681,-1.1632 -0.3517,-1.69492 -0.0645,0.0246 -0.13083,0.0461 -0.1989,0.0644 -1.08554,0.29079 -2.20839,-0.35724 -2.49929,-1.44258 -0.1629,-0.60775 -0.0311,-1.22712 0.30687,-1.70569 -0.99515,-0.65975 -2.20779,-1.03107 -3.55535,-1.02569 z m 5.20687,0.71364 c -0.12299,0.002 -0.24788,0.0182 -0.3725,0.0516 -0.79761,0.21364 -1.26685,1.02598 -1.05316,1.82325 0.21369,0.79727 1.0264,1.26639 1.82401,1.05272 0.79761,-0.21364 1.26642,-1.02598 1.05273,-1.82325 -0.16027,-0.59795 -0.6572,-1.01151 -1.23224,-1.09066 -0.0719,-0.01 -0.14505,-0.0145 -0.21884,-0.0136 z m -16.5981,0.14363 a 0.27587049,0.27587049 0 0 0 -0.1918,0.474 l 1.46811,1.46779 a 0.27589539,0.27589539 0 1 0 0.39017,-0.39018 l -1.46854,-1.46768 a 0.27587049,0.27587049 0 0 0 -0.19794,-0.0839 z m 17.17898,0.42724 a 0.27587049,0.27587049 0 0 1 0.23048,0.41947 l -0.68832,1.16598 a 0.27587049,0.27587049 0 0 1 -0.37303,0.10009 l -0.54651,-0.3087 a 0.27590581,0.27590581 0 1 1 0.27121,-0.48047 l 0.31075,0.17553 0.55061,-0.93302 a 0.27587049,0.27587049 0 0 1 0.24481,-0.13888 z m -10.03422,0.60243 c -4.40986,0.14956 -6.98503,3.71818 -6.32822,7.49334 l 1.88155,-6.1e-4 c -0.0521,-0.1411 -0.0807,-0.29338 -0.0807,-0.45169 0,-0.71759 0.58753,-1.3053 1.30519,-1.3053 0.71766,0 1.30562,0.58771 1.30562,1.3053 0,0.15827 -0.0286,0.31051 -0.0807,0.45158 h 2.00126 c -0.0122,-1.08141 0.01,-2.59923 0.0135,-3.0319 a 0.27587054,0.27587054 0 0 1 6.1e-4,-0.0106 0.27587443,0.27587443 0 0 1 0,-0.004 0.27587054,0.27587054 0 0 1 0.27326,-0.26356 0.27587054,0.27587054 0 0 1 0.21593,0.10182 c 0.13483,0.12617 0.31373,0.20355 0.5143,0.20355 0.41959,0 0.75383,-0.33406 0.75383,-0.7534 0,-0.41933 -0.33424,-0.7534 -0.75383,-0.7534 -0.20979,0 -0.39646,0.0841 -0.53316,0.22078 a 0.27601818,0.27601818 0 0 1 -0.0102,0.01 0.27591036,0.27591036 0 0 1 -0.005,0.004 0.27601818,0.27601818 0 0 1 -0.0171,0.0138 0.27601818,0.27601818 0 0 1 -0.0227,0.0149 0.27591036,0.27591036 0 0 1 -6.1e-4,0 0.27601818,0.27601818 0 0 1 -0.41527,-0.24007 c 0,-0.61161 -0.006,-2.20946 -0.0175,-3.0055 z m -8.8023,1.14421 a 0.27587049,0.27587049 0 0 0 -0.14492,0.51645 l 1.79836,1.03807 a 0.2760023,0.2760023 0 0 0 0.27574,-0.47819 l -1.79847,-1.03765 a 0.27587049,0.27587049 0 0 0 -0.13071,-0.0386 z m -1.06576,2.53064 a 0.27587049,0.27587049 0 0 0 -0.0611,0.54328 l 2.00611,0.53757 a 0.27590761,0.27590761 0 0 0 0.14255,-0.53304 l -2.00568,-0.53725 a 0.27587049,0.27587049 0 0 0 -0.0819,-0.0106 z m 6.64587,2.61286 c -0.41959,0 -0.75339,0.33406 -0.75339,0.7534 0,0.20966 0.084,0.39594 0.22067,0.53261 a 0.27587369,0.27587369 0 0 1 0.008,0.009 0.27591036,0.27591036 0 0 1 0.0154,0.0186 0.27587369,0.27587369 0 0 1 0.002,0.003 0.27591036,0.27591036 0 0 1 0.012,0.0177 0.27587369,0.27587369 0 0 1 0.004,0.006 0.27591036,0.27591036 0 0 1 0.009,0.0167 0.27587369,0.27587369 0 0 1 0.004,0.008 0.27591036,0.27591036 0 0 1 0.008,0.0187 0.27587369,0.27587369 0 0 1 0.003,0.007 0.27591036,0.27591036 0 0 1 0.007,0.0213 0.27587369,0.27587369 0 0 1 10e-4,0.004 0.27591036,0.27591036 0 0 1 0.004,0.0202 0.27587369,0.27587369 0 0 1 0.001,0.008 0.27591036,0.27591036 0 0 1 0.002,0.0188 0.27587369,0.27587369 0 0 1 6.1e-4,0.008 0.27591036,0.27591036 0 0 1 0,0.0144 0.27587369,0.27587369 0 0 1 -6.1e-4,0.0151 0.27591036,0.27591036 0 0 1 -6.1e-4,0.005 0.27587369,0.27587369 0 0 1 -0.003,0.023 0.27587369,0.27587369 0 0 1 -0.006,0.0264 0.27591036,0.27591036 0 0 1 0,6.1e-4 0.27587369,0.27587369 0 0 1 -0.008,0.0254 0.27591036,0.27591036 0 0 1 -0.002,0.004 0.27587369,0.27587369 0 0 1 -0.0233,0.0451 0.27587369,0.27587369 0 0 1 -0.016,0.0225 0.27587369,0.27587369 0 0 1 -0.21831,0.1043 h -2.28744 c 0.005,0.02 0.009,0.0402 0.0143,0.0595 0.55025,2.05294 1.66496,3.32708 2.67643,4.4122 0.50574,0.54254 0.98642,1.03503 1.3512,1.5613 0.31065,0.44818 0.50256,0.94182 0.56289,1.48244 h 1.63707 c -6.1e-4,-1.08881 -0.003,-2.18364 -0.003,-3.27402 -0.1415,0.0525 -0.29421,0.0812 -0.45299,0.0812 -0.71765,0 -1.3053,-0.5876 -1.3053,-1.30519 0,-0.71757 0.58764,-1.30519 1.3053,-1.30519 0.15889,0 0.31172,0.0287 0.45331,0.0813 l 0.003,-1.79342 h -2.49638 a 0.27591036,0.27591036 0 0 1 -0.008,0 0.27587292,0.27587292 0 0 1 -0.0292,-0.003 0.27591036,0.27591036 0 0 1 -10e-4,0 0.27587292,0.27587292 0 0 1 -0.0243,-0.004 0.27591036,0.27591036 0 0 1 -0.003,-6.1e-4 0.27587292,0.27587292 0 0 1 -0.0201,-0.006 0.27591036,0.27591036 0 0 1 -0.007,-0.002 0.27587292,0.27587292 0 0 1 -0.0191,-0.008 0.27591036,0.27591036 0 0 1 -0.006,-0.003 0.27587292,0.27587292 0 0 1 -0.0214,-0.0115 0.27591036,0.27591036 0 0 1 -0.002,-8.8e-4 0.27587292,0.27587292 0 0 1 -0.019,-0.0126 0.27591036,0.27591036 0 0 1 -0.004,-0.004 0.27587292,0.27587292 0 0 1 -0.0159,-0.0132 0.27591036,0.27591036 0 0 1 -0.005,-0.004 0.27587292,0.27587292 0 0 1 -0.0148,-0.015 0.27591036,0.27591036 0 0 1 -0.005,-0.004 0.27587292,0.27587292 0 0 1 -0.0113,-0.0139 0.27591036,0.27591036 0 0 1 -0.007,-0.008 0.27587292,0.27587292 0 0 1 -0.008,-0.0127 0.27591036,0.27591036 0 0 1 -0.007,-0.0105 0.27587292,0.27587292 0 0 1 -0.007,-0.0125 0.27591036,0.27591036 0 0 1 -0.006,-0.0126 0.27587292,0.27587292 0 0 1 -0.005,-0.0135 0.27591036,0.27591036 0 0 1 -0.004,-0.0112 0.27587292,0.27587292 0 0 1 -0.005,-0.016 0.27591036,0.27591036 0 0 1 -0.003,-0.0111 0.27587292,0.27587292 0 0 1 -0.002,-0.0129 0.27591036,0.27591036 0 0 1 -0.002,-0.0146 0.27587292,0.27587292 0 0 1 -8.2e-4,-0.01 0.27591036,0.27591036 0 0 1 -10e-4,-0.018 0.27587292,0.27587292 0 0 1 0,-0.009 0.27591036,0.27591036 0 0 1 6.1e-4,-0.0182 0.27587292,0.27587292 0 0 1 0.001,-0.01 0.27591036,0.27591036 0 0 1 0.002,-0.018 0.27587292,0.27587292 0 0 1 0.001,-0.006 0.27591036,0.27591036 0 0 1 0.005,-0.021 0.27587292,0.27587292 0 0 1 0.001,-0.003 0.27591036,0.27591036 0 0 1 0.008,-0.0226 0.27587292,0.27587292 0 0 1 0.003,-0.006 0.27591036,0.27591036 0 0 1 0.009,-0.0191 0.27587292,0.27587292 0 0 1 0.002,-0.004 0.27591036,0.27591036 0 0 1 0.0472,-0.0632 c 0.13657,-0.13665 0.22046,-0.32284 0.22046,-0.5324 0,-0.41934 -0.33424,-0.75339 -0.75383,-0.75339 z m -4.91345,0.10345 a 0.27587049,0.27587049 0 0 0 -0.003,0 h -2.07658 a 0.27587049,0.27587049 0 1 0 0,0.55136 h 2.07658 a 0.27587049,0.27587049 0 1 0 0.003,-0.55147 z m 8.6897,1.65343 -0.004,2.28994 a 0.27587054,0.27587054 0 0 1 0,0.0145 0.27587292,0.27587292 0 0 1 0,6.1e-4 0.27587054,0.27587054 0 0 1 -0.50137,0.15128 c -0.1334,-0.11963 -0.30755,-0.19255 -0.50223,-0.19255 -0.41958,0 -0.7535,0.33407 -0.7535,0.7534 0,0.41934 0.33392,0.7534 0.7535,0.7534 0.19432,0 0.36818,-0.0726 0.50148,-0.1919 a 0.27587054,0.27587054 0 0 1 0.50223,0.15678 0.27587369,0.27587369 0 0 1 0,0.0115 c 0,1.25161 0.004,2.51407 0.005,3.76827 h 1.62898 c 0.0602,-0.53891 0.25072,-1.02887 0.55999,-1.47144 0.36338,-0.52005 0.84185,-1.00475 1.34592,-1.54182 1.00812,-1.07413 2.12245,-2.34688 2.68419,-4.44269 0.005,-0.0178 0.008,-0.0411 0.0126,-0.0594 h -1.78329 c 0.0522,0.14121 0.081,0.29363 0.081,0.45211 0,0.71758 -0.58764,1.30519 -1.3053,1.30519 -0.71765,0 -1.30562,-0.58761 -1.30562,-1.30519 0,-0.15848 0.0287,-0.3109 0.0809,-0.45211 z m -8.40383,0.52335 a 0.27587049,0.27587049 0 0 0 -0.0733,0.0102 l -2.00611,0.53714 a 0.27596021,0.27596021 0 1 0 0.14298,0.53305 l 2.00568,-0.53714 a 0.27587049,0.27587049 0 0 0 -0.0693,-0.54328 z m 0.85123,2.02852 a 0.27587049,0.27587049 0 0 0 -0.15032,0.0386 l -1.79836,1.03807 a 0.27587049,0.27587049 0 1 0 0.27563,0.47766 l 1.79847,-1.03807 a 0.27587049,0.27587049 0 0 0 -0.12542,-0.51634 z m 1.31984,1.7418 a 0.27587049,0.27587049 0 0 0 -0.18975,0.0835 l -1.46811,1.46769 a 0.27587049,0.27587049 0 1 0 0.38974,0.39016 l 1.46854,-1.46769 a 0.27587049,0.27587049 0 0 0 -0.20042,-0.47367 z m 3.74672,3.77355 c -0.25942,0 -0.45977,0.20013 -0.45977,0.45935 0,0.2592 0.20036,0.45945 0.45977,0.45945 h 4.41252 c 0.25941,0 0.45934,-0.20025 0.45934,-0.45945 0,-0.25922 -0.19993,-0.45935 -0.45934,-0.45935 h -2.20157 -2.13929 z m 0.0868,1.47016 0.0255,2.1658 c 0.0136,1.15704 0.9274,2.0782 2.09243,2.0782 1.16501,0 2.07763,-0.92083 2.09241,-2.0782 l 0.0277,-2.1658 z m 1.08107,1.8559 h 2.07615 a 0.27591036,0.27591036 0 1 1 0,0.5518 h -2.07615 a 0.27591036,0.27591036 0 1 1 0,-0.5518 z"
              style="color:#000000;font-style:normal;font-variant:normal;font-weight:normal;font-stretch:normal;font-size:medium;line-height:normal;font-family:sans-serif;font-variant-ligatures:normal;font-variant-position:normal;font-variant-caps:normal;font-variant-numeric:normal;font-variant-alternates:normal;font-feature-settings:normal;text-indent:0;text-align:start;text-decoration:none;text-decoration-line:none;text-decoration-style:solid;text-decoration-color:#000000;letter-spacing:normal;word-spacing:normal;text-transform:none;writing-mode:lr-tb;direction:ltr;text-orientation:mixed;dominant-baseline:auto;baseline-shift:baseline;text-anchor:start;white-space:normal;shape-padding:0;clip-rule:nonzero;display:inline;overflow:visible;visibility:visible;opacity:1;isolation:auto;mix-blend-mode:normal;color-interpolation:sRGB;color-interpolation-filters:linearRGB;solid-color:#000000;solid-opacity:1;vector-effect:none;fill:#000000;fill-opacity:1;fill-rule:nonzero;stroke:none;stroke-width:0.54019088;stroke-linecap:round;stroke-linejoin:round;stroke-miterlimit:4;stroke-dasharray:none;stroke-dashoffset:86.95724487;stroke-opacity:1;color-rendering:auto;image-rendering:auto;shape-rendering:auto;text-rendering:auto;enable-background:accumulate"/>
    </g>
</svg>