<svg xmlns="http://www.w3.org/2000/svg" data-name="Layer 46 copy" viewBox="0 0 100 100" x="0px" y="0px">
    <path d="M80.42,26H69.34V24.3A1.49,1.49,0,0,0,68,22.81l-2.31-.27a18.57,18.57,0,0,0-.85-2.06l1.44-1.82a1.51,1.51,0,0,0-.11-2l-5-5a1.49,1.49,0,0,0-2-.11L57.35,13a16.69,16.69,0,0,0-2.05-.85L55,9.83A1.49,1.49,0,0,0,53.54,8.5H46.46A1.49,1.49,0,0,0,45,9.83l-.27,2.31a16.69,16.69,0,0,0-2.05.85l-1.83-1.44a1.49,1.49,0,0,0-2,.11l-5,5a1.51,1.51,0,0,0-.11,2l1.44,1.82a18.57,18.57,0,0,0-.85,2.06L32,22.81a1.49,1.49,0,0,0-1.33,1.49V26H18.82a5.23,5.23,0,0,0-5.23,5.23V69.41a5.23,5.23,0,0,0,5.23,5.22H40.17v6.56H28.56a1.5,1.5,0,0,0-1.5,1.5V90a1.5,1.5,0,0,0,1.5,1.5H70.68a1.5,1.5,0,0,0,1.5-1.5V82.69a1.5,1.5,0,0,0-1.5-1.5H59.08V74.63H80.42a5.23,5.23,0,0,0,5.23-5.22V31.23A5.23,5.23,0,0,0,80.42,26Zm-46.76-.37,2-.23a1.5,1.5,0,0,0,1.27-1.1,14,14,0,0,1,1.34-3.23,1.5,1.5,0,0,0-.12-1.68l-1.23-1.54L40,14.73,41.55,16a1.51,1.51,0,0,0,1.69.12,13.78,13.78,0,0,1,3.22-1.34,1.5,1.5,0,0,0,1.1-1.27l.23-2h4.42l.23,2a1.5,1.5,0,0,0,1.1,1.27,13.78,13.78,0,0,1,3.22,1.34A1.51,1.51,0,0,0,58.45,16L60,14.73l3.12,3.12-1.23,1.54a1.5,1.5,0,0,0-.12,1.68A14,14,0,0,1,63.1,24.3a1.5,1.5,0,0,0,1.27,1.1l2,.23v4.42l-2,.23a1.47,1.47,0,0,0-1.27,1.1,13.78,13.78,0,0,1-1.34,3.22,1.51,1.51,0,0,0,.12,1.69l1.23,1.54L60,41l-1.54-1.23a1.51,1.51,0,0,0-1.69-.12,13.78,13.78,0,0,1-3.22,1.34,1.49,1.49,0,0,0-1.1,1.27l-.23,2H47.79l-.23-2a1.49,1.49,0,0,0-1.1-1.27,13.78,13.78,0,0,1-3.22-1.34,1.51,1.51,0,0,0-1.69.12L40,41l-3.12-3.12,1.23-1.54a1.51,1.51,0,0,0,.12-1.69,13.78,13.78,0,0,1-1.34-3.22,1.47,1.47,0,0,0-1.27-1.1l-2-.23Zm1.25,9.87L33.71,37a1.51,1.51,0,0,0,.11,2l5,5a1.51,1.51,0,0,0,2,.11l1.83-1.45a14.74,14.74,0,0,0,2.05.85L45,45.85a1.49,1.49,0,0,0,1.49,1.33h7.08A1.49,1.49,0,0,0,55,45.85l.27-2.32a14.74,14.74,0,0,0,2.05-.85l1.83,1.45a1.51,1.51,0,0,0,2-.11l5-5a1.51,1.51,0,0,0,.11-2l-1.2-1.52h9.84V65.13H24.31V35.5ZM69.18,84.19V88.5H30.06V84.19H69.18Zm-26-3V74.63H56.08v6.56ZM82.65,69.41a2.22,2.22,0,0,1-2.23,2.22H18.82a2.22,2.22,0,0,1-2.23-2.22V31.23A2.23,2.23,0,0,1,18.82,29H30.66v2.38a1.48,1.48,0,0,0,.53,1.12H22.81a1.5,1.5,0,0,0-1.5,1.5V66.63a1.5,1.5,0,0,0,1.5,1.5H76.43a1.5,1.5,0,0,0,1.5-1.5V34a1.5,1.5,0,0,0-1.5-1.5H68.81a1.48,1.48,0,0,0,.53-1.12V29H80.42a2.23,2.23,0,0,1,2.23,2.23Z"/>
    <path d="M50,37.1a9.26,9.26,0,1,0-9.26-9.26A9.27,9.27,0,0,0,50,37.1Zm0-15.52a6.26,6.26,0,1,1-6.26,6.26A6.27,6.27,0,0,1,50,21.58Z"/>
    <path d="M39.46,62a1.49,1.49,0,0,0,1.17.57,1.47,1.47,0,0,0,.93-.33,1.5,1.5,0,0,0,.24-2.11l-3.51-4.42,3.51-4.42a1.5,1.5,0,1,0-2.34-1.87L35.2,54.74a1.5,1.5,0,0,0,0,1.86Z"/>
    <path d="M58.44,62.2a1.47,1.47,0,0,0,.93.33A1.49,1.49,0,0,0,60.54,62L64.8,56.6a1.5,1.5,0,0,0,0-1.86l-4.26-5.36a1.5,1.5,0,1,0-2.34,1.87l3.51,4.42L58.2,60.09A1.5,1.5,0,0,0,58.44,62.2Z"/>
    <path d="M46.32,62.32a1.44,1.44,0,0,0,.75.21,1.5,1.5,0,0,0,1.3-.75l5.85-10a1.49,1.49,0,0,0-.54-2.05,1.51,1.51,0,0,0-2,.54l-5.85,10A1.49,1.49,0,0,0,46.32,62.32Z"/>
</svg>