<svg xmlns="http://www.w3.org/2000/svg" data-name="Layer 1" viewBox="0 0 100 100" x="0px" y="0px">
    <defs>
        <style>.cls-1{fill-rule:evenodd;}</style>
    </defs>
    <title>a</title>
    <path class="cls-1"
          d="M71.1,18.293H65.924v1.883h-.005a1.19,1.19,0,0,1-.847,1.141c-.35.107-.711.237-1.079.39q-.506.21-.952.443a1.2,1.2,0,0,1-1.5-.159l-1.332-1.332L56.55,24.321l1.331,1.332,0,0a1.194,1.194,0,0,1,.209,1.405q-.258.485-.49,1.042-.207.5-.359.981a1.2,1.2,0,0,1-1.172.95H54.183v5.178h1.883v0a1.193,1.193,0,0,1,1.142.847c.106.35.237.711.389,1.079q.21.505.443.952a1.2,1.2,0,0,1-.159,1.5L56.55,40.925l3.661,3.661,1.332-1.332,0,0a1.192,1.192,0,0,1,1.405-.209q.485.258,1.042.49.5.207.981.359a1.2,1.2,0,0,1,.95,1.172v1.883H71.1V45.07h0a1.193,1.193,0,0,1,.847-1.142c.35-.106.711-.237,1.079-.389q.505-.21.952-.443a1.2,1.2,0,0,1,1.5.158l1.332,1.332,3.661-3.661-1.331-1.332,0,0a1.194,1.194,0,0,1-.209-1.405q.258-.484.49-1.043.208-.5.359-.98a1.2,1.2,0,0,1,1.172-.95h1.883V30.034H80.96v0a1.194,1.194,0,0,1-1.142-.847c-.106-.351-.237-.711-.389-1.079q-.21-.507-.443-.952a1.2,1.2,0,0,1,.159-1.5l1.331-1.332-3.661-3.662-1.332,1.332,0,0a1.194,1.194,0,0,1-1.405.209q-.485-.258-1.042-.49-.5-.207-.981-.359a1.2,1.2,0,0,1-.95-1.172V18.293ZM65.73,15.9H71.3a2.2,2.2,0,0,1,1.551.646l.007.007A2.2,2.2,0,0,1,73.5,18.1v1.221c.154.057.3.117.452.178s.3.126.444.194l.864-.864a1.284,1.284,0,0,1,.1-.086,2.2,2.2,0,0,1,3.018.086l3.935,3.935a1.284,1.284,0,0,1,.086.1,2.192,2.192,0,0,1-.086,3.013l0,0,0,0-.864.864q.1.222.194.444t.178.452h1.221a2.2,2.2,0,0,1,1.556.646,1.1,1.1,0,0,1,.086.1,2.186,2.186,0,0,1,.56,1.46v5.565a2.2,2.2,0,0,1-2.2,2.2H81.815c-.057.155-.117.3-.178.452s-.126.3-.194.445l.864.864a2.2,2.2,0,0,1,0,3.109l0,0,0,0-3.935,3.935a1.18,1.18,0,0,1-.1.089,2.2,2.2,0,0,1-3.014-.089l-.864-.864q-.222.1-.444.194t-.452.178v1.221a2.2,2.2,0,0,1-.646,1.556,1.18,1.18,0,0,1-.1.089,2.193,2.193,0,0,1-1.456.557H65.73a2.2,2.2,0,0,1-1.553-.648l0,0a2.2,2.2,0,0,1-.645-1.556V45.925c-.155-.058-.305-.117-.453-.178s-.3-.126-.444-.194l-.864.864a2.2,2.2,0,0,1-3.114,0l-3.935-3.935a1.284,1.284,0,0,1-.086-.1,2.192,2.192,0,0,1,.086-3.013l0,0,0,0,.864-.864q-.1-.222-.194-.444t-.178-.453H53.99a2.2,2.2,0,0,1-2.2-2.2V29.84a2.189,2.189,0,0,1,.646-1.551l0,0,0,0a2.2,2.2,0,0,1,1.556-.646h1.221c.057-.154.117-.3.178-.452s.126-.3.194-.444l-.864-.864a2.2,2.2,0,0,1,0-3.109l0,0,0,0,3.935-3.935a1.284,1.284,0,0,1,.1-.086,2.192,2.192,0,0,1,3.013.086l0,0,0,0,.864.864q.222-.1.444-.194c.147-.061.3-.121.453-.178V18.1a2.2,2.2,0,0,1,.648-1.554l0,0A2.2,2.2,0,0,1,65.73,15.9Zm6.281,13.227a4.947,4.947,0,1,1-3.5-1.449,4.932,4.932,0,0,1,3.5,1.449Zm-3.5-3.845a7.344,7.344,0,1,1-5.192,2.151,7.32,7.32,0,0,1,5.192-2.151ZM34.076,53.047H28.9V54.93h0a1.193,1.193,0,0,1-.847,1.142c-.351.106-.711.237-1.079.389q-.505.21-.952.443a1.2,1.2,0,0,1-1.5-.159l-1.332-1.331-3.661,3.661,1.331,1.332,0,0a1.194,1.194,0,0,1,.209,1.405q-.258.484-.49,1.042-.207.5-.359.981a1.2,1.2,0,0,1-1.172.95H17.157v5.178H19.04v.005a1.194,1.194,0,0,1,1.142.847c.106.351.237.711.389,1.08q.21.506.443.951a1.2,1.2,0,0,1-.159,1.5l-1.331,1.332,3.661,3.662,1.332-1.332,0,0a1.194,1.194,0,0,1,1.405-.209q.485.258,1.042.49.5.208.981.359a1.2,1.2,0,0,1,.95,1.172v1.883h5.178V79.824h.005a1.19,1.19,0,0,1,.847-1.141c.35-.107.711-.238,1.079-.39q.506-.21.952-.443a1.2,1.2,0,0,1,1.5.159l1.332,1.332,3.661-3.662-1.331-1.332,0,0a1.194,1.194,0,0,1-.209-1.405q.258-.484.49-1.043.209-.5.359-.98a1.2,1.2,0,0,1,1.172-.95h1.883V64.788H43.934v0a1.193,1.193,0,0,1-1.142-.847c-.106-.35-.237-.711-.389-1.079q-.21-.505-.443-.952a1.2,1.2,0,0,1,.159-1.5l1.331-1.332-3.661-3.661-1.332,1.331,0,0a1.194,1.194,0,0,1-1.405.209q-.485-.258-1.042-.49-.5-.207-.981-.359a1.2,1.2,0,0,1-.95-1.172V53.047ZM28.7,50.652H34.27a2.2,2.2,0,0,1,1.553.648l0,0a2.2,2.2,0,0,1,.645,1.556v1.221c.155.058.305.117.453.178s.3.126.444.194l.864-.864a1.284,1.284,0,0,1,.1-.086,2.2,2.2,0,0,1,3.018.086l3.935,3.935a2.195,2.195,0,0,1,.639,1.557h0a2.2,2.2,0,0,1-.644,1.557l-.864.864q.1.222.194.444t.178.452H46.01a2.206,2.206,0,0,1,2.2,2.2V70.16a2.189,2.189,0,0,1-.646,1.551l0,0,0,0a2.2,2.2,0,0,1-1.556.646H44.789q-.086.231-.177.451t-.2.445l.864.864a2.2,2.2,0,0,1,0,3.114l-3.935,3.935a1.18,1.18,0,0,1-.1.089,2.2,2.2,0,0,1-3.014-.089l-.864-.864q-.222.1-.444.194c-.147.061-.3.121-.453.178V81.9a2.2,2.2,0,0,1-.645,1.556c-.032.032-.066.062-.1.09a2.192,2.192,0,0,1-1.456.556H28.7a2.206,2.206,0,0,1-2.2-2.2V80.679c-.154-.057-.3-.117-.452-.178s-.3-.125-.444-.194l-.864.864a2.2,2.2,0,0,1-3.114,0l-3.935-3.935a2.2,2.2,0,0,1,0-3.114l.864-.864q-.1-.222-.194-.443t-.178-.453H16.964a2.2,2.2,0,0,1-1.556-.646,1.1,1.1,0,0,1-.086-.1,2.186,2.186,0,0,1-.56-1.46V64.6a2.206,2.206,0,0,1,2.2-2.2h1.221c.058-.154.117-.3.178-.452s.126-.295.194-.444l-.864-.864a1.044,1.044,0,0,1-.089-.1,2.192,2.192,0,0,1-.555-1.457h0a2.188,2.188,0,0,1,.639-1.552l0,0,0,0,3.935-3.935a1.284,1.284,0,0,1,.1-.086,2.192,2.192,0,0,1,3.013.086l0,0,0,0,.864.864q.222-.1.444-.194t.452-.178V52.854a2.206,2.206,0,0,1,2.2-2.2Zm6.281,13.227a4.947,4.947,0,1,1-3.5-1.449,4.932,4.932,0,0,1,3.5,1.449Zm-3.5-3.845A7.344,7.344,0,1,1,26.3,62.185a7.32,7.32,0,0,1,5.192-2.151Zm38.188,1.942a1.2,1.2,0,0,1-1.693,1.693l-5.291-5.291a1.2,1.2,0,0,1,0-1.693l5.291-5.291a1.2,1.2,0,0,1,1.693,1.693L66.06,56.7l.06.006q1.141.113,2.393.113a24.239,24.239,0,1,0-17.974-7.993l.009.01a26.585,26.585,0,1,1-19.061-8.055q.909,0,1.868.069l-2.777-2.776a1.2,1.2,0,1,1,1.694-1.694l5.291,5.291a1.2,1.2,0,0,1,0,1.694l-5.291,5.291a1.2,1.2,0,1,1-1.694-1.694l3.638-3.638c-.181-.02-.364-.039-.546-.055q-1.026-.091-2.183-.092A24.212,24.212,0,1,0,48.836,50.5q-.039-.036-.075-.075a26.59,26.59,0,1,1,19.752,8.789c-.543,0-1.094-.018-1.65-.054Z"/>
</svg>