<svg xmlns="http://www.w3.org/2000/svg" xmlns:xlink="http://www.w3.org/1999/xlink" version="1.1" x="0px" y="0px"
     viewBox="0 0 100 100" style="enable-background:new 0 0 100 100;" xml:space="preserve"><g><path d="M67.2,85.9c6.6,0,12-5.4,12-12V34.4c0-0.1,0-0.3,0-0.4c0,0,0,0,0,0c0-0.2-0.1-0.3-0.2-0.5c0,0,0-0.1-0.1-0.1   c-0.1-0.2-0.2-0.3-0.3-0.4c0,0,0,0,0,0L59.2,14.6c0,0,0,0,0,0c-0.1-0.1-0.2-0.2-0.4-0.3c0,0-0.1,0-0.1-0.1   c-0.2-0.1-0.3-0.1-0.5-0.2c0,0-0.1,0-0.1,0c-0.1,0-0.2,0-0.3,0h-25c-6.6,0-12,5.4-12,12v47.8c0,6.6,5.4,12,12,12H67.2z M59.8,20.7   l12.4,11.6H59.8V20.7z M24.8,73.9V26.1c0-4.4,3.6-8,8-8h23v16.3c0,1.1,0.9,2,2,2h17.4v37.5c0,4.4-3.6,8-8,8H32.8   C28.4,81.9,24.8,78.3,24.8,73.9z"/><path
        d="M35.3,55.4h16.5c1.1,0,2-0.9,2-2s-0.9-2-2-2H35.3c-1.1,0-2,0.9-2,2S34.2,55.4,35.3,55.4z"/><path
        d="M35.3,69.5h29.5c1.1,0,2-0.9,2-2s-0.9-2-2-2H35.3c-1.1,0-2,0.9-2,2S34.2,69.5,35.3,69.5z"/></g>
</svg>