<?xml version="1.0" standalone="no"?>
<!DOCTYPE svg PUBLIC "-//W3C//DTD SVG 20010904//EN"
 "http://www.w3.org/TR/2001/REC-SVG-20010904/DTD/svg10.dtd">
<svg version="1.0" xmlns="http://www.w3.org/2000/svg"
 width="260.000000pt" height="260.000000pt" viewBox="0 0 260.000000 260.000000"
 preserveAspectRatio="xMidYMid meet">
<metadata>
Created by potrace 1.14, written by Peter Selinger 2001-2017
</metadata>
<g transform="translate(0.000000,260.000000) scale(0.100000,-0.100000)"
fill="#000000" stroke="none">
<path d="M1630 2573 c-83 -30 -39 10 -769 -691 -331 -319 -348 -337 -374 -377
-23 -35 -61 -168 -51 -178 2 -2 6 -23 9 -46 9 -73 52 -140 135 -214 8 -7 29
-20 47 -27 17 -8 30 -17 27 -21 -2 -4 2 -7 9 -6 46 1 68 -4 61 -15 -5 -10 -4
-10 6 -1 11 10 16 9 27 -5 8 -9 11 -11 7 -3 -5 10 2 13 35 9 22 -2 41 -1 41 2
0 11 44 9 57 -2 11 -8 12 -7 7 7 -6 15 -3 17 14 13 12 -3 20 -3 19 1 -1 3 0 6
3 6 3 0 19 10 37 23 17 12 36 22 43 22 6 0 9 4 5 9 -3 5 4 13 16 16 11 4 18 9
15 12 -6 6 43 53 56 53 5 0 6 5 3 10 -3 6 -2 10 4 10 5 0 39 30 75 66 36 36
70 63 76 59 6 -4 9 -2 8 3 -5 17 108 129 125 124 5 -1 6 2 3 7 -8 13 21 34 35
25 8 -5 9 -3 4 5 -8 14 75 101 95 101 6 0 10 3 8 8 -2 4 11 21 29 38 19 19 34
27 37 20 3 -6 5 -5 5 3 1 18 57 71 66 63 4 -4 5 -2 3 4 -4 15 102 115 114 107
7 -3 8 -1 4 5 -3 6 12 29 34 51 22 22 40 37 40 35 0 -3 16 12 36 33 20 21 40
37 45 35 5 -1 9 3 9 8 0 6 15 26 33 45 50 53 62 70 73 110 1 6 7 24 12 40 16
56 6 150 -23 212 -41 86 -136 169 -219 190 -54 14 -173 12 -216 -4z"/>
<path d="M1695 1603 c-32 -9 -65 -22 -73 -29 -7 -8 -19 -14 -27 -14 -7 0 -15
-7 -19 -15 -3 -8 -9 -15 -13 -15 -5 0 -61 -51 -124 -112 -120 -116 -464 -448
-573 -551 -350 -334 -366 -356 -374 -487 -5 -100 21 -171 87 -237 62 -62 99
-92 105 -85 3 2 13 -4 23 -15 10 -10 14 -13 9 -6 -12 18 9 17 27 -2 12 -11 17
-12 20 -2 4 9 6 9 6 -1 1 -7 6 -10 11 -7 6 4 18 1 27 -7 12 -9 15 -9 9 0 -4 6
-2 12 3 12 6 0 11 -5 11 -12 0 -9 3 -9 12 0 16 16 31 15 22 0 -5 -9 -2 -9 9 1
9 7 17 10 17 5 0 -4 5 -3 12 4 19 19 32 14 17 -5 -12 -16 -11 -15 8 0 12 11
27 16 34 11 7 -4 10 -3 6 3 -4 6 0 14 9 17 23 9 26 8 19 -6 -4 -7 2 -2 13 11
13 16 24 21 33 16 8 -5 11 -5 7 -1 -7 9 71 82 84 79 4 -2 8 3 8 10 0 18 35 49
44 40 4 -5 6 -3 5 2 -5 14 90 107 102 100 5 -4 9 -3 8 2 -3 20 2 34 11 28 6
-3 10 1 10 10 0 9 5 13 10 10 6 -3 10 -1 10 5 0 6 5 8 12 4 6 -4 8 -3 5 3 -8
13 17 36 27 25 4 -4 6 -2 4 4 -4 16 70 87 82 79 5 -3 7 0 5 7 -6 16 41 62 54
53 5 -2 8 3 7 13 0 9 5 16 12 15 6 -2 12 2 12 8 0 15 26 39 34 32 3 -4 6 1 6
10 0 9 4 17 9 17 5 0 24 15 42 33 18 17 38 31 43 29 6 -2 8 0 4 3 -8 8 77 95
92 95 6 0 10 5 10 11 0 5 4 7 10 4 6 -3 7 1 4 9 -3 9 -2 16 3 16 4 0 61 51
125 114 65 62 120 111 123 108 3 -3 5 1 5 9 0 9 8 24 18 35 31 33 55 114 55
184 0 87 -38 173 -103 234 -48 45 -111 83 -152 90 -13 3 -23 5 -23 6 0 10
-124 5 -170 -7z"/>
</g>
</svg>
