<svg xmlns="http://www.w3.org/2000/svg" xmlns:xlink="http://www.w3.org/1999/xlink" version="1.1" x="0px" y="0px"
     viewBox="0 0 90 100" enable-background="new 0 0 90 90" xml:space="preserve"><path fill-rule="evenodd" clip-rule="evenodd" d="M25.336,38.398c-0.598,0-1.074,0.487-1.074,1.08c0,0.593,0.481,1.074,1.074,1.074  h29.668c0.593,0,1.08-0.476,1.08-1.074c0.005-0.598-0.481-1.085-1.08-1.08H25.336z"/>
    <path fill-rule="evenodd" clip-rule="evenodd"
          d="M20.202,2.699c-0.593,0.005-1.074,0.481-1.074,1.074v30.539  c-0.005,0.598,0.476,1.08,1.074,1.085c0.598,0,1.08-0.487,1.08-1.085V4.858H68.72v3.614c0,0.598,0.481,1.08,1.074,1.085  c0.598,0,1.085-0.487,1.085-1.085V3.773c-0.005-0.593-0.487-1.074-1.085-1.074H20.202z"/>
    <path fill-rule="evenodd" clip-rule="evenodd"
          d="M36.265,18.022c-0.314,0.019-0.607,0.176-0.801,0.431  c-0.354,0.476-0.253,1.155,0.223,1.51l9.727,7.254c-0.243,0.638-0.295,1.292-0.183,1.875c0.173,0.877,0.64,1.592,1.273,2.068  l6.919,5.159c1.263,0.943,3.005,0.943,4.263,0l1.941-1.444v9.216c-0.005,0.593,0.476,1.08,1.074,1.08  c0.598,0.005,1.085-0.481,1.08-1.08V32.727c0.005-0.893-1.013-1.399-1.728-0.867l-3.659,2.726c-0.633,0.472-1.252,0.324-1.678,0.01  l-6.924-5.164c-0.162-0.122-0.38-0.42-0.441-0.745c-0.066-0.32-0.03-0.664,0.3-1.1c0.237-0.314,0.567-0.568,0.841-0.649  c0.279-0.082,0.507-0.096,0.978,0.253l5.443,4.055c0.38,0.284,0.908,0.284,1.292,0l5.434-4.055c0.365-0.269,0.725-0.42,0.846-0.42  h8.891c0.284,0,0.76,0.258,1.085,0.649l5.459,7.77c0.38,0.462,1.064,0.523,1.526,0.138c0.455-0.38,0.516-1.06,0.136-1.516  l-5.459-7.766c-0.619-0.75-1.551-1.429-2.747-1.429h-8.891c-0.952,0-1.636,0.476-2.133,0.846l-4.796,3.579l-4.795-3.584  c-0.917-0.684-2.013-0.846-2.879-0.588c-0.455,0.132-0.846,0.356-1.176,0.619l-9.732-7.254  C36.772,18.083,36.519,18.012,36.265,18.022z"/>
    <path fill-rule="evenodd" clip-rule="evenodd"
          d="M70.51,32.24l0.984,2.032c0.309,0.513,0.795,0.71,1.303,0.396  c0.511-0.314,0.501-0.837,0.187-1.343l-1.282-1.876C71.007,30.43,70.068,31.328,70.51,32.24z"/>
    <path fill-rule="evenodd" clip-rule="evenodd"
          d="M70.925,15.122c0.958,2.206-0.056,4.75-2.266,5.703  c-2.22,0.958-4.76-0.051-5.717-2.266c-0.954-2.215,0.045-4.749,2.271-5.703v-0.009c1.104-0.477,2.295-0.462,3.324-0.052  C69.571,13.207,70.449,14.013,70.925,15.122z M64.412,10.992c-3.225,1.383-4.714,5.154-3.331,8.368  c1.394,3.223,5.161,4.714,8.384,3.326c3.219-1.39,4.714-5.155,3.321-8.37c-0.694-1.606-1.992-2.782-3.507-3.385  C67.763,10.327,66.024,10.298,64.412,10.992z"/>
    <path d="M78.274,55.166h-0.005l-3.633,0.005c-0.502,0.005-1.734,0.603-2.53,1.47l-5.991,6.539c-0.202,0.222-0.497,0.349-0.801,0.344  h-6.509c-0.775,0-1.216,0.249-1.53,0.588c-0.315,0.34-0.492,0.821-0.492,1.318c0,0.492,0.176,0.978,0.492,1.318  c0.314,0.339,0.755,0.583,1.53,0.583h7.74c0.588,0,1.074-0.223,1.329-0.542l2.17-2.752c0.572-0.72,1.723-0.441,1.905,0.455  l2.372,12.216h9.631l-3.766-19.271c-0.138-0.71-0.406-1.329-0.731-1.709C79.131,55.348,78.817,55.166,78.274,55.166z M78.269,53.007  c1.161,0,2.175,0.551,2.829,1.322c0.654,0.771,1.019,1.718,1.212,2.691l4.008,20.559c0.127,0.664-0.379,1.282-1.054,1.282H73.429  c-0.513,0-0.954-0.365-1.055-0.865l-2.093-10.787l-0.882,1.106c-0.76,0.75-1.784,1.17-2.848,1.17h-7.745  c-1.292,0-2.402-0.497-3.117-1.277c-0.72-0.776-1.064-1.784-1.064-2.783c0-0.994,0.344-2.002,1.064-2.778  c0.715-0.78,1.824-1.277,3.117-1.277h6.043l5.672-6.19c1.109-1.211,2.545-2.159,4.116-2.163L78.269,53.007z"/>
    <path d="M39.651,72.213h10.705c2.447,0,4.547,1.88,5.332,3.699c0.888,2.063,0.952,4.278,0.715,5.55  c-0.274,1.465-0.476,2.033-0.872,2.606c-0.289,0.426-0.978,0.917-1.43,1.074H35.9c-0.452-0.157-1.151-0.649-1.439-1.074  c-0.391-0.572-0.589-1.141-0.862-2.606c-0.244-1.272-0.173-3.487,0.714-5.55C35.099,74.098,37.203,72.213,39.651,72.213z   M39.651,70.057c-3.493,0-6.21,2.428-7.32,4.998c-1.085,2.519-1.186,5.053-0.856,6.807c0.293,1.561,0.598,2.545,1.202,3.427  c0.633,0.926,1.586,1.647,2.67,1.966c0.096,0.031,0.199,0.045,0.3,0.045h18.709c0.101,0,0.202-0.014,0.298-0.045  c1.085-0.319,2.033-1.039,2.661-1.966c0.603-0.877,0.917-1.866,1.211-3.427c0.33-1.754,0.228-4.289-0.856-6.807  c-1.109-2.571-3.821-4.998-7.313-4.998H39.651z"/>
    <path fill-rule="evenodd" clip-rule="evenodd"
          d="M50.604,57.969c1.333,3.087-0.077,6.661-3.167,7.993  c-3.108,1.338-6.681-0.077-8.019-3.178c-1.333-3.097,0.077-6.65,3.183-7.993c1.545-0.664,3.214-0.649,4.658-0.077  C48.703,55.288,49.931,56.418,50.604,57.969z M41.755,52.803c-4.182,1.8-6.113,6.671-4.315,10.843  c1.8,4.172,6.671,6.092,10.843,4.298c4.172-1.798,6.097-6.67,4.298-10.831c-0.897-2.089-2.564-3.614-4.526-4.39  C46.089,51.942,43.832,51.907,41.755,52.803z"/>
    <path d="M67.574,70.392c-0.112-0.01-0.228-0.005-0.34,0.016c-0.583,0.117-0.963,0.684-0.851,1.266l0.978,5.033h-6.68  c-0.593,0-1.08,0.481-1.08,1.074c-0.005,0.598,0.481,1.085,1.08,1.085h7.993c0.673-0.005,1.181-0.623,1.054-1.287l-1.221-6.315  c-0.091-0.461-0.466-0.811-0.933-0.867V70.392z"/>
    <path d="M27.035,47.34c-0.516,0-0.963,0.37-1.059,0.876l-1.882,9.662c-0.116,0.583,0.269,1.15,0.858,1.261  c0.583,0.117,1.15-0.263,1.261-0.851l1.709-8.783H62.07l1.708,8.783c0.117,0.588,0.685,0.973,1.273,0.851  c0.583-0.112,0.963-0.679,0.851-1.261l-1.875-9.662c-0.096-0.506-0.542-0.876-1.065-0.876H27.035z"/>
    <path fill-rule="evenodd" clip-rule="evenodd"
          d="M21.185,41.242c1.273,2.94-0.071,6.341-3.01,7.609  c-2.955,1.272-6.352-0.071-7.623-3.022c-1.273-2.944,0.071-6.335,3.026-7.613c1.475-0.633,3.061-0.607,4.435-0.061  C19.385,38.697,20.547,39.767,21.185,41.242z M12.721,36.234c-4.025,1.739-5.885,6.432-4.152,10.447  c1.739,4.019,6.433,5.885,10.452,4.151c4.02-1.734,5.879-6.432,4.146-10.447c-0.871-2.007-2.478-3.478-4.369-4.228  C16.907,35.407,14.728,35.372,12.721,36.234z"/>
    <path fill-rule="evenodd" clip-rule="evenodd"
          d="M76.424,38.216c2.956,1.278,4.299,4.669,3.027,7.613  c-1.273,2.951-4.669,4.294-7.625,3.022c-2.939-1.268-4.282-4.669-3.01-7.609c0.638-1.474,1.8-2.545,3.174-3.087  C73.363,37.608,74.95,37.582,76.424,38.216z M66.835,40.385c-1.734,4.015,0.122,8.713,4.135,10.447  c4.025,1.734,8.724-0.132,10.463-4.151c1.728-4.015-0.138-8.708-4.161-10.447c-2.007-0.862-4.182-0.827-6.073-0.077  C69.303,36.908,67.702,38.378,66.835,40.385z"/>
    <path d="M11.722,55.166h0.01l3.629,0.005c0.507,0.005,1.739,0.603,2.529,1.47l5.991,6.539c0.208,0.222,0.497,0.349,0.801,0.344  h6.514c0.771,0,1.217,0.249,1.531,0.588c0.314,0.34,0.492,0.821,0.492,1.318c0,0.492-0.178,0.978-0.492,1.318  c-0.314,0.339-0.76,0.583-1.531,0.583h-7.74c-0.593,0-1.08-0.223-1.327-0.542l-2.17-2.752c-0.574-0.72-1.723-0.441-1.906,0.455  l-2.372,12.216H6.05l3.766-19.271c0.138-0.71,0.406-1.329,0.731-1.709C10.865,55.348,11.185,55.166,11.722,55.166z M11.732,53.007  c-1.165,0-2.175,0.551-2.834,1.322C8.244,55.1,7.88,56.047,7.693,57.02L3.683,77.58c-0.132,0.664,0.375,1.282,1.054,1.282h11.835  c0.513,0,0.954-0.365,1.05-0.865l2.093-10.787l0.888,1.106c0.76,0.75,1.779,1.17,2.843,1.17h7.751c1.292,0,2.398-0.497,3.117-1.277  c0.72-0.776,1.06-1.784,1.06-2.783c0-0.994-0.34-2.002-1.06-2.778c-0.719-0.78-1.824-1.277-3.117-1.277h-6.042l-5.677-6.19  c-1.111-1.211-2.539-2.159-4.116-2.163L11.732,53.007z"/>
    <path fill-rule="evenodd" clip-rule="evenodd"
          d="M22.757,70.408c-0.583-0.112-1.151,0.269-1.263,0.856l-1.226,6.315  c-0.131,0.664,0.38,1.287,1.06,1.282h7.993c0.593,0,1.074-0.485,1.074-1.08c-0.005-0.593-0.481-1.074-1.074-1.074H22.64l0.978-5.037  C23.73,71.086,23.344,70.519,22.757,70.408z"/>
</svg>