<svg xmlns="http://www.w3.org/2000/svg" xmlns:xlink="http://www.w3.org/1999/xlink" version="1.1" x="0px" y="0px"
     viewBox="0 0 96 100" enable-background="new 0 0 96 96" xml:space="preserve"><path d="M59.308,78.638l9.733,18.346l-0.863-20.418L57.806,38.386c3.341-2.871,5.324-7.094,5.32-11.525  c-0.006-7.142-5.024-13.281-11.868-14.797l-0.008-8.064l-6.683,0.004l0.007,8.066c-6.841,1.532-11.845,7.683-11.835,14.823  c0.003,4.416,1.994,8.633,5.339,11.508L27.845,76.277L26.973,97.03l9.571-18.056l4.253-15.701l5.673-0.005l0.002,2.459l3-0.002  l-0.002-2.46l5.649-0.005L59.308,78.638z M65.486,83.934l-2.523-4.736l2.297-0.626L65.486,83.934z M64.837,75.577l-3.029,0.825  L49.78,32.234l3.024-0.825L64.837,75.577z M46.675,21.202l0.246,1.479c0.597-0.099,1.399-0.099,2.019-0.001l0.235-1.481  l-0.195,1.487c3.844,0.503,6.747,3.817,6.751,7.71c0,0.094-0.018,0.184-0.021,0.277l-0.801-2.949l-6.973,1.901l-6.98-1.888  l-0.796,2.946c-0.003-0.092-0.021-0.181-0.021-0.273c-0.005-3.892,2.89-7.212,6.733-7.724L46.675,21.202z M48.252,7.001l0.005,4.685  c-0.226-0.005-0.459-0.005-0.684,0l-0.004-4.685L48.252,7.001z M37.508,33.181c-1.137-1.87-1.768-4.023-1.77-6.292  c-0.008-6.072,4.499-11.253,10.489-12.074l0.091-0.015c0.959-0.158,2.224-0.159,3.203-0.001l0.073,0.012  c6,0.799,10.526,5.975,10.532,12.053c0.002,2.219-0.627,4.369-1.74,6.238c0.226-0.877,0.348-1.785,0.346-2.709  c-0.006-5.377-4.011-9.958-9.321-10.673v-0.001c-0.006-0.001-0.014-0.001-0.02-0.002c-0.007-0.001-0.013-0.002-0.02-0.003v0.001  c-0.918-0.141-1.995-0.14-2.893,0.003v-0.001c-0.008,0.001-0.017,0.003-0.025,0.004c-0.008,0.001-0.016,0.002-0.023,0.003l0,0.001  c-5.307,0.731-9.297,5.318-9.29,10.691C37.14,31.36,37.27,32.286,37.508,33.181z M30.501,83.969l0.216-5.362l2.297,0.622  L30.501,83.969z M34.162,76.432l-3.029-0.82L43.07,31.419l3.029,0.819L34.162,76.432z M49.468,60.266l-0.002-2.462l-3,0.002  l0.002,2.463l-4.858,0.004l6.332-23.371l6.361,23.36L49.468,60.266z"/>
</svg>