<?xml version="1.0" standalone="no"?>
<!DOCTYPE svg PUBLIC "-//W3C//DTD SVG 20010904//EN"
 "http://www.w3.org/TR/2001/REC-SVG-20010904/DTD/svg10.dtd">
<svg version="1.0" xmlns="http://www.w3.org/2000/svg"
 width="1024.000000pt" height="1024.000000pt" viewBox="0 0 1024.000000 1024.000000"
 preserveAspectRatio="xMidYMid meet">

<g transform="translate(0.000000,1024.000000) scale(0.100000,-0.100000)"
fill="#000000" stroke="none">
<path d="M5015 8456 c-62 -15 -150 -54 -142 -62 3 -3 16 1 29 9 34 21 115 44
180 51 59 6 194 -8 212 -23 6 -4 22 -11 36 -14 14 -4 61 -27 105 -53 44 -26
125 -72 180 -104 55 -31 136 -78 180 -104 98 -59 115 -68 115 -62 0 9 -539
322 -595 345 -72 30 -220 38 -300 17z"/>
<path d="M4814 8364 c-18 -14 -18 -15 4 -4 12 6 22 13 22 15 0 8 -5 6 -26 -11z"/>
<path d="M4734 8314 c-18 -14 -18 -15 4 -4 12 6 22 13 22 15 0 8 -5 6 -26 -11z"/>
<path d="M4580 8220 c-9 -6 -10 -10 -3 -10 6 0 15 5 18 10 8 12 4 12 -15 0z"/>
<path d="M4475 8160 c-16 -11 -25 -20 -20 -20 10 0 64 39 55 40 -3 0 -18 -9
-35 -20z"/>
<path d="M3878 7801 c-524 -316 -615 -377 -639 -426 l-10 -20 16 20 c9 11 21
19 26 17 12 -3 80 43 124 85 7 7 15 9 19 6 3 -4 6 -1 6 5 0 7 4 11 8 9 11 -3
102 55 102 66 0 4 4 6 9 3 5 -3 25 8 46 24 20 16 45 32 56 35 10 4 19 11 19
16 0 6 5 7 10 4 6 -3 10 -2 10 2 0 5 26 24 58 43 71 43 115 72 123 83 3 5 10
9 15 9 17 1 54 21 54 30 0 4 6 8 13 8 7 0 29 12 48 26 19 14 44 30 56 34 12 5
43 24 70 42 63 43 83 56 113 71 14 6 30 15 35 20 6 4 42 28 80 53 62 41 108
76 95 73 -3 -1 -256 -153 -562 -338z"/>
<path d="M5052 8079 c-24 -4 -67 -19 -95 -32 -51 -24 -923 -543 -1004 -598
-61 -42 -112 -136 -98 -180 5 -13 14 -8 48 27 23 24 48 44 55 44 6 0 12 5 12
10 0 6 7 10 15 10 9 0 18 7 21 15 4 8 12 15 20 15 7 0 28 12 46 28 18 15 57
43 85 62 29 19 53 38 53 43 0 4 6 7 13 7 7 0 36 16 64 35 29 19 54 35 57 35 3
0 16 10 29 23 39 37 128 98 197 135 36 19 77 43 92 53 14 11 30 19 35 19 6 0
18 8 27 19 9 10 31 21 49 25 29 6 95 34 107 46 12 12 81 30 136 36 95 10 198
-10 284 -54 250 -130 352 -187 390 -220 29 -25 183 -137 216 -157 61 -36 204
-167 204 -187 0 -5 9 -19 21 -31 18 -19 20 -32 17 -86 -3 -38 -9 -66 -16 -69
-8 -2 -10 -16 -6 -42 7 -42 -9 -102 -32 -120 -12 -11 -12 -8 1 16 36 69 1 170
-85 247 -29 27 -63 53 -74 58 -13 6 -11 2 7 -11 15 -12 27 -31 27 -41 0 -13 4
-18 12 -13 22 14 -1 -90 -36 -163 -36 -73 -155 -223 -186 -235 -10 -4 -21 -11
-25 -17 -10 -17 -125 -91 -140 -91 -8 0 -16 -4 -19 -9 -3 -5 -36 -25 -73 -44
-38 -19 -84 -42 -103 -52 -19 -10 -46 -24 -60 -31 -36 -17 -192 -38 -226 -30
-16 3 -40 9 -53 12 -13 3 -37 14 -53 25 -15 11 -28 17 -28 12 0 -4 -6 -1 -13
7 -7 8 -33 25 -58 37 -44 20 -116 74 -170 127 -15 14 -32 26 -38 26 -6 0 -11
7 -11 15 0 8 -5 15 -12 15 -21 0 -198 183 -209 217 -6 18 -17 33 -25 33 -9 0
-13 4 -10 9 3 5 -2 26 -11 47 -10 23 -18 68 -18 106 l-2 68 39 25 c63 42 43
38 -53 -11 -149 -75 -229 -164 -229 -258 0 -97 44 -152 193 -245 256 -158 564
-336 621 -359 80 -33 200 -41 278 -18 35 10 204 105 469 264 228 136 449 268
493 293 146 82 206 156 206 253 0 60 -27 114 -81 160 -23 20 -169 111 -323
203 -155 91 -362 214 -461 273 -230 137 -268 156 -340 169 -67 12 -101 12
-163 0z"/>
<path d="M5982 8044 c10 -10 20 -15 24 -12 3 4 -5 12 -18 18 -22 12 -22 12 -6
-6z"/>
<path d="M6020 8026 c0 -3 9 -10 20 -16 11 -6 20 -8 20 -6 0 3 -9 10 -20 16
-11 6 -20 8 -20 6z"/>
<path d="M6320 7846 c0 -3 9 -10 20 -16 11 -6 20 -8 20 -6 0 3 -9 10 -20 16
-11 6 -20 8 -20 6z"/>
<path d="M6420 7785 c0 -5 52 -39 125 -80 28 -16 46 -24 40 -18 -14 14 -165
104 -165 98z"/>
<path d="M5061 7699 c-73 -13 -109 -30 -306 -148 -203 -122 -228 -141 -262
-192 -21 -32 -26 -52 -26 -97 0 -65 16 -103 65 -148 31 -30 188 -134 201 -134
3 0 -1 17 -9 37 -9 21 -14 51 -11 70 3 18 1 35 -4 38 -5 4 -9 -1 -9 -9 0 -9
-5 -16 -10 -16 -13 0 -1 82 14 92 8 5 7 8 -1 8 -7 0 -13 7 -13 15 0 8 6 15 13
15 8 0 7 4 -3 11 -13 9 -13 10 0 8 29 -3 40 1 40 15 0 8 15 25 33 37 17 13 34
27 35 31 2 4 10 8 18 8 8 0 14 4 14 9 0 5 9 13 20 16 11 4 18 10 16 14 -3 4
11 13 30 20 19 7 32 16 29 20 -6 11 120 31 195 31 50 0 72 -6 128 -35 136 -72
174 -101 198 -147 10 -19 11 -28 3 -28 -6 0 3 -17 21 -37 37 -41 60 -92 59
-125 0 -17 -4 -12 -12 15 -23 73 -101 143 -237 212 -63 33 -186 45 -256 26
-56 -15 -223 -121 -258 -164 -57 -71 -42 -165 40 -236 62 -55 78 -58 117 -24
97 85 215 101 329 45 68 -33 114 -72 86 -72 -9 0 -21 7 -29 16 -7 8 -36 27
-63 42 -66 35 -170 37 -231 5 -40 -21 -95 -69 -95 -83 0 -4 28 -20 62 -35 118
-53 242 -43 337 26 23 16 44 29 47 29 3 0 59 31 123 68 64 38 137 81 163 95
60 35 126 110 134 154 11 58 -1 130 -29 172 -31 47 -87 86 -298 208 -208 120
-285 143 -408 122z m-366 -629 c-3 -5 -11 -10 -16 -10 -6 0 -7 5 -4 10 3 6 11
10 16 10 6 0 7 -4 4 -10z"/>
<path d="M6605 7672 c6 -5 82 -54 170 -107 88 -53 180 -113 205 -133 l45 -35
-35 36 c-19 20 -111 82 -205 138 -195 117 -194 116 -180 101z"/>
<path d="M3785 7365 c-92 -49 -188 -131 -216 -186 -21 -41 -25 -121 -9 -163
26 -70 133 -155 345 -278 72 -42 274 -160 450 -263 176 -104 374 -220 440
-258 132 -78 203 -104 303 -113 80 -7 200 15 264 47 23 12 219 126 433 254
215 127 453 269 530 314 341 200 396 251 395 370 -1 56 -51 158 -72 145 -5 -3
-4 -12 3 -20 9 -11 8 -18 -6 -34 -9 -10 -14 -23 -11 -28 8 -14 -82 -194 -94
-187 -5 3 -10 -1 -10 -9 0 -8 -6 -21 -14 -28 -7 -8 -16 -24 -20 -35 -4 -12
-15 -24 -24 -28 -10 -3 -45 -28 -77 -55 -57 -49 -74 -59 -156 -101 -19 -10
-41 -25 -49 -33 -7 -9 -19 -16 -26 -16 -8 0 -34 -16 -60 -35 -25 -19 -51 -35
-57 -35 -7 0 -32 -18 -57 -40 -25 -22 -49 -40 -53 -40 -5 0 -23 -11 -41 -25
-26 -19 -35 -22 -45 -12 -10 9 -11 8 -6 -5 5 -13 0 -20 -16 -27 -13 -5 -27 -7
-31 -4 -5 2 -8 -1 -8 -6 0 -6 -7 -11 -15 -11 -8 0 -15 -3 -15 -7 0 -11 -51
-33 -61 -27 -5 3 -21 -3 -37 -14 -15 -11 -33 -17 -39 -15 -7 3 -13 0 -13 -5 0
-10 -114 -72 -131 -72 -6 0 -27 -11 -47 -25 -20 -14 -45 -25 -54 -25 -10 0
-18 -4 -18 -8 0 -8 -67 -26 -134 -36 -27 -3 -108 5 -175 19 -13 2 -31 11 -41
20 -9 8 -23 15 -31 15 -8 0 -30 11 -49 25 -19 14 -40 25 -47 25 -8 0 -27 9
-43 20 -151 101 -174 118 -204 144 -16 15 -34 26 -39 26 -6 0 -24 11 -41 24
-17 13 -41 26 -53 30 -13 4 -23 11 -23 16 0 11 -67 50 -86 50 -8 0 -12 5 -9
10 3 6 1 10 -5 10 -6 0 -25 14 -43 31 -18 16 -49 39 -70 50 -23 12 -35 24 -31
31 5 8 2 9 -9 5 -25 -10 -44 1 -57 34 -7 16 -16 26 -20 24 -5 -3 -11 3 -14 12
-3 10 -31 34 -61 53 -30 19 -54 41 -55 48 0 6 -7 12 -15 12 -15 0 -35 30 -34
52 0 7 5 4 10 -7 8 -17 9 -16 3 5 -3 14 -7 33 -8 42 -1 10 -6 21 -11 25 -4 5
-5 2 -1 -4 4 -7 2 -13 -4 -13 -7 0 -10 -7 -7 -14 4 -10 1 -13 -8 -10 -16 7
-27 32 -19 45 3 5 10 7 15 4 20 -13 7 3 -37 45 -26 25 -44 39 -40 33 4 -7 2
-13 -4 -13 -7 0 -10 7 -7 14 3 8 -1 30 -10 48 -29 58 -29 128 0 187 15 28 25
51 24 50 -1 -1 -38 -20 -82 -44z m111 -282 c-7 -7 -26 7 -26 19 0 6 6 6 15 -2
9 -7 13 -15 11 -17z m28 -22 c3 -5 -1 -11 -9 -15 -9 -3 -15 0 -15 9 0 16 16
20 24 6z"/>
<path d="M4430 7330 c-13 -8 -12 -10 3 -10 9 0 17 5 17 10 0 12 -1 12 -20 0z"/>
<path d="M4425 7232 c2 -29 12 -62 21 -75 14 -19 15 -19 9 -2 -5 11 -14 45
-22 75 l-13 55 5 -53z"/>
<path d="M2228 7221 c-143 -96 -214 -183 -244 -301 -40 -157 27 -328 173 -441
81 -62 344 -223 733 -449 63 -37 224 -132 357 -211 225 -133 343 -203 1043
-616 439 -259 605 -352 666 -374 75 -26 226 -29 294 -5 40 14 41 15 13 13 -18
-2 -33 0 -33 5 0 4 7 8 15 8 8 0 15 7 15 15 0 15 15 34 92 115 26 28 53 58 60
67 7 10 29 30 48 44 20 15 47 38 60 53 14 14 29 26 34 26 8 0 100 66 164 117
18 15 40 28 50 29 9 2 23 12 31 23 7 12 20 21 27 21 8 0 24 11 36 25 11 13 24
22 28 20 5 -3 11 2 14 11 3 8 10 13 15 10 5 -4 30 12 56 34 25 22 50 40 56 40
8 0 27 15 74 60 12 11 26 20 33 20 26 0 105 57 97 70 -3 4 10 14 27 21 18 7
40 21 50 31 10 10 25 18 33 18 8 0 15 5 15 10 0 6 6 10 13 10 8 0 22 9 32 20
10 11 22 20 27 20 11 0 72 42 76 53 2 4 10 7 18 7 8 0 14 5 14 10 0 6 6 10 13
10 7 0 23 9 35 20 12 11 28 20 36 20 8 0 21 8 28 18 7 9 27 24 43 32 35 17
109 70 164 118 21 17 44 32 50 32 6 0 11 5 11 10 0 6 9 10 19 10 11 0 22 8 26
19 5 17 59 71 71 71 3 0 17 9 31 20 14 11 30 17 35 14 5 -3 12 3 15 15 3 12
13 21 24 21 11 0 19 7 19 15 0 9 11 20 24 24 13 5 26 16 29 24 6 15 43 40 80
53 12 4 17 13 14 25 -3 12 0 16 9 12 8 -3 27 9 43 26 15 16 31 27 35 24 3 -3
6 -1 6 5 0 7 7 9 18 5 9 -3 14 -3 10 2 -10 10 36 49 87 75 22 11 56 30 75 42
19 11 55 32 80 46 76 42 206 140 225 169 14 22 7 18 -32 -17 -47 -42 -228
-153 -958 -585 -341 -202 -669 -398 -1124 -669 -172 -103 -343 -202 -380 -221
-128 -66 -265 -81 -403 -46 -89 23 -138 46 -313 151 -71 42 -276 164 -455 270
-332 198 -1103 658 -1538 919 -323 193 -384 253 -412 401 -13 68 -5 131 26
193 30 62 17 61 -78 -2z"/>
<path d="M4735 7170 c-10 -11 -16 -22 -14 -24 2 -2 12 7 22 20 22 29 17 32 -8
4z"/>
<path d="M2752 7133 c-50 -52 -62 -87 -62 -174 0 -70 110 -223 192 -267 27
-15 66 -39 85 -54 20 -16 42 -28 49 -28 8 0 54 -22 103 -49 49 -28 104 -57
123 -65 18 -8 49 -25 67 -38 19 -12 31 -17 27 -10 -4 7 10 1 31 -14 21 -14 65
-40 98 -56 33 -17 62 -34 65 -37 3 -4 25 -15 50 -24 25 -9 70 -33 100 -53 30
-20 84 -50 120 -68 62 -32 193 -103 235 -129 68 -42 116 -69 245 -141 80 -43
177 -97 215 -118 110 -61 238 -125 265 -133 14 -4 32 -13 40 -20 30 -27 178
-48 285 -42 135 8 240 47 399 149 33 21 65 38 72 38 7 0 19 8 26 18 7 9 22 22
33 29 11 6 49 29 84 50 34 21 73 47 85 58 13 12 27 20 32 18 5 -2 22 8 38 22
16 14 25 25 20 25 -5 0 -1 5 8 11 10 5 20 9 24 9 3 -1 14 8 23 19 10 12 26 21
35 21 9 0 16 5 16 10 0 6 6 10 14 10 7 0 19 7 26 16 14 16 79 48 93 46 4 -1 7
3 7 9 0 5 5 7 12 3 6 -4 8 -3 5 3 -4 6 17 23 46 39 28 15 67 38 86 51 19 13
36 21 39 18 3 -2 10 3 17 11 6 9 32 28 57 43 46 26 626 378 766 464 40 25 87
57 105 71 29 25 28 25 -13 -2 -41 -28 -858 -517 -1560 -935 -163 -97 -324
-185 -360 -198 -88 -30 -268 -33 -350 -5 -91 31 -123 49 -1059 610 -594 355
-923 558 -958 590 -60 54 -95 109 -114 176 -22 78 -31 81 -87 23z"/>
<path d="M4475 7110 c10 -11 20 -20 23 -20 3 0 -3 9 -13 20 -10 11 -20 20 -23
20 -3 0 3 -9 13 -20z"/>
<path d="M7299 6913 c-13 -16 -12 -17 4 -4 9 7 17 15 17 17 0 8 -8 3 -21 -13z"/>
<path d="M1948 6585 c2 -174 5 -204 28 -282 57 -198 130 -281 369 -422 197
-116 305 -183 305 -189 0 -2 -17 6 -37 18 -21 12 -94 55 -163 95 -343 198
-420 272 -476 460 -10 33 -21 64 -25 69 -4 4 -6 -142 -4 -325 4 -434 24 -565
108 -701 35 -58 109 -125 189 -170 76 -42 138 -86 138 -96 0 -4 -17 -14 -37
-22 -58 -23 -61 -23 -20 0 20 11 37 22 37 24 0 3 -39 25 -87 51 -191 101 -262
184 -307 359 -22 84 -30 83 -22 -4 4 -41 11 -124 16 -185 10 -129 25 -197 46
-208 8 -4 14 -15 14 -22 0 -8 3 -14 8 -13 4 2 41 -32 82 -76 62 -65 91 -86
170 -126 52 -26 106 -50 120 -53 14 -4 56 -27 94 -52 38 -25 71 -43 74 -40 4
4 80 -76 94 -100 4 -7 23 -16 43 -19 19 -4 34 -12 32 -18 -1 -5 7 -12 18 -14
18 -3 123 -54 185 -89 14 -8 24 -21 22 -29 -1 -8 9 -16 26 -19 24 -5 145 -77
162 -96 11 -13 89 -51 104 -51 9 0 16 -4 16 -10 0 -5 11 -10 25 -10 14 0 25
-3 25 -8 0 -4 14 -13 30 -20 17 -8 28 -19 24 -25 -3 -7 3 -2 14 10 18 21 21
21 35 5 8 -9 19 -29 22 -44 4 -16 11 -28 17 -28 5 0 6 -4 3 -10 -4 -6 9 -10
31 -10 29 0 34 -3 26 -13 -9 -10 -5 -17 17 -30 15 -9 31 -14 35 -10 3 3 6 1 6
-5 0 -6 13 -13 29 -17 16 -3 37 -17 46 -31 9 -14 20 -22 25 -19 13 8 110 -49
164 -96 25 -23 46 -38 46 -34 0 10 40 -15 83 -53 22 -20 37 -30 32 -22 -6 11
-3 10 12 -2 11 -10 27 -18 37 -18 10 0 24 -7 32 -15 9 -8 27 -18 42 -21 50
-10 102 -37 116 -60 9 -12 47 -44 86 -69 38 -26 70 -52 70 -56 0 -5 7 -9 16
-9 9 0 41 -23 72 -50 31 -28 67 -53 79 -57 13 -3 23 -9 23 -15 0 -5 4 -7 9 -4
5 3 20 -3 34 -14 14 -11 27 -20 29 -20 3 0 24 -18 48 -40 24 -22 52 -40 62
-40 10 0 18 -6 18 -12 0 -17 75 -52 91 -43 7 5 10 4 6 -2 -8 -12 34 -26 43
-15 3 4 25 8 50 10 25 2 65 10 90 19 48 17 280 167 293 190 5 7 15 19 23 26 9
6 23 20 32 30 9 10 43 37 75 59 31 23 57 43 57 45 0 5 -6 1 -104 -64 -157
-105 -250 -133 -376 -114 -91 14 -121 28 -305 141 -88 53 -212 128 -275 165
-117 69 -130 79 -130 104 0 12 3 11 18 -1 31 -27 129 -77 137 -70 5 4 5 1 1
-6 -5 -8 2 -15 18 -22 14 -5 44 -21 68 -36 24 -15 49 -27 55 -27 7 0 11 -3 8
-5 -3 -3 9 -14 26 -24 17 -11 33 -17 36 -14 3 2 -8 11 -24 20 -24 13 -25 15
-7 16 21 0 54 -28 54 -46 1 -15 48 -45 55 -34 10 16 45 12 45 -5 0 -8 9 -15
19 -15 11 0 23 -4 26 -10 3 -5 30 -10 58 -10 58 0 103 22 152 75 30 33 130
117 225 190 28 22 73 59 98 82 26 24 54 45 64 48 9 3 41 39 71 79 l54 73 -71
-40 c-39 -22 -82 -48 -96 -57 -47 -33 -165 -89 -213 -101 -27 -6 -85 -10 -136
-7 -80 4 -96 8 -177 49 -49 24 -174 96 -279 160 -104 63 -233 140 -285 171
-83 49 -155 98 -125 85 18 -8 338 -194 506 -294 197 -118 251 -138 371 -138
48 0 88 3 88 7 0 4 10 18 23 31 12 14 31 35 43 48 37 43 132 129 142 129 5 0
20 11 33 25 13 13 27 25 31 25 10 0 132 83 136 93 2 4 10 7 17 7 7 0 15 3 17
8 2 4 23 18 48 31 25 14 49 31 53 39 6 9 18 12 35 8 18 -4 22 -3 14 2 -10 7 0
18 40 43 29 18 55 34 58 35 3 1 15 5 28 9 12 4 22 10 22 14 0 4 26 20 58 36
31 17 59 32 62 35 3 4 22 14 43 23 20 10 37 22 37 26 0 5 26 22 58 37 31 16
81 46 111 67 30 20 59 37 65 37 6 0 22 12 35 25 13 14 29 25 37 25 8 0 14 4
14 9 0 5 17 15 38 22 20 6 41 18 45 25 4 8 17 14 27 14 11 0 20 4 20 10 0 9
25 25 128 80 26 14 63 37 83 53 20 15 41 27 47 27 7 0 12 5 12 10 0 6 7 10 17
10 9 0 31 11 49 25 18 14 37 25 43 25 6 0 11 6 11 14 0 7 13 16 29 19 16 3 43
19 60 35 18 16 51 39 75 50 23 12 56 33 72 47 16 14 37 25 47 25 9 0 17 4 17
8 0 8 121 92 133 92 9 0 197 127 227 154 14 12 43 31 65 42 22 10 56 31 75 47
19 15 39 27 43 27 9 0 24 12 116 88 104 87 200 204 243 294 101 213 109 236
51 140 -51 -85 -117 -150 -205 -204 -274 -169 -632 -382 -1038 -618 -129 -75
-341 -200 -470 -277 -129 -77 -341 -202 -470 -278 -129 -76 -345 -204 -480
-283 -289 -172 -323 -186 -440 -185 -117 1 -160 18 -406 165 -187 112 -473
279 -744 436 -52 30 -153 89 -225 132 -71 42 -167 98 -212 124 -46 26 -83 50
-83 53 0 6 120 -60 290 -160 74 -43 302 -176 505 -294 204 -119 434 -254 513
-301 79 -46 166 -93 194 -104 101 -38 230 -34 336 12 41 18 48 25 45 44 -3 16
4 30 26 49 17 14 31 29 31 34 0 8 73 63 85 63 3 0 39 21 78 48 40 26 89 56
109 66 20 11 35 23 32 28 -3 4 1 5 8 3 8 -3 27 8 43 25 16 16 33 30 39 30 20
0 136 64 167 93 35 31 71 55 129 83 33 17 119 72 130 85 3 3 21 13 40 22 61
31 125 70 128 78 2 5 8 9 14 9 6 0 37 20 70 45 33 25 64 45 68 45 4 0 32 22
61 50 30 27 66 52 82 55 15 4 27 11 27 16 0 5 5 9 11 9 6 0 25 11 43 25 18 14
39 25 48 25 8 0 25 10 38 23 24 23 59 44 120 73 19 9 46 25 60 35 14 11 84 59
155 106 72 48 136 92 143 99 6 7 21 15 31 19 11 3 22 12 25 20 3 8 12 15 19
15 8 0 22 10 33 21 10 12 29 25 42 30 14 5 20 14 16 21 -4 6 -3 8 4 4 6 -3 23
5 38 19 15 14 32 25 39 25 7 0 32 18 56 40 24 22 49 40 56 40 6 0 13 4 15 8 4
9 119 97 134 103 17 6 213 173 214 181 0 5 25 34 55 65 30 32 55 63 55 68 0 6
10 22 23 35 12 14 23 30 24 35 6 26 36 101 53 136 28 54 18 49 -15 -7 -60
-103 -114 -146 -390 -309 -82 -49 -328 -195 -545 -325 -217 -130 -505 -301
-640 -380 -393 -231 -469 -275 -575 -339 -186 -113 -630 -376 -695 -413 -92
-51 -158 -68 -266 -68 -164 0 -155 -4 -919 450 -99 59 -301 179 -450 267 -148
88 -486 287 -750 444 -264 156 -527 312 -585 347 -58 35 -147 90 -199 121
-144 87 -244 211 -266 334 -15 78 -20 30 -17 -158z m82 -855 c31 -61 107 -146
195 -217 l40 -33 -39 22 c-135 76 -251 255 -270 418 -5 47 -3 42 18 -36 13
-50 38 -119 56 -154z m930 -210 c91 -54 197 -116 235 -138 83 -48 132 -85 60
-46 -27 15 -135 78 -240 139 -104 62 -211 124 -237 139 -27 16 -48 30 -48 32
0 8 60 -25 230 -126z m-444 -209 c21 -15 50 -41 64 -57 18 -21 13 -18 -15 8
-22 20 -56 45 -75 57 -19 12 -30 21 -24 21 6 0 29 -13 50 -29z m915 -74 c13
-10 0 -5 -29 10 -28 15 -62 36 -75 46 -26 21 68 -30 104 -56z m-716 14 c-13
-11 -74 -31 -94 -30 -22 1 59 38 84 39 11 0 15 -3 10 -9z m-258 -169 c38 -28
74 -61 82 -74 10 -16 0 -10 -32 17 -25 22 -68 60 -96 83 -28 24 -56 54 -62 65
-6 13 0 8 15 -10 14 -17 56 -54 93 -81z m433 -12 c0 -4 -34 14 -75 42 -41 27
-75 52 -75 54 0 2 34 -17 75 -42 41 -25 75 -49 75 -54z m505 -252 c6 -6 -17 4
-50 23 -33 18 -93 52 -134 74 -41 22 -76 46 -79 53 -4 12 243 -129 263 -150z
m-828 120 c-3 -8 -6 -5 -6 6 -1 11 2 17 5 13 3 -3 4 -12 1 -19z m-83 -19 c4 6
17 4 34 -5 35 -18 51 -18 26 1 -18 14 -18 14 4 8 25 -6 24 -5 16 -27 -10 -25
-59 -19 -91 10 -15 15 -21 21 -11 15 10 -8 18 -8 22 -2z m-99 -79 c10 -11 16
-20 13 -20 -3 0 -13 9 -23 20 -10 11 -16 20 -13 20 3 0 13 -9 23 -20z m85 -75
c14 -8 19 -14 10 -14 -8 0 -24 6 -34 14 -25 19 -9 19 24 0z m57 -31 c-3 -3
-12 -4 -19 -1 -8 3 -5 6 6 6 11 1 17 -2 13 -5z m1361 -204 c90 -51 161 -95
158 -97 -6 -7 -425 239 -426 249 0 4 24 -7 53 -26 28 -18 125 -75 215 -126z
m-1001 28 c-2 -18 -4 -4 -4 32 0 36 2 50 4 33 2 -18 2 -48 0 -65z m378 12 c10
-11 16 -20 13 -20 -3 0 -13 9 -23 20 -10 11 -16 20 -13 20 3 0 13 -9 23 -20z
m-258 -87 c-3 -10 -5 -4 -5 12 0 17 2 24 5 18 2 -7 2 -21 0 -30z m-47 -8 c13
-14 21 -25 18 -25 -2 0 -15 11 -28 25 -13 14 -21 25 -18 25 2 0 15 -11 28 -25z
m266 -35 c15 -6 34 -8 41 -6 8 3 11 1 8 -4 -17 -27 -85 1 -105 43 l-11 22 19
-22 c11 -13 32 -27 48 -33z m382 -174 c101 -59 110 -83 10 -28 -121 65 -138
76 -138 90 0 10 5 10 23 -1 12 -8 59 -35 105 -61z m318 -238 l-43 -126 -17 55
c-10 30 -15 57 -12 61 3 3 6 0 6 -6 0 -7 9 -3 20 8 11 11 20 29 20 41 0 14 5
19 14 16 9 -4 19 9 31 39 9 25 19 44 21 42 2 -2 -16 -61 -40 -130z m-82 22 c5
-17 4 -20 -2 -10 -5 8 -13 26 -16 40 -5 17 -4 20 2 10 5 -8 13 -26 16 -40z
m333 -143 c40 -23 73 -48 73 -54 0 -7 -21 2 -47 21 -27 18 -74 48 -105 66 -32
17 -58 36 -58 42 0 5 15 0 33 -11 17 -12 65 -40 104 -64z m182 -67 c0 -9 -4
-8 -9 5 -5 11 -9 27 -9 35 0 9 4 8 9 -5 5 -11 9 -27 9 -35z m-55 -135 c3 -8 1
-15 -4 -15 -6 0 -10 7 -10 15 0 8 2 15 4 15 2 0 6 -7 10 -15z m496 -125 c0 -5
-4 -10 -10 -10 -5 0 -10 5 -10 10 0 6 5 10 10 10 6 0 10 -4 10 -10z"/>
<path d="M2486 4912 c-3 -6 1 -13 10 -16 23 -9 28 -2 10 13 -8 7 -17 8 -20 3z"/>
<path d="M1931 5654 c0 -11 3 -14 6 -6 3 7 2 16 -1 19 -3 4 -6 -2 -5 -13z"/>
<path d="M1932 5600 c0 -14 2 -19 5 -12 2 6 2 18 0 25 -3 6 -5 1 -5 -13z"/>
<path d="M7919 5523 c-12 -32 -28 -67 -35 -78 -7 -11 -47 -85 -89 -165 l-76
-145 6 59 c4 33 11 69 15 81 4 12 10 37 11 56 2 19 8 37 13 41 9 6 -113 68
-135 68 -5 0 -9 -159 -9 -380 0 -209 2 -380 5 -380 3 0 23 12 45 26 l39 26 3
121 c4 160 5 160 134 74 l99 -66 43 42 c23 22 42 44 42 47 0 3 -50 36 -110 74
-61 37 -112 71 -114 75 -6 10 80 188 137 284 26 43 47 84 47 90 0 6 -8 19 -17
30 -17 19 -17 19 4 13 13 -4 34 -1 50 8 l28 14 -48 21 c-27 12 -52 21 -57 21
-4 0 -18 -26 -31 -57z"/>
<path d="M8091 5549 c-13 -11 -22 -22 -19 -24 2 -3 15 6 28 20 28 30 24 32 -9
4z"/>
<path d="M8312 5500 c0 -14 2 -19 5 -12 2 6 2 18 0 25 -3 6 -5 1 -5 -13z"/>
<path d="M1930 5260 c0 -5 5 -10 10 -10 6 0 10 5 10 10 0 6 -4 10 -10 10 -5 0
-10 -4 -10 -10z"/>
<path d="M1932 5215 c1 -14 6 -25 10 -25 4 0 8 11 8 25 0 14 -4 25 -10 25 -5
0 -9 -11 -8 -25z"/>
<path d="M7337 5189 c-67 -47 -106 -96 -153 -194 -53 -111 -66 -174 -66 -312
1 -133 10 -164 58 -202 35 -27 88 -27 139 0 60 32 132 96 167 148 18 25 36 49
41 52 14 10 1 25 -39 44 -30 14 -38 15 -45 4 -53 -86 -126 -144 -172 -137 -39
6 -48 42 -44 178 5 148 27 220 83 269 44 39 74 47 111 27 30 -15 30 -15 78 34
31 32 46 53 40 59 -10 9 -131 72 -137 70 -2 0 -29 -18 -61 -40z"/>
<path d="M1939 5115 c-3 -3 -4 -27 -1 -54 2 -30 0 -51 -7 -55 -6 -4 -11 -16
-11 -27 0 -17 -7 -19 -67 -19 -84 0 -97 -7 -91 -52 3 -31 1 -34 -19 -30 -14 3
-23 12 -23 23 0 12 -7 19 -20 19 -13 0 -20 -7 -20 -20 0 -13 7 -20 20 -20 14
0 20 -7 20 -21 0 -19 -4 -20 -34 -15 -20 4 -37 2 -41 -4 -3 -5 -15 -10 -26
-10 -21 0 -59 -33 -59 -52 0 -14 -44 -38 -68 -38 -12 0 -12 3 -2 15 7 8 16 13
20 10 4 -3 10 6 12 19 5 23 4 23 -24 7 -15 -9 -28 -23 -28 -31 0 -10 -8 -5
-21 13 -21 27 -62 37 -74 17 -5 -8 -11 -8 -20 0 -8 6 -29 10 -47 7 l-33 -4 38
-1 c49 -3 53 -32 4 -32 -18 0 -43 -8 -57 -17 -17 -12 -25 -13 -28 -5 -2 7 -10
12 -19 12 -10 0 -12 -6 -8 -20 10 -30 -10 -24 -22 8 l-12 27 6 -30 c4 -23 3
-27 -7 -19 -13 13 -50 7 -50 -8 0 -13 -26 -38 -39 -38 -6 0 -11 -4 -11 -10 0
-14 28 -12 33 3 2 6 8 9 11 5 4 -3 -6 -20 -22 -37 -25 -27 -36 -31 -81 -31
-38 0 -51 4 -51 14 0 24 -14 26 -120 17 -112 -9 -120 -14 -120 -73 0 -37 -1
-38 -35 -38 -24 0 -35 5 -35 15 0 10 10 15 32 15 38 0 28 16 -20 29 -30 9 -32
8 -38 -26 -6 -34 -34 -58 -42 -35 -5 15 -32 16 -32 2 0 -7 -6 -8 -17 -2 -15 9
-31 5 -63 -16 -2 -2 2 -7 10 -12 11 -7 3 -10 -27 -10 -38 0 -43 3 -44 23 0 21
-1 21 -8 2 -5 -12 -21 -22 -42 -26 l-34 -6 38 -2 c36 -1 50 -15 25 -24 -10 -3
-10 -7 -1 -19 21 -24 2 -29 -28 -7 -16 11 -34 17 -40 13 -6 -3 -15 0 -20 7 -6
10 -9 11 -9 2 0 -7 -4 -13 -10 -13 -5 0 -7 7 -4 15 4 11 0 15 -16 15 -15 0
-20 -5 -17 -14 4 -11 -1 -13 -20 -10 -23 4 -24 3 -10 -11 9 -8 21 -15 27 -15
6 0 8 -4 5 -10 -4 -6 -14 -5 -28 3 -37 20 -49 47 -22 47 8 0 15 5 15 10 0 6
-7 10 -15 10 -8 0 -15 -4 -15 -10 0 -5 -6 -10 -12 -10 -8 0 -14 -15 -15 -35
-1 -19 3 -35 8 -35 6 0 7 -5 4 -10 -4 -6 -12 -4 -21 5 -9 8 -21 15 -27 14 -9
0 -8 -2 1 -6 23 -9 12 -23 -14 -17 -14 4 -43 1 -65 -6 l-39 -13 0 -1733 0
-1733 34 -6 c18 -4 42 -6 52 -5 34 4 54 0 54 -10 0 -5 -7 -10 -16 -10 -8 0
-12 -5 -9 -10 5 -8 11 -8 19 -1 9 7 29 8 62 2 35 -7 51 -6 56 2 6 9 10 9 16 0
9 -14 52 -6 52 10 0 6 13 -4 28 -21 19 -21 38 -32 55 -32 15 0 27 -4 27 -10 0
-5 5 -10 10 -10 6 0 10 7 10 16 0 16 23 44 36 44 5 0 3 -5 -4 -12 -14 -14 -16
-38 -3 -38 4 0 13 15 19 33 l11 32 -5 -35 c-4 -24 -3 -32 4 -25 6 6 38 8 71 7
l60 -4 3 -36 c3 -37 3 -37 53 -40 27 -2 55 -8 63 -14 10 -9 14 -6 19 11 5 20
6 20 18 4 11 -14 10 -19 -4 -30 -18 -14 -18 -14 24 -17 17 -1 34 2 38 8 6 7
10 7 13 1 2 -6 45 -9 109 -7 99 4 105 3 105 -16 0 -11 -9 -22 -20 -25 -15 -4
-20 -14 -20 -40 0 -29 -4 -37 -22 -40 -20 -5 -20 -5 2 -4 21 2 25 8 28 40 2
22 8 37 16 37 18 0 28 -41 14 -57 -7 -9 -7 -13 1 -13 6 0 11 5 11 10 0 6 5 10
10 10 6 0 10 -6 10 -13 0 -7 11 -14 25 -15 31 -2 33 15 3 21 -16 3 -13 5 10 6
22 1 31 5 26 12 -4 7 -1 10 7 7 8 -2 15 -21 17 -41 l3 -37 55 0 c62 0 78 -11
89 -58 5 -25 12 -32 31 -32 13 0 24 5 24 11 0 6 -9 9 -20 6 -24 -6 -26 6 -4
24 13 10 17 10 25 -2 5 -8 9 -17 9 -21 0 -18 30 -6 30 11 0 15 9 20 40 23 22
2 45 -1 50 -6 7 -7 14 -6 21 1 5 5 21 8 35 5 21 -4 24 -10 24 -48 0 -28 -4
-44 -12 -44 -7 -1 -1 -7 14 -15 26 -15 58 -11 58 6 0 5 -6 9 -12 10 -7 1 7 5
32 10 28 5 48 5 54 -1 7 -7 -3 -10 -27 -10 -20 0 -37 -4 -37 -10 0 -5 18 -10
39 -10 29 0 41 5 44 18 3 9 5 0 6 -20 1 -36 2 -38 36 -38 31 0 35 -3 35 -25 0
-27 18 -33 38 -13 9 9 12 8 12 -5 0 -18 15 -23 25 -7 8 13 35 1 35 -16 0 -8
-5 -14 -12 -14 -6 0 -9 -2 -6 -5 12 -12 38 9 38 31 0 13 5 24 10 24 6 0 10
-13 10 -30 0 -16 5 -30 10 -30 6 0 10 9 10 19 0 16 10 20 69 26 73 7 91 3 91
-21 0 -9 11 -14 35 -14 24 0 35 5 35 15 0 8 9 15 20 15 11 0 20 -6 20 -14 0
-7 14 -16 31 -20 46 -9 49 -8 49 14 0 13 7 20 20 20 13 0 20 -7 20 -20 0 -19
6 -20 123 -18 91 2 102 3 45 5 -70 3 -78 6 -78 23 0 23 10 26 28 8 7 -7 12 -9
12 -4 0 4 -8 15 -17 24 -12 12 -18 13 -21 4 -5 -17 -82 -16 -82 2 0 11 20 14
88 14 48 -1 95 -5 105 -10 11 -5 17 -5 17 2 0 23 19 8 22 -17 2 -23 9 -29 33
-31 17 -1 40 -8 52 -14 26 -13 186 -4 191 12 4 12 39 13 46 1 4 -5 0 -12 -6
-14 -7 -3 53 -6 135 -6 141 -1 147 0 147 19 0 19 7 20 108 20 59 0 117 3 130
6 13 4 22 2 22 -5 0 -6 -7 -11 -15 -11 -8 0 -15 -4 -15 -10 0 -15 17 -12 39 6
11 10 16 24 14 35 -5 17 1 19 76 19 75 0 81 2 81 20 0 19 5 21 78 18 69 -3 77
-5 77 -23 0 -16 -7 -20 -36 -21 -19 0 -40 -4 -46 -7 -7 -4 -14 1 -16 10 -3 13
-5 14 -6 3 -1 -12 -13 -14 -61 -12 -35 2 -60 0 -60 -6 0 -13 108 -20 121 -7 6
5 9 3 9 -8 0 -13 -13 -17 -77 -20 l-78 -3 83 -2 c67 -2 82 1 82 13 0 17 75 22
85 5 3 -5 16 -10 28 -9 l22 0 -22 9 c-51 21 -8 40 89 40 41 0 49 3 47 18 -4
40 2 62 16 62 8 0 15 -6 15 -12 0 -7 5 -5 11 6 9 14 8 21 -2 28 -10 6 -7 7 9
3 13 -4 22 -2 22 4 0 6 5 11 12 11 9 0 9 -3 0 -12 -7 -7 -12 -19 -12 -28 0
-14 6 -15 45 -6 29 7 45 16 45 26 0 8 11 20 25 27 21 9 27 8 36 -5 9 -15 10
-14 4 3 -18 54 -18 51 -6 35 9 -13 12 -12 17 7 6 20 11 22 48 17 30 -4 37 -3
26 5 -8 5 -11 13 -7 17 4 4 13 2 19 -4 20 -20 38 -14 38 12 0 15 7 26 18 29
15 4 -61 12 -81 8 -5 -1 -6 2 -4 6 3 5 28 6 56 5 39 -3 52 -8 56 -23 8 -23 21
-25 29 -4 5 15 35 10 47 -8 4 -6 18 -5 35 1 l29 10 -32 1 c-26 1 -33 5 -33 20
0 11 5 23 10 26 6 4 7 11 4 17 -4 6 -2 8 4 4 6 -3 13 -2 17 4 12 19 45 11 45
-10 0 -34 37 -25 42 10 2 16 0 32 -6 35 -6 2 -1 2 12 -1 15 -4 24 0 28 10 8
20 34 21 34 1 0 -12 16 -15 83 -14 45 0 90 4 101 8 17 7 17 8 2 24 -19 19 -46
12 -46 -11 0 -13 -2 -14 -13 -3 -9 11 -9 14 0 18 7 3 13 11 13 20 0 10 6 12
23 7 12 -4 25 -11 29 -17 4 -7 12 -6 23 3 16 13 16 15 -2 27 -15 12 -16 15 -3
23 13 9 13 10 0 10 -10 0 -7 6 9 19 14 11 37 17 55 16 17 -2 39 -3 49 -4 10
-1 15 -5 12 -11 -3 -6 4 -10 17 -10 18 0 20 2 8 10 -12 7 -8 11 18 16 28 6 32
10 32 40 0 21 5 34 13 34 8 0 8 3 -2 9 -11 7 -9 10 10 14 13 2 -1 5 -31 6 -44
2 -50 4 -30 11 14 4 39 13 55 21 17 7 61 14 99 15 74 3 118 23 56 25 l-35 2
35 7 35 7 -42 2 c-35 1 -43 5 -43 20 0 24 52 35 126 25 37 -4 54 -3 54 5 0 6
9 11 20 11 27 0 25 18 -2 29 -43 16 -116 22 -123 11 -4 -7 2 -9 19 -4 28 7 37
-12 11 -22 -18 -7 -65 3 -65 14 0 10 50 32 74 32 30 0 50 16 43 34 -3 8 -2 18
3 21 23 14 6 24 -47 27 -53 3 -56 4 -36 16 13 7 54 13 93 13 67 1 70 2 70 25
0 19 -5 24 -24 24 -19 0 -23 4 -19 20 5 19 28 26 78 22 17 -2 17 0 5 8 -13 9
-13 11 0 20 8 5 24 7 35 3 17 -5 17 -4 4 9 -11 11 -27 13 -65 9 -44 -6 -50 -5
-50 12 0 14 6 18 27 15 21 -3 25 -1 21 14 -4 15 2 18 31 18 23 0 37 6 41 16 5
14 9 14 24 3 14 -11 13 -9 -2 9 -11 12 -25 22 -33 22 -7 0 -13 5 -13 10 0 6 9
10 20 10 13 0 20 7 20 20 0 13 7 20 20 20 14 0 20 7 20 23 0 13 9 33 20 44 14
15 16 23 7 26 -7 3 3 6 21 6 17 1 32 6 32 12 0 5 8 9 18 8 37 -3 62 1 62 12 0
6 -8 8 -17 5 -16 -5 -16 -4 0 8 11 8 25 12 32 10 7 -3 16 4 20 15 3 12 12 21
18 21 7 0 27 16 46 35 18 19 39 35 47 35 8 0 14 4 14 8 0 10 51 37 64 33 4 -1
16 7 26 19 9 11 37 29 61 41 52 24 69 34 129 74 65 43 83 54 100 62 8 4 20 12
25 19 6 7 30 23 55 35 25 13 56 30 70 40 55 36 217 137 250 155 19 10 48 29
63 42 16 12 32 22 37 22 5 0 36 18 69 40 33 22 80 51 103 63 24 13 96 58 160
100 65 42 119 77 122 77 6 0 167 96 181 108 6 4 57 36 115 71 58 35 155 94
215 132 61 37 133 82 160 99 196 120 276 201 313 322 12 40 21 85 18 98 -2 14
-5 28 -5 32 -1 4 -36 -28 -78 -70 -72 -72 -116 -101 -588 -384 -280 -168 -661
-397 -845 -508 -184 -112 -393 -237 -465 -280 -71 -42 -161 -96 -200 -120 -38
-23 -153 -92 -255 -152 -102 -61 -224 -134 -271 -163 -189 -117 -268 -145
-404 -145 -141 0 -200 22 -415 153 -63 39 -227 136 -365 217 -137 81 -272 160
-300 177 -27 17 -196 117 -375 223 -696 413 -1270 756 -1380 826 -163 103
-258 205 -312 336 -19 47 -21 74 -24 253 -2 157 0 183 6 121 13 -109 31 -161
80 -220 40 -49 197 -194 262 -242 40 -30 86 -65 102 -77 16 -12 40 -28 55 -36
14 -7 35 -21 46 -31 11 -10 36 -26 55 -35 19 -10 55 -34 80 -55 25 -20 75 -52
112 -70 38 -18 75 -42 85 -52 9 -10 22 -18 30 -18 7 0 13 -4 13 -9 0 -5 12
-14 28 -20 38 -16 66 -33 87 -55 11 -10 33 -25 50 -32 16 -7 40 -22 52 -33 12
-12 28 -21 35 -21 7 0 32 -13 55 -28 23 -15 61 -38 84 -52 23 -14 47 -29 53
-35 6 -5 25 -17 41 -25 17 -8 62 -33 100 -55 39 -22 82 -47 97 -54 15 -8 25
-19 21 -24 -3 -6 -1 -7 4 -4 6 4 16 0 23 -8 6 -8 33 -26 58 -41 26 -15 50 -33
54 -39 4 -7 20 -16 35 -20 15 -3 30 -10 33 -13 8 -10 57 -37 133 -73 37 -17
67 -36 67 -40 0 -5 4 -9 9 -9 5 0 33 -16 62 -36 30 -20 96 -57 147 -82 51 -26
102 -55 112 -65 11 -10 39 -26 62 -36 24 -10 61 -33 83 -50 74 -58 79 -61 90
-61 7 0 20 -9 30 -20 9 -10 34 -25 54 -31 20 -6 47 -20 61 -29 65 -45 187 -93
248 -98 70 -5 198 14 222 34 8 7 51 29 95 50 44 21 89 48 101 61 19 22 34 32
105 69 14 8 34 23 44 34 11 12 33 28 51 36 17 8 40 23 51 33 18 18 56 40 101
60 12 6 22 15 22 21 0 5 6 10 14 10 7 0 18 6 24 13 6 7 33 24 61 37 28 14 51
28 51 33 0 4 8 7 18 7 11 0 27 9 37 20 10 11 26 20 35 20 10 0 20 7 23 15 4 8
32 28 65 44 32 16 64 36 71 45 8 9 18 16 24 16 5 0 25 11 42 25 18 13 51 32
74 41 22 9 41 22 41 30 0 8 8 14 18 14 11 0 27 9 37 20 10 11 22 20 27 20 5 0
26 11 48 25 22 14 44 25 48 25 5 0 26 16 46 35 21 19 46 35 57 35 11 0 22 7
25 15 3 8 14 17 25 20 11 4 17 11 14 16 -4 5 7 9 23 9 16 0 35 7 42 15 7 8 21
15 32 15 12 0 18 6 16 16 -2 9 4 20 12 23 8 4 30 15 48 24 19 9 40 17 47 17
21 0 45 29 39 48 -4 12 -3 13 3 4 8 -10 15 -10 39 3 16 8 34 15 39 15 6 0 21
12 34 25 14 15 34 25 52 25 29 0 39 14 17 23 -10 4 -10 6 0 6 6 1 12 7 12 15
0 8 7 16 14 19 10 4 13 1 9 -9 -7 -19 6 -18 28 2 10 9 15 23 12 32 -4 13 -3
14 5 3 7 -10 14 -11 31 -2 27 15 27 21 -1 14 -26 -7 -24 -4 16 21 16 10 25 13
22 7 -4 -6 0 -11 8 -11 9 0 16 7 16 15 0 8 9 15 20 15 10 0 25 10 31 22 8 14
14 18 17 10 3 -9 11 -6 29 8 14 11 31 20 38 20 7 0 24 11 39 25 27 25 35 41
14 29 -7 -4 -10 -4 -6 1 4 4 23 9 43 10 40 2 55 12 37 24 -19 11 31 43 55 35
15 -5 15 -4 3 5 -12 8 -11 11 5 17 11 4 22 10 25 13 3 3 21 15 40 25 19 11 37
22 40 26 7 8 109 70 116 70 2 0 10 5 17 10 7 6 64 42 127 81 139 86 191 127
230 184 42 61 37 66 -8 8 -59 -74 -20 -48 -682 -451 -113 -69 -367 -223 -565
-342 -198 -119 -454 -275 -570 -345 -115 -70 -277 -169 -360 -218 -82 -50
-231 -140 -330 -200 -453 -277 -420 -262 -560 -262 -108 0 -162 17 -272 84
-318 194 -1987 1199 -2103 1266 -153 90 -506 308 -564 349 -101 72 -171 171
-215 303 -18 52 -21 84 -19 195 1 73 3 115 5 93 14 -163 54 -310 80 -296 4 2
12 -5 18 -15 26 -47 101 -127 137 -145 23 -12 52 -34 65 -50 14 -16 29 -29 35
-29 5 0 33 -20 60 -45 28 -25 56 -45 64 -45 8 0 14 -3 14 -8 0 -4 17 -16 38
-27 20 -11 61 -34 90 -52 28 -18 54 -32 57 -30 2 1 21 -14 42 -33 53 -49 120
-100 132 -100 10 0 102 -59 111 -71 3 -4 30 -19 60 -33 77 -37 132 -71 142
-90 5 -9 14 -16 20 -16 11 0 59 -37 114 -87 19 -18 43 -33 53 -33 24 0 83 -25
130 -54 20 -13 47 -26 61 -29 27 -7 111 -58 146 -89 11 -10 31 -20 43 -23 12
-2 39 -17 59 -32 20 -16 50 -34 66 -41 16 -7 63 -36 105 -64 42 -28 90 -57
106 -65 52 -24 149 -81 171 -100 11 -10 29 -19 39 -21 9 -2 27 -13 39 -24 11
-11 35 -27 51 -35 44 -21 73 -38 92 -55 10 -8 34 -21 53 -28 19 -7 42 -18 50
-25 17 -12 366 -185 420 -207 52 -22 141 -1 267 63 80 41 321 199 348 229 10
11 24 20 32 20 7 0 16 7 19 15 4 8 11 15 16 15 11 0 129 69 138 80 3 3 20 12
38 19 17 8 32 17 32 22 0 5 6 9 13 9 7 0 28 13 47 30 18 16 61 43 95 59 35 17
65 34 67 38 3 8 34 27 106 65 23 12 42 26 42 30 0 4 15 14 34 22 19 8 60 33
90 55 30 23 58 41 62 41 4 0 22 11 39 25 18 13 75 46 126 73 93 48 190 111
219 143 8 9 40 29 70 44 30 15 62 33 70 39 8 7 31 19 50 26 19 8 41 20 48 27
8 8 27 20 43 28 16 9 29 19 29 24 0 5 17 16 38 25 50 23 123 66 146 88 11 10
25 18 32 18 7 0 23 9 36 20 21 19 44 35 103 72 11 7 22 15 25 18 17 18 218
147 242 156 9 3 19 12 22 20 3 8 12 14 21 14 8 0 15 5 15 10 0 6 8 10 18 10
11 0 27 9 37 20 10 11 23 20 30 20 6 0 22 11 35 25 13 14 30 25 37 25 8 0 20
6 28 13 7 6 25 21 41 32 54 39 105 85 137 122 18 21 38 45 45 53 7 8 31 43 54
78 44 68 48 97 4 34 -42 -61 -84 -96 -201 -168 -276 -169 -536 -327 -715 -434
-107 -65 -301 -182 -430 -260 -129 -79 -293 -178 -365 -220 -145 -87 -576
-347 -615 -372 -14 -8 -81 -51 -150 -93 -69 -43 -182 -115 -251 -161 -167
-111 -223 -135 -325 -141 -65 -5 -96 -1 -150 15 -73 22 -94 34 -323 181 -150
97 -266 167 -1171 711 -1098 660 -1266 763 -1327 806 -98 70 -162 160 -208
292 -22 62 -25 87 -23 189 1 65 3 98 5 73 6 -78 24 -180 34 -186 5 -3 7 -9 4
-14 -8 -12 15 -68 31 -74 8 -3 14 -14 14 -24 0 -10 18 -36 41 -57 22 -22 47
-52 55 -67 8 -15 33 -38 57 -52 23 -14 58 -41 77 -61 18 -19 39 -35 46 -35 7
0 14 -3 16 -7 2 -5 26 -25 53 -46 28 -21 51 -43 51 -48 1 -5 2 -12 3 -15 0 -4
7 -1 15 5 11 9 19 5 39 -19 24 -28 46 -42 33 -21 -4 5 3 7 14 4 11 -3 17 -10
14 -15 -3 -5 3 -12 15 -15 11 -3 18 -9 15 -14 -3 -5 1 -6 9 -3 8 3 22 -2 31
-11 9 -9 16 -14 16 -10 0 7 41 -14 60 -32 24 -21 90 -63 101 -63 6 0 7 -4 4
-10 -3 -6 5 -10 19 -10 27 0 109 -35 139 -60 10 -8 21 -15 25 -15 4 0 23 -13
42 -28 19 -16 25 -24 13 -18 -30 15 -41 14 -18 -3 11 -7 33 -16 49 -20 16 -4
55 -25 88 -47 33 -21 64 -39 69 -39 5 0 9 -4 9 -9 0 -5 9 -11 21 -14 12 -3 18
-10 14 -16 -3 -6 0 -12 7 -13 14 -1 30 -5 38 -8 3 -1 13 -3 24 -5 10 -2 25
-13 33 -24 8 -12 23 -21 34 -21 10 0 19 -4 19 -8 0 -5 19 -15 43 -23 23 -7 48
-19 55 -26 7 -7 19 -13 27 -13 7 0 23 -11 36 -25 13 -13 29 -25 36 -25 6 0 10
-8 8 -18 -2 -11 6 -24 18 -32 20 -12 21 -12 8 3 -8 11 -9 17 -2 17 6 0 18 -11
27 -25 9 -14 24 -25 34 -25 10 0 20 -7 24 -15 3 -8 11 -15 17 -15 8 0 7 5 -2
18 -7 9 -1 6 13 -7 15 -13 25 -28 21 -34 -4 -6 4 -8 21 -5 15 3 24 3 21 0 -10
-10 17 -31 32 -25 10 4 14 2 10 -4 -5 -7 0 -9 13 -6 11 3 20 1 20 -5 0 -12 37
-25 63 -22 20 2 69 -29 127 -79 30 -26 33 -32 20 -42 -12 -8 -11 -9 6 -4 33 9
147 -49 130 -66 -2 -2 9 -5 25 -6 17 -1 46 -16 67 -33 20 -16 42 -30 49 -30 6
0 25 -12 42 -26 17 -14 65 -43 106 -65 42 -21 81 -43 88 -49 73 -60 100 -78
138 -89 24 -7 56 -20 72 -28 15 -8 27 -11 27 -7 0 3 6 2 13 -4 28 -22 76 -23
146 -2 39 11 71 24 71 28 0 4 15 14 33 21 34 16 332 215 356 238 7 8 31 22 52
31 22 9 39 20 39 24 0 5 5 8 11 8 6 0 28 12 48 28 43 33 68 48 101 64 14 7 27
15 30 18 13 16 104 72 130 82 17 5 30 13 30 18 0 4 26 20 58 35 31 15 67 37
80 48 12 11 22 18 22 14 0 -11 71 32 120 72 67 55 106 81 124 81 8 0 19 6 23
13 4 6 37 27 72 45 34 18 68 37 75 43 56 48 73 59 84 59 7 0 22 9 34 20 12 11
34 26 50 32 15 7 28 16 28 20 0 5 5 8 11 8 6 0 28 13 48 28 20 16 66 46 103
66 37 21 70 42 73 46 3 5 33 21 65 36 33 15 60 30 60 34 0 3 23 17 50 29 28
13 72 39 98 60 26 20 60 42 77 49 16 8 35 22 43 33 7 10 19 19 27 19 7 0 55
27 106 60 52 33 117 74 144 91 114 69 355 240 355 251 0 4 5 8 11 8 21 0 145
114 177 164 19 28 41 60 50 71 10 11 -7 -2 -37 -28 -30 -27 -233 -154 -450
-284 -506 -302 -820 -490 -1146 -688 -394 -239 -627 -381 -760 -460 -161 -96
-250 -154 -340 -221 -42 -30 -110 -72 -153 -92 -74 -36 -81 -37 -187 -37 -104
0 -114 2 -180 33 -38 18 -110 64 -160 101 -49 38 -247 162 -440 276 -192 115
-395 236 -450 270 -55 34 -246 150 -425 257 -632 379 -1216 732 -1270 768
-114 77 -186 175 -234 318 -12 35 -24 61 -27 57z m-58 -208 c-5 -5 -21 -6 -38
-2 l-28 8 25 7 c31 8 55 1 41 -13z m-481 -137 c0 -5 -2 -10 -4 -10 -3 0 -8 5
-11 10 -3 6 -1 10 4 10 6 0 11 -4 11 -10z m-133 -87 c-3 -3 -13 1 -21 10 -8 8
-12 17 -9 20 3 3 12 -1 20 -9 9 -8 13 -18 10 -21z m-43 8 c4 -5 -3 -7 -14 -4
-23 6 -26 13 -6 13 8 0 17 -4 20 -9z m-389 -131 c3 -5 1 -10 -4 -10 -6 0 -11
5 -11 10 0 6 2 10 4 10 3 0 8 -4 11 -10z m-305 -60 c0 -5 -7 -10 -15 -10 -8 0
-15 5 -15 10 0 6 7 10 15 10 8 0 15 -4 15 -10z m380 0 c0 -5 -4 -10 -10 -10
-5 0 -10 5 -10 10 0 6 5 10 10 10 6 0 10 -4 10 -10z m-610 -100 c0 -5 -4 -10
-10 -10 -5 0 -10 5 -10 10 0 6 5 10 10 10 6 0 10 -4 10 -10z m-30 -20 c0 -5
-4 -10 -10 -10 -5 0 -10 5 -10 10 0 6 5 10 10 10 6 0 10 -4 10 -10z m20 -28
c-8 -3 -18 -10 -22 -16 -4 -6 -10 -7 -14 -3 -10 10 28 37 40 29 6 -3 3 -8 -4
-10z m1667 -264 c-3 -7 -5 -2 -5 12 0 14 2 19 5 13 2 -7 2 -19 0 -25z m3550
-2644 c-3 -3 -12 -4 -19 -1 -8 3 -5 6 6 6 11 1 17 -2 13 -5z m-57 -104 c0 -5
-4 -10 -10 -10 -5 0 -10 5 -10 10 0 6 5 10 10 10 6 0 10 -4 10 -10z m-96 -68
c2 -4 -13 -6 -35 -4 -21 2 -39 6 -39 8 0 7 69 4 74 -4z m-164 -197 c0 -5 -5
-3 -10 5 -5 8 -10 20 -10 25 0 6 5 3 10 -5 5 -8 10 -19 10 -25z m-43 -91 c-3
-3 -12 -4 -19 -1 -8 3 -5 6 6 6 11 1 17 -2 13 -5z m-4820 -10 c-3 -3 -12 -4
-19 -1 -8 3 -5 6 6 6 11 1 17 -2 13 -5z m4866 -1 c-7 -2 -19 -2 -25 0 -7 3 -2
5 12 5 14 0 19 -2 13 -5z m-5006 -9 c-3 -3 -12 -4 -19 -1 -8 3 -5 6 6 6 11 1
17 -2 13 -5z m63 -29 c0 -8 -7 -15 -15 -15 -16 0 -20 12 -8 23 11 12 23 8 23
-8z m-110 -33 c0 -10 -7 -19 -15 -19 -8 0 -15 9 -15 19 0 10 7 18 15 18 8 0
15 -8 15 -18z m295 -2 c13 -5 14 -9 5 -9 -8 0 -24 4 -35 9 -13 5 -14 9 -5 9 8
0 24 -4 35 -9z m4586 -37 c13 -16 12 -17 -3 -4 -10 7 -18 15 -18 17 0 8 8 3
21 -13z m-71 -28 c0 -8 -4 -15 -10 -15 -5 0 -10 7 -10 15 0 8 5 15 10 15 6 0
10 -7 10 -15z m100 -11 c0 -2 -19 -4 -42 -3 -35 1 -38 2 -18 8 23 7 60 4 60
-5z m-4337 -41 c-7 -3 -13 -11 -13 -19 0 -8 -4 -14 -10 -14 -5 0 -10 7 -10 15
0 8 5 15 10 15 6 0 10 8 10 17 0 14 2 15 13 4 10 -11 10 -14 0 -18z m66 -7 c7
-8 8 -17 3 -19 -4 -3 -13 3 -20 14 -14 22 0 26 17 5z m161 -10 c0 -11 -19 -15
-25 -6 -3 5 1 10 9 10 9 0 16 -2 16 -4z m3787 -61 c0 -8 -4 -12 -9 -9 -5 3 -6
10 -3 15 9 13 12 11 12 -6z m-12 -25 c3 -5 -3 -10 -15 -10 -12 0 -18 5 -15 10
3 6 10 10 15 10 5 0 12 -4 15 -10z m-3525 -10 c0 -5 -4 -10 -10 -10 -5 0 -10
5 -10 10 0 6 5 10 10 10 6 0 10 -4 10 -10z m3315 -20 c-16 -3 -32 -2 -33 2 -2
5 -9 5 -14 2 -6 -4 -8 -3 -5 3 3 5 23 7 44 4 38 -5 38 -5 8 -11z m-3311 -16
c9 -3 16 -11 16 -16 0 -6 -6 -5 -15 2 -12 10 -18 10 -30 0 -9 -8 -15 -8 -15
-2 0 6 6 13 13 15 6 3 13 6 14 6 1 1 8 -2 17 -5z m3267 -31 c-12 -20 -14 -14
-5 12 4 9 9 14 11 11 3 -2 0 -13 -6 -23z m-3151 -43 c0 -5 -4 -10 -10 -10 -5
0 -10 5 -10 10 0 6 5 10 10 10 6 0 10 -4 10 -10z m680 -140 c0 -5 -4 -10 -10
-10 -5 0 -10 5 -10 10 0 6 5 10 10 10 6 0 10 -4 10 -10z m158 -7 c-10 -2 -26
-2 -35 0 -10 3 -2 5 17 5 19 0 27 -2 18 -5z m1975 0 c-7 -2 -19 -2 -25 0 -7 3
-2 5 12 5 14 0 19 -2 13 -5z m-2483 -33 c8 -5 11 -10 5 -10 -5 0 -17 5 -25 10
-8 5 -10 10 -5 10 6 0 17 -5 25 -10z m680 -35 c0 -11 -11 -15 -40 -15 -29 0
-40 4 -40 15 0 11 11 15 40 15 29 0 40 -4 40 -15z m-482 -2 c-10 -2 -28 -2
-40 0 -13 2 -5 4 17 4 22 1 32 -1 23 -4z m872 -3 c0 -5 -4 -10 -10 -10 -5 0
-10 5 -10 10 0 6 5 10 10 10 6 0 10 -4 10 -10z m-43 -6 c-3 -3 -12 -4 -19 -1
-8 3 -5 6 6 6 11 1 17 -2 13 -5z m251 -31 c-10 -2 -28 -2 -40 0 -13 2 -5 4 17
4 22 1 32 -1 23 -4z m82 -49 c0 -3 -7 -1 -15 6 -8 7 -15 17 -15 22 0 5 7 3 15
-6 8 -8 15 -18 15 -22z"/>
<path d="M1900 5060 c-9 -6 -10 -10 -3 -10 6 0 15 5 18 10 8 12 4 12 -15 0z"/>
<path d="M6556 4773 c-3 -4 -6 -18 -6 -33 0 -15 -12 -61 -26 -101 -14 -41 -40
-124 -59 -185 -18 -61 -53 -174 -78 -250 -57 -176 -82 -283 -71 -294 15 -15
74 27 89 63 7 17 20 65 28 106 9 40 19 77 24 82 4 4 45 30 91 58 l83 50 30
-67 c17 -37 32 -68 34 -70 4 -5 75 41 75 49 0 3 -9 32 -21 65 -27 77 -46 180
-60 334 -6 69 -16 131 -22 138 -15 19 -103 62 -111 55z m30 -395 l24 -47 -60
-41 c-67 -46 -70 -43 -40 48 33 100 42 119 48 102 2 -8 15 -36 28 -62z"/>
<path d="M6965 4686 c-27 -12 -70 -44 -93 -70 -62 -68 -85 -124 -90 -226 -4
-75 -2 -88 17 -111 48 -62 140 -36 222 63 27 32 49 62 49 66 0 4 -12 14 -27
22 -25 14 -27 14 -63 -22 -48 -49 -95 -53 -111 -10 -16 40 5 123 39 154 43 40
71 52 78 33 14 -34 64 45 64 100 0 32 -19 32 -85 1z"/>
<path d="M558 4583 c-4 -16 -15 -23 -44 -26 -34 -3 -32 -4 13 -5 31 -1 53 -7
56 -14 2 -7 8 -10 12 -5 5 4 1 13 -7 20 -9 6 -18 21 -20 32 -4 19 -4 19 -10
-2z"/>
<path d="M170 4500 c0 -5 5 -10 10 -10 6 0 10 5 10 10 0 6 -4 10 -10 10 -5 0
-10 -4 -10 -10z"/>
<path d="M295 4480 c-3 -5 1 -10 9 -10 9 0 16 5 16 10 0 6 -4 10 -9 10 -6 0
-13 -4 -16 -10z"/>
<path d="M70 4441 c0 -6 7 -11 15 -11 8 0 15 -4 15 -10 0 -5 -7 -10 -15 -10
-8 0 -15 -5 -15 -11 0 -6 6 -8 13 -5 6 3 20 9 30 12 9 4 17 10 17 14 0 4 -8
10 -17 14 -10 3 -24 9 -30 12 -7 3 -13 1 -13 -5z"/>
<path d="M6049 4422 c-102 -65 -170 -186 -176 -311 -5 -94 8 -122 61 -136 31
-7 50 -5 98 12 32 12 66 19 74 16 26 -10 27 -50 4 -99 -37 -76 -108 -106 -151
-63 l-21 21 -45 -45 c-44 -44 -45 -45 -29 -70 38 -58 132 -61 209 -8 107 73
174 250 136 359 -16 48 -54 56 -140 30 -106 -32 -130 -6 -88 92 34 80 96 114
139 75 14 -13 22 -9 75 40 32 30 57 57 54 59 -16 15 -113 56 -132 56 -13 0
-43 -13 -68 -28z"/>
<path d="M2460 4150 c0 -5 5 -10 11 -10 5 0 7 5 4 10 -3 6 -8 10 -11 10 -2 0
-4 -4 -4 -10z"/>
<path d="M4210 3116 c0 -2 7 -7 16 -10 8 -3 12 -2 9 4 -6 10 -25 14 -25 6z"/>
<path d="M4705 2790 c3 -5 8 -10 11 -10 2 0 4 5 4 10 0 6 -5 10 -11 10 -5 0
-7 -4 -4 -10z"/>
<path d="M5600 1570 c0 -5 5 -10 10 -10 6 0 10 5 10 10 0 6 -4 10 -10 10 -5 0
-10 -4 -10 -10z"/>
<path d="M5540 1380 c-11 -7 -12 -10 -2 -10 9 0 11 -7 7 -22 -5 -20 -4 -21 5
-5 6 9 9 21 5 26 -3 5 1 12 7 14 7 3 9 6 3 6 -5 0 -17 -4 -25 -9z"/>
<path d="M5377 1186 c-5 -15 -6 -31 -2 -34 3 -3 5 3 5 13 0 14 3 15 15 5 10
-9 15 -9 15 -1 0 6 -4 11 -9 11 -5 0 -11 8 -13 18 -3 12 -6 9 -11 -12z"/>
<path d="M35 840 c8 -13 35 -13 55 0 11 7 5 10 -23 10 -23 0 -36 -4 -32 -10z"/>
<path d="M244 816 c-9 -10 -6 -13 16 -13 23 0 26 3 15 14 -16 16 -17 16 -31
-1z"/>
<path d="M314 809 c-4 -8 -3 -9 4 -5 16 10 15 -17 0 -32 -9 -9 -9 -12 0 -12 7
0 12 5 12 11 0 6 7 9 15 5 13 -4 13 -2 5 14 -14 26 -27 33 -36 19z"/>
<path d="M4900 781 c0 -6 17 -7 38 -4 51 8 53 13 4 13 -23 0 -42 -4 -42 -9z"/>
<path d="M5088 783 c6 -2 18 -2 25 0 6 3 1 5 -13 5 -14 0 -19 -2 -12 -5z"/>
<path d="M6 744 c-4 -15 -5 -29 -1 -32 3 -3 5 2 5 12 0 13 6 15 25 10 15 -4
25 -2 25 5 0 6 7 11 15 11 8 0 15 5 15 10 0 6 -7 10 -15 10 -8 0 -15 -4 -15
-10 0 -5 -7 -10 -15 -10 -8 0 -15 5 -15 10 0 21 -18 9 -24 -16z"/>
<path d="M500 760 c0 -5 7 -10 16 -10 8 0 12 5 9 10 -3 6 -10 10 -16 10 -5 0
-9 -4 -9 -10z"/>
<path d="M4916 751 c-3 -4 6 -6 19 -3 14 2 25 6 25 8 0 8 -39 4 -44 -5z"/>
<path d="M480 740 c0 -5 5 -10 11 -10 5 0 7 5 4 10 -3 6 -8 10 -11 10 -2 0 -4
-4 -4 -10z"/>
<path d="M390 720 c0 -5 5 -10 10 -10 6 0 10 5 10 10 0 6 -4 10 -10 10 -5 0
-10 -4 -10 -10z"/>
<path d="M590 720 c0 -5 7 -10 15 -10 8 0 15 -4 15 -10 0 -5 7 -10 15 -10 8 0
15 5 15 10 0 6 -7 10 -15 10 -8 0 -15 5 -15 10 0 6 -7 10 -15 10 -8 0 -15 -4
-15 -10z"/>
<path d="M4921 704 c-10 -12 -10 -19 -2 -27 8 -8 11 -7 11 6 0 9 5 17 10 17 6
0 10 -7 10 -17 0 -9 3 -14 6 -10 7 7 -5 47 -14 47 -4 -1 -13 -8 -21 -16z"/>
<path d="M485 700 c11 -5 27 -9 35 -9 9 0 8 4 -5 9 -11 5 -27 9 -35 9 -9 0 -8
-4 5 -9z"/>
<path d="M48 683 c6 -2 18 -2 25 0 6 3 1 5 -13 5 -14 0 -19 -2 -12 -5z"/>
<path d="M846 654 c-3 -9 -2 -12 5 -9 6 4 19 -1 30 -11 10 -9 22 -14 27 -9 4
4 1 10 -6 12 -7 3 -19 11 -26 19 -18 18 -22 18 -30 -2z"/>
<path d="M4620 650 c-8 -5 -11 -12 -8 -16 4 -3 14 1 23 10 18 17 9 21 -15 6z"/>
<path d="M650 640 c0 -5 5 -10 10 -10 6 0 10 5 10 10 0 6 -4 10 -10 10 -5 0
-10 -4 -10 -10z"/>
<path d="M4680 640 c0 -5 9 -10 20 -10 11 0 20 5 20 10 0 6 -9 10 -20 10 -11
0 -20 -4 -20 -10z"/>
<path d="M4505 609 c-11 -16 -1 -19 13 -3 7 8 8 14 3 14 -5 0 -13 -5 -16 -11z"/>
<path d="M4770 590 c0 -5 5 -10 10 -10 6 0 10 5 10 10 0 6 -4 10 -10 10 -5 0
-10 -4 -10 -10z"/>
<path d="M4560 550 c-13 -9 -13 -10 0 -10 8 0 22 5 30 10 13 9 13 10 0 10 -8
0 -22 -5 -30 -10z"/>
<path d="M4394 530 c3 -8 9 -23 12 -32 9 -26 31 -22 36 7 5 26 -7 35 -15 13
-3 -9 -10 -7 -21 7 -10 11 -15 13 -12 5z"/>
<path d="M4485 524 c-16 -8 -22 -12 -12 -9 10 3 35 5 55 6 30 0 33 2 17 9 -26
11 -25 11 -60 -6z"/>
<path d="M4595 520 c-4 -6 -1 -10 5 -10 6 0 8 -4 5 -10 -4 -6 1 -7 11 -3 13 5
15 3 9 -7 -5 -9 -4 -11 3 -6 15 9 15 9 -8 28 -11 10 -22 13 -25 8z"/>
<path d="M4300 480 c0 -5 4 -10 9 -10 6 0 13 5 16 10 3 6 -1 10 -9 10 -9 0
-16 -4 -16 -10z"/>
<path d="M1510 464 c0 -3 7 -12 15 -20 13 -14 17 -14 31 1 9 9 13 19 10 23 -4
3 -12 0 -17 -8 -8 -11 -12 -12 -16 -2 -5 12 -23 17 -23 6z"/>
<path d="M4230 461 c0 -6 5 -13 11 -17 6 -3 9 -14 6 -24 -2 -10 -1 -24 4 -31
10 -16 13 40 3 65 -7 17 -24 22 -24 7z"/>
<path d="M1275 450 c-3 -5 1 -10 10 -10 9 0 13 5 10 10 -3 6 -8 10 -10 10 -2
0 -7 -4 -10 -10z"/>
<path d="M4293 443 c15 -2 37 -2 50 0 12 2 0 4 -28 4 -27 0 -38 -2 -22 -4z"/>
<path d="M3973 253 c9 -2 25 -2 35 0 9 3 1 5 -18 5 -19 0 -27 -2 -17 -5z"/>
<path d="M3510 239 c0 -5 5 -7 10 -4 6 3 10 8 10 11 0 2 -4 4 -10 4 -5 0 -10
-5 -10 -11z"/>
<path d="M3783 243 c9 -2 25 -2 35 0 9 3 1 5 -18 5 -19 0 -27 -2 -17 -5z"/>
<path d="M3888 223 c12 -2 30 -2 40 0 9 3 -1 5 -23 4 -22 0 -30 -2 -17 -4z"/>
</g>
</svg>
