<svg width="1984" height="1994" viewBox="0 0 1984 1994" fill="none" xmlns="http://www.w3.org/2000/svg">
<path d="M742.54 1912.3C742.54 1932.26 726.358 1948.44 706.395 1948.44C686.433 1948.44 670.25 1932.26 670.25 1912.3L670.25 1702.96C670.25 1683 686.433 1666.81 706.395 1666.81C726.358 1666.81 742.54 1657.03 742.54 1676.99V1912.3Z" fill="url(#paint0_linear_79_534)"/>
<path d="M732.916 1657.71C747.031 1671.83 743.416 1677.92 729.301 1692.04C715.185 1706.15 684.75 1711.78 670.635 1697.67L512.896 1539.93C498.781 1525.81 498.781 1502.93 512.896 1488.81C527.012 1474.7 549.897 1474.7 564.013 1488.81L732.916 1657.71Z" fill="url(#paint1_linear_79_534)"/>
<path d="M539.163 1478.18C559.125 1478.18 575.308 1494.36 575.308 1514.33C575.308 1534.29 559.125 1550.47 539.163 1550.47L344.13 1550.47C324.168 1550.47 307.985 1534.29 307.985 1514.33C307.985 1494.36 324.168 1478.18 344.13 1478.18L539.163 1478.18Z" fill="url(#paint2_linear_79_534)"/>
<path d="M357.291 1103.18C377.254 1103.18 359.944 1119.36 359.944 1139.32C359.944 1159.28 359.663 1175.47 339.701 1175.47L46.687 1175.47C26.7247 1175.47 10.542 1159.28 10.542 1139.32C10.542 1119.36 26.7247 1103.18 46.687 1103.18L357.291 1103.18Z" fill="url(#paint3_linear_79_534)"/>
<path d="M458.285 1191.82C472.4 1205.93 472.4 1228.82 458.285 1242.93C444.169 1257.05 421.284 1257.05 407.168 1242.93L329.025 1164.79C314.91 1150.68 314.91 1127.79 329.025 1113.67C343.141 1099.56 366.027 1099.56 380.142 1113.67L458.285 1191.82Z" fill="url(#paint4_linear_79_534)"/>
<path d="M542.745 1180.47C562.707 1180.47 578.89 1196.66 578.89 1216.62C578.89 1236.58 562.707 1252.76 542.745 1252.76L486.828 1254.16H458.285L432.234 1253.52C412.272 1253.52 396.089 1236.58 396.089 1216.62C396.089 1196.66 412.272 1180.47 432.234 1180.47L542.745 1180.47Z" fill="url(#paint5_linear_79_534)"/>
<rect x="418.68" y="1304.23" width="72.29" height="222.141" rx="36.145" transform="rotate(90 418.68 1304.23)" fill="url(#paint6_linear_79_534)"/>
<path d="M1173.96 1943.92C1173.96 1963.89 1157.78 1980.07 1137.81 1980.07C1117.85 1980.07 1101.67 1963.89 1101.67 1943.92L1101.67 1495.88C1101.67 1475.91 1117.85 1476.3 1137.81 1476.3C1157.78 1476.3 1173.96 1492.48 1173.96 1512.44L1173.96 1943.92Z" fill="url(#paint7_linear_79_534)"/>
<path d="M1163.28 1518.63C1149.17 1532.75 1126.28 1532.75 1112.17 1518.63C1098.05 1504.52 1098.05 1481.63 1112.17 1467.52L1202.63 1377.05C1216.75 1362.94 1239.63 1362.94 1253.75 1377.05C1267.86 1391.17 1267.86 1414.05 1253.75 1428.17L1163.28 1518.63Z" fill="url(#paint8_linear_79_534)"/>
<path d="M1234.95 1433C1214.99 1433 1198.81 1416.82 1198.81 1396.85C1198.81 1376.89 1214.99 1360.71 1234.95 1360.71H1444.29C1464.26 1360.71 1480.44 1376.89 1480.44 1396.85C1480.44 1416.82 1464.26 1433 1444.29 1433L1234.95 1433Z" fill="url(#paint9_linear_79_534)"/>
<path d="M1472.78 1422C1458.66 1436.12 1435.77 1436.12 1421.66 1422C1407.54 1407.89 1407.54 1385 1421.66 1370.89L1508.01 1284.54C1522.12 1270.42 1533.72 1264.89 1547.83 1279.01C1561.95 1293.12 1573.24 1321.54 1559.13 1335.65L1472.78 1422Z" fill="url(#paint10_linear_79_534)"/>
<path d="M1552.14 1342.64C1532.18 1342.64 1533.53 1326.45 1533.53 1306.49C1533.53 1286.53 1513.56 1270.35 1533.53 1270.35H1715.01C1734.97 1270.35 1751.15 1286.53 1751.15 1306.49C1751.15 1326.45 1734.97 1342.64 1715.01 1342.64H1552.14Z" fill="url(#paint11_linear_79_534)"/>
<rect x="1539.17" y="1151.37" width="72.29" height="439.011" rx="36.145" transform="rotate(-90 1539.17 1151.37)" fill="url(#paint12_linear_79_534)"/>
<path d="M1404.38 1558.75C1384.42 1558.75 1368.24 1542.57 1368.24 1522.61C1368.24 1502.65 1384.42 1486.46 1404.38 1486.46L1584.36 1486.46C1604.32 1486.46 1620.5 1502.65 1620.5 1522.61C1620.5 1542.57 1604.32 1558.75 1584.36 1558.75L1404.38 1558.75Z" fill="url(#paint13_linear_79_534)"/>
<path d="M1303.35 1675.34C1289.23 1689.45 1266.35 1689.45 1252.23 1675.34C1238.11 1661.22 1238.11 1638.34 1252.23 1624.22L1379.49 1496.96C1393.61 1482.85 1416.49 1482.85 1430.61 1496.96C1444.72 1511.08 1444.72 1533.96 1430.61 1548.08L1303.35 1675.34Z" fill="url(#paint14_linear_79_534)"/>
<path d="M1314.02 1910.79C1314.02 1930.75 1297.84 1946.94 1277.88 1946.94C1257.91 1946.94 1241.73 1930.75 1241.73 1910.79L1241.66 1651C1241.66 1631.04 1257.91 1645.73 1277.88 1645.73C1297.84 1645.73 1314.02 1644.7 1314.02 1664.66V1910.79Z" fill="url(#paint15_linear_79_534)"/>
<rect x="1067.7" y="1114.56" width="72.29" height="163.158" rx="36.145" transform="rotate(-135 1067.7 1114.56)" fill="url(#paint16_linear_79_534)"/>
<rect x="1284.57" y="903.712" width="72.29" height="166.787" rx="36.145" transform="rotate(-135 1284.57 903.712)" fill="url(#paint17_linear_79_534)"/>
<rect x="1580.59" y="761.304" width="72.29" height="163.158" rx="36.145" transform="rotate(-90 1580.59 761.304)" fill="url(#paint18_linear_79_534)"/>
<path d="M1035.27 847.262C1021.16 861.378 998.27 861.378 984.154 847.262C970.039 833.147 970.039 810.261 984.154 796.145L1048.41 731.892C1062.52 717.777 1085.41 717.777 1099.52 731.892C1113.64 746.008 1113.64 768.893 1099.52 783.009L1035.27 847.262Z" fill="url(#paint19_linear_79_534)"/>
<path d="M1078.33 789.919C1058.36 789.919 1042.18 773.736 1042.18 753.774C1042.18 733.812 1058.36 717.629 1078.33 717.629H1169.19C1189.16 717.629 1205.34 733.812 1205.34 753.774C1205.34 773.736 1189.16 789.919 1169.19 789.919H1078.33Z" fill="url(#paint20_linear_79_534)"/>
<path d="M1198.68 774.972C1184.56 789.088 1161.68 789.088 1147.56 774.972C1133.44 760.857 1133.44 737.971 1147.56 723.855L1374.9 496.517C1389.01 482.401 1411.9 482.401 1426.02 496.517C1440.13 510.632 1440.13 533.518 1426.02 547.633L1198.68 774.972Z" fill="url(#paint21_linear_79_534)"/>
<path d="M1328.33 610.7C1328.33 630.662 1312.15 646.845 1292.18 646.845C1272.22 646.845 1256.04 630.662 1256.04 610.7L1256.04 229.671C1256.04 209.709 1270.72 243.602 1290.68 243.602C1310.64 243.602 1328.33 292.165 1328.33 312.127V610.7Z" fill="url(#paint22_linear_79_534)"/>
<path d="M1446.55 510.548C1446.55 530.511 1430.37 546.693 1410.41 546.693C1390.45 546.693 1374.26 530.511 1374.26 510.548L1374.52 396.089C1374.52 376.127 1390.7 359.944 1410.66 359.944C1430.63 359.944 1446.55 388.175 1446.55 408.137V510.548Z" fill="url(#paint23_linear_79_534)"/>
<path d="M1410.66 432.234C1390.7 432.234 1374.52 416.052 1374.52 396.089C1374.52 376.127 1390.7 359.944 1410.66 359.944H1690.03C1710 359.944 1726.18 376.127 1726.18 396.089C1726.18 416.052 1710 432.234 1690.03 432.234H1410.66Z" fill="url(#paint24_linear_79_534)"/>
<path d="M1669.45 592.628C1649.49 592.628 1633.3 576.445 1633.3 556.483C1633.3 536.52 1649.49 520.338 1669.45 520.338H1842.64C1862.61 520.338 1878.79 536.52 1878.79 556.483C1878.79 576.445 1862.61 592.628 1842.64 592.628H1669.45Z" fill="url(#paint25_linear_79_534)"/>
<path d="M1583.56 526.229C1569.44 512.113 1569.44 489.228 1583.56 475.112C1597.67 460.997 1620.56 460.997 1634.68 475.112L1688.32 528.751C1702.43 542.867 1702.43 565.752 1688.32 579.868C1674.2 593.983 1651.31 593.983 1637.2 579.868L1583.56 526.229Z" fill="url(#paint26_linear_79_534)"/>
<rect x="1173.21" y="445.789" width="72.29" height="433.74" rx="36.145" transform="rotate(180 1173.21 445.789)" fill="url(#paint27_linear_79_534)"/>
<rect x="1019.49" y="282.374" width="72.29" height="247.396" rx="36.145" transform="rotate(135 1019.49 282.374)" fill="#D9D9D9"/>
<path d="M878.022 152.11C878.022 172.073 861.84 188.255 841.877 188.255C821.915 188.255 805.732 172.073 805.732 152.11L805.732 49.6994C805.732 29.737 821.915 13.5543 841.877 13.5543C861.84 13.5543 878.022 29.737 878.022 49.6994L878.022 152.11Z" fill="url(#paint28_linear_79_534)"/>
<path d="M993.935 256.816C1008.05 270.931 1008.05 293.817 993.935 307.933C979.819 322.048 956.933 322.048 942.818 307.933L818.999 184.114C804.884 169.998 804.884 147.112 818.999 132.997C833.115 118.881 856 118.881 870.116 132.997L993.935 256.816Z" fill="url(#paint29_linear_79_534)"/>
<path d="M865.975 417.174C865.975 437.136 849.792 453.319 829.83 453.319C809.867 453.319 793.685 437.136 793.685 417.174L793.685 369.733C793.685 349.771 809.867 333.588 829.83 333.588C849.792 333.588 865.975 349.771 865.975 369.733V417.174Z" fill="url(#paint30_linear_79_534)"/>
<path d="M855.623 344.41C869.738 358.525 869.738 381.411 855.623 395.526C841.507 409.642 818.622 409.642 804.506 395.526L726.731 317.751C712.616 303.636 712.616 280.75 726.731 266.635C740.847 252.519 763.732 252.519 777.848 266.635L855.623 344.41Z" fill="url(#paint31_linear_79_534)"/>
<path d="M1389.34 1287.04C1375.22 1301.16 1352.34 1301.16 1338.22 1287.04C1324.11 1272.93 1324.11 1250.04 1338.22 1235.93L1415.29 1158.86C1429.41 1144.74 1452.3 1144.74 1466.41 1158.86C1480.53 1172.97 1480.53 1195.86 1466.41 1209.97L1389.34 1287.04Z" fill="url(#paint32_linear_79_534)"/>
<path d="M1228.18 1304.23C1208.21 1304.23 1192.03 1288.05 1192.03 1268.09C1192.03 1248.13 1208.21 1231.94 1228.18 1231.94L1357.7 1231.94C1377.66 1231.94 1393.84 1248.13 1393.84 1268.09C1393.84 1288.05 1377.66 1304.23 1357.7 1304.23L1228.18 1304.23Z" fill="url(#paint33_linear_79_534)"/>
<path d="M694.304 1097.83C680.188 1083.72 680.188 1060.83 694.304 1046.72C708.419 1032.6 731.305 1032.6 745.42 1046.72L862.756 1164.05C876.872 1178.17 876.872 1201.05 862.756 1215.17C848.641 1229.29 842.439 1245.97 828.324 1231.85L694.304 1097.83Z" fill="url(#paint34_linear_79_534)"/>
<path d="M551.212 1106.94C531.249 1106.94 515.067 1090.76 515.067 1070.8C515.067 1050.83 531.249 1034.65 551.212 1034.65L717.15 1034.65C737.112 1034.65 753.295 1050.83 753.295 1070.8C753.295 1090.76 737.112 1106.94 717.15 1106.94H551.212Z" fill="url(#paint35_linear_79_534)"/>
<path d="M408.093 978.795C393.978 964.679 393.978 941.793 408.093 927.678C422.209 913.562 426.402 894.87 440.518 908.985L576.546 1045.01C590.662 1059.13 590.662 1082.01 576.546 1096.13C562.431 1110.25 539.545 1110.25 525.429 1096.13L408.093 978.795Z" fill="url(#paint36_linear_79_534)"/>
<rect y="950.313" width="72.29" height="306.48" rx="36.145" transform="rotate(-90 0 950.313)" fill="url(#paint37_linear_79_534)"/>
<rect x="666.424" y="969.138" width="72.29" height="131.779" rx="36.145" transform="rotate(-90 666.424 969.138)" fill="#D9D9D9"/>
<path d="M833.459 1383.91C818.257 1370.97 816.422 1348.16 829.361 1332.96C842.299 1317.75 865.111 1315.92 880.313 1328.86L935.068 1375.46C950.27 1388.4 952.105 1411.21 939.166 1426.41C926.228 1441.62 903.416 1443.45 888.214 1430.51L833.459 1383.91Z" fill="url(#paint38_linear_79_534)"/>
<path d="M820.04 1025.61C820.04 1005.65 836.222 989.47 856.185 989.47C876.147 989.47 892.33 1005.65 892.33 1025.61V1354.69C892.33 1374.65 876.147 1390.83 856.185 1390.83C836.222 1390.83 820.04 1374.65 820.04 1354.69V1025.61Z" fill="url(#paint39_linear_79_534)"/>
<path d="M741.006 959.294C726.89 945.178 726.89 922.292 741.006 908.177C755.121 894.061 778.007 894.061 792.123 908.177L877.894 993.948C892.009 1008.06 892.009 1030.95 877.894 1045.06C863.778 1059.18 840.892 1059.18 826.777 1045.06L741.006 959.294Z" fill="url(#paint40_linear_79_534)"/>
<path d="M687.508 969.138C667.546 969.138 651.363 952.956 651.363 932.993C651.363 913.031 667.546 896.848 687.508 896.848H762.057C782.019 896.848 798.202 913.031 798.202 932.993C798.202 952.956 782.019 969.138 762.057 969.138H687.508Z" fill="url(#paint41_linear_79_534)"/>
<path d="M462.174 759.529C448.058 745.413 448.058 722.527 462.174 708.412C476.289 694.296 499.175 694.296 513.29 708.412L707.602 902.724C721.718 916.839 721.718 939.725 707.602 953.84C693.487 967.956 670.601 967.956 656.486 953.84L462.174 759.529Z" fill="url(#paint42_linear_79_534)"/>
<path d="M450.306 640.068C450.306 620.106 466.489 603.923 486.451 603.923C506.414 603.923 522.596 620.106 522.596 640.068V731.184C522.596 751.146 506.414 767.329 486.451 767.329C466.489 767.329 450.306 751.146 450.306 731.184V640.068Z" fill="url(#paint43_linear_79_534)"/>
<path d="M403.594 606.988C389.552 592.799 389.672 569.914 403.861 555.872C418.05 541.831 440.936 541.95 454.977 556.139L503.101 604.769C517.143 618.958 517.023 641.844 502.834 655.885C488.645 669.927 465.76 669.807 451.718 655.618L403.594 606.988Z" fill="url(#paint44_linear_79_534)"/>
<path d="M127.502 615.218C107.54 615.218 91.3574 599.036 91.3574 579.073C91.3574 559.111 107.54 542.928 127.502 542.928L403.861 542.928C464.614 542.928 440.006 559.111 440.006 579.073C440.006 599.036 435.63 615.218 415.667 615.218L127.502 615.218Z" fill="url(#paint45_linear_79_534)"/>
<path d="M875.304 1943.55C875.304 1963.51 859.122 1979.69 839.159 1979.69C819.197 1979.69 803.014 1963.51 803.014 1943.55L803.014 1573.06C803.014 1553.1 819.197 1536.92 839.159 1536.92C859.122 1536.92 875.304 1539.17 875.304 1559.13V1943.55Z" fill="url(#paint46_linear_79_534)"/>
<path d="M682.88 1458.51C668.764 1444.4 668.764 1421.51 682.88 1407.4C696.995 1393.28 719.881 1393.28 733.996 1407.4L867.658 1541.06C882.164 1555.56 868.794 1557.44 854.679 1571.56C840.563 1585.67 812.987 1588.62 798.871 1574.5L682.88 1458.51Z" fill="url(#paint47_linear_79_534)"/>
<path d="M1430.98 960.102C1411.02 960.102 1426.6 943.919 1426.6 923.957C1426.6 903.995 1397.22 887.74 1417.19 887.74L1946.94 887.812C1966.9 887.812 1983.08 903.995 1983.08 923.957C1983.08 943.919 1966.9 960.102 1946.94 960.102L1430.98 960.102Z" fill="url(#paint48_linear_79_534)"/>
<path d="M1163.38 1227.71C1149.26 1241.82 1126.37 1241.82 1112.26 1227.71C1098.14 1213.59 1098.14 1190.7 1112.26 1176.59L1390.54 898.31C1404.65 884.194 1427.54 884.194 1441.65 898.31C1455.77 912.425 1455.77 935.311 1441.65 949.427L1163.38 1227.71Z" fill="url(#paint49_linear_79_534)"/>
<path d="M1166.43 1340.38C1166.43 1360.34 1150.25 1376.52 1130.28 1376.52C1110.32 1376.52 1094.14 1360.34 1094.14 1340.38L1094.14 1210.11C1094.14 1190.14 1110.32 1173.96 1130.28 1173.96C1150.25 1173.96 1166.43 1190.14 1166.43 1210.11L1166.43 1340.38Z" fill="url(#paint50_linear_79_534)"/>
<path d="M1039.4 1484.71C1025.29 1498.82 1002.4 1498.82 988.284 1484.71C974.168 1470.59 974.168 1447.71 988.284 1433.59L1096.98 1324.89C1111.1 1310.77 1133.99 1310.77 1148.1 1324.89C1162.22 1339.01 1162.22 1361.89 1148.1 1376.01L1039.4 1484.71Z" fill="url(#paint51_linear_79_534)"/>
<path d="M782.882 786.56C768.767 772.444 768.767 749.558 782.882 735.443C796.998 721.327 819.883 721.327 833.999 735.443L1004.57 906.019C1018.69 920.135 1018.69 943.02 1004.57 957.136C990.459 971.251 967.574 971.251 953.458 957.136L782.882 786.56Z" fill="url(#paint52_linear_79_534)"/>
<path d="M499.961 420.053C485.846 405.937 485.846 383.052 499.961 368.936C479.298 352.79 533.05 350.908 547.166 365.024L604.362 422.22C618.477 436.335 618.477 459.221 604.362 473.337C590.246 487.452 567.36 487.452 553.245 473.337L499.961 420.053Z" fill="url(#paint53_linear_79_534)"/>
<path d="M706.333 792.932C686.371 792.932 670.188 776.749 670.188 756.787C670.188 736.824 686.371 720.641 706.333 720.641H795.943C815.905 720.641 832.088 736.824 832.088 756.787C832.088 776.749 815.905 792.932 795.943 792.932H706.333Z" fill="url(#paint54_linear_79_534)"/>
<path d="M553.999 655.569C539.884 641.453 539.884 618.568 553.999 604.452C568.115 590.337 591 590.337 605.116 604.452L725.888 725.225C740.004 739.34 740.004 762.226 725.888 776.342C711.773 790.457 688.887 790.457 674.772 776.342L553.999 655.569Z" fill="url(#paint55_linear_79_534)"/>
<path d="M542.928 449.554C542.928 429.592 559.111 413.409 579.073 413.409C599.035 413.409 615.218 429.592 615.218 449.554V620.352C615.218 640.315 599.035 656.497 579.073 656.497C559.111 656.497 542.928 640.315 542.928 620.352V449.554Z" fill="url(#paint56_linear_79_534)"/>
<path d="M513.56 355.426C533.522 355.426 536.106 371.609 536.106 391.571C536.106 411.533 519.924 427.716 499.961 427.716L250.711 427.716C230.749 427.716 214.566 411.533 214.566 391.571C214.566 371.609 230.749 355.426 250.711 355.426L513.56 355.426Z" fill="url(#paint57_linear_79_534)"/>
<path fill-rule="evenodd" clip-rule="evenodd" d="M631.032 310.998C677.611 310.998 715.37 273.238 715.37 226.659C715.37 180.081 677.611 142.321 631.032 142.321C584.453 142.321 546.693 180.081 546.693 226.659C546.693 273.238 584.453 310.998 631.032 310.998ZM631.032 262.805C650.994 262.805 667.177 246.622 667.177 226.66C667.177 206.697 650.994 190.515 631.032 190.515C611.069 190.515 594.887 206.697 594.887 226.66C594.887 246.622 611.069 262.805 631.032 262.805Z" fill="url(#paint58_linear_79_534)"/>
<path fill-rule="evenodd" clip-rule="evenodd" d="M789.166 635.55C835.745 635.55 873.505 597.79 873.505 551.211C873.505 504.633 835.745 466.873 789.166 466.873C742.588 466.873 704.828 504.633 704.828 551.211C704.828 597.79 742.588 635.55 789.166 635.55ZM789.166 587.356C809.129 587.356 825.311 571.174 825.311 551.211C825.311 531.249 809.129 515.066 789.166 515.066C769.204 515.066 753.021 531.249 753.021 551.211C753.021 571.174 769.204 587.356 789.166 587.356Z" fill="url(#paint59_linear_79_534)"/>
<path fill-rule="evenodd" clip-rule="evenodd" d="M152.864 825.311C199.443 825.311 237.202 787.552 237.202 740.973C237.202 694.394 199.443 656.635 152.864 656.635C106.285 656.635 68.5254 694.394 68.5254 740.973C68.5254 787.552 106.285 825.311 152.864 825.311ZM152.864 777.118C172.826 777.118 189.009 760.935 189.009 740.973C189.009 721.01 172.826 704.828 152.864 704.828C132.901 704.828 116.719 721.01 116.719 740.973C116.719 760.935 132.901 777.118 152.864 777.118Z" fill="#29D9FF"/>
<path fill-rule="evenodd" clip-rule="evenodd" d="M357.685 993.988C404.264 993.988 442.023 956.228 442.023 909.65C442.023 863.071 404.264 825.311 357.685 825.311C311.106 825.311 273.347 863.071 273.347 909.65C273.347 956.228 311.106 993.988 357.685 993.988ZM357.685 945.795C377.647 945.795 393.83 929.612 393.83 909.65C393.83 889.687 377.647 873.505 357.685 873.505C337.723 873.505 321.54 889.687 321.54 909.65C321.54 929.612 337.723 945.795 357.685 945.795Z" fill="#CD06BC"/>
<path fill-rule="evenodd" clip-rule="evenodd" d="M152.11 1417.94C198.689 1417.94 236.448 1380.18 236.448 1333.6C236.448 1287.02 198.689 1249.26 152.11 1249.26C105.531 1249.26 67.7715 1287.02 67.7715 1333.6C67.7715 1380.18 105.531 1417.94 152.11 1417.94ZM152.11 1369.75C172.072 1369.75 188.255 1353.56 188.255 1333.6C188.255 1313.64 172.072 1297.46 152.11 1297.46C132.148 1297.46 115.965 1313.64 115.965 1333.6C115.965 1353.56 132.148 1369.75 152.11 1369.75Z" fill="#9D00A4"/>
<path fill-rule="evenodd" clip-rule="evenodd" d="M652.117 1460.86C698.695 1460.86 736.455 1423.1 736.455 1376.52C736.455 1329.94 698.695 1292.18 652.117 1292.18C605.538 1292.18 567.778 1329.94 567.778 1376.52C567.778 1423.1 605.538 1460.86 652.117 1460.86ZM652.117 1412.67C672.079 1412.67 688.262 1396.49 688.262 1376.52C688.262 1356.56 672.079 1340.38 652.117 1340.38C632.154 1340.38 615.972 1356.56 615.972 1376.52C615.972 1396.49 632.154 1412.67 652.117 1412.67Z" fill="url(#paint60_linear_79_534)"/>
<path fill-rule="evenodd" clip-rule="evenodd" d="M1481.95 809.498C1528.52 809.498 1566.28 771.738 1566.28 725.159C1566.28 678.581 1528.52 640.821 1481.95 640.821C1435.37 640.821 1397.61 678.581 1397.61 725.159C1397.61 771.738 1435.37 809.498 1481.95 809.498ZM1481.95 761.304C1501.91 761.304 1518.09 745.122 1518.09 725.159C1518.09 705.197 1501.91 689.014 1481.95 689.014C1461.98 689.014 1445.8 705.197 1445.8 725.159C1445.8 745.122 1461.98 761.304 1481.95 761.304Z" fill="#29D9FF"/>
<path fill-rule="evenodd" clip-rule="evenodd" d="M1844.9 815.522C1891.48 815.522 1929.24 777.762 1929.24 731.184C1929.24 684.605 1891.48 646.845 1844.9 646.845C1798.32 646.845 1760.56 684.605 1760.56 731.184C1760.56 777.762 1798.32 815.522 1844.9 815.522ZM1844.9 767.329C1864.86 767.329 1881.05 751.146 1881.05 731.184C1881.05 711.221 1864.86 695.039 1844.9 695.039C1824.94 695.039 1808.76 711.221 1808.76 731.184C1808.76 751.146 1824.94 767.329 1844.9 767.329Z" fill="#29D9FF"/>
<path fill-rule="evenodd" clip-rule="evenodd" d="M1719.15 1605.44C1765.73 1605.44 1803.49 1567.68 1803.49 1521.1C1803.49 1474.52 1765.73 1436.76 1719.15 1436.76C1672.57 1436.76 1634.81 1474.52 1634.81 1521.1C1634.81 1567.68 1672.57 1605.44 1719.15 1605.44ZM1717.64 1557.25C1737.6 1557.25 1753.79 1541.07 1753.79 1521.1C1753.79 1501.14 1737.6 1484.96 1717.64 1484.96C1697.68 1484.96 1681.5 1501.14 1681.5 1521.1C1681.5 1541.07 1697.68 1557.25 1717.64 1557.25Z" fill="#CD06BC"/>
<circle cx="1375.77" cy="1792.94" r="26.3557" fill="#FEAE07"/>
<circle cx="1140.07" cy="530.127" r="26.3557" fill="#13CEF5"/>
<circle cx="1548.96" cy="282.383" r="26.3557" fill="#A2FFAE"/>
<circle cx="1610.71" cy="501.512" r="41.4162" fill="#A2FFAE"/>
<circle cx="667.177" cy="408.137" r="26.3557" fill="#13CEF5"/>
<circle cx="490.217" cy="1359.2" r="26.3557" fill="#FEAE07"/>
<circle cx="668.683" cy="1187.51" r="26.3557" fill="#FF4D7B"/>
<circle cx="362.203" cy="758.292" r="26.3557" fill="#FF4D7B"/>
<circle cx="420.939" cy="282.383" r="26.3557" fill="#13CEF5"/>
<circle cx="416.42" cy="484.946" r="20.3316" fill="#FF4D7B"/>
<circle cx="152.863" cy="1024.11" r="20.3316" fill="#FF4D7B"/>
<circle cx="613.712" cy="1819.3" r="20.3316" fill="#FEAE07"/>
<circle cx="1823.06" cy="1024.11" r="20.3316" fill="#FEAE07"/>
<circle cx="1254.53" cy="87.3505" r="20.3316" fill="#13CEF5"/>
<circle cx="721.394" cy="87.3505" r="20.3316" fill="#A2FFAE"/>
<path fill-rule="evenodd" clip-rule="evenodd" d="M1500.02 1207.09C1546.6 1207.09 1584.36 1169.33 1584.36 1122.75C1584.36 1076.18 1546.6 1038.42 1500.02 1038.42C1453.44 1038.42 1415.68 1076.18 1415.68 1122.75C1415.68 1169.33 1453.44 1207.09 1500.02 1207.09ZM1500.02 1158.9C1519.98 1158.9 1536.16 1142.72 1536.16 1122.75C1536.16 1102.79 1519.98 1086.61 1500.02 1086.61C1480.06 1086.61 1463.87 1102.79 1463.87 1122.75C1463.87 1142.72 1480.06 1158.9 1500.02 1158.9Z" fill="#CD06BC"/>
<path fill-rule="evenodd" clip-rule="evenodd" d="M1844.9 1383.3C1891.48 1383.3 1929.24 1345.54 1929.24 1298.96C1929.24 1252.38 1891.48 1214.62 1844.9 1214.62C1798.32 1214.62 1760.56 1252.38 1760.56 1298.96C1760.56 1345.54 1798.32 1383.3 1844.9 1383.3ZM1844.9 1335.11C1864.86 1335.11 1881.05 1318.92 1881.05 1298.96C1881.05 1279 1864.86 1262.82 1844.9 1262.82C1824.94 1262.82 1808.76 1279 1808.76 1298.96C1808.76 1318.92 1824.94 1335.11 1844.9 1335.11Z" fill="#29D9FF"/>
<path fill-rule="evenodd" clip-rule="evenodd" d="M1338.87 314.01C1385.45 314.01 1423.21 276.25 1423.21 229.672C1423.21 183.093 1385.45 145.333 1338.87 145.333C1292.29 145.333 1254.53 183.093 1254.53 229.672C1254.53 276.25 1292.29 314.01 1338.87 314.01ZM1338.87 265.817C1358.83 265.817 1375.02 249.634 1375.02 229.672C1375.02 209.709 1358.83 193.527 1338.87 193.527C1318.91 193.527 1302.73 209.709 1302.73 229.672C1302.73 249.634 1318.91 265.817 1338.87 265.817Z" fill="#A2FFAE"/>
<path fill-rule="evenodd" clip-rule="evenodd" d="M1183 1025.61C1229.58 1025.61 1267.33 987.855 1267.33 941.276C1267.33 894.698 1229.58 856.938 1183 856.938C1136.42 856.938 1098.66 894.698 1098.66 941.276C1098.66 987.855 1136.42 1025.61 1183 1025.61ZM1183 977.422C1202.96 977.422 1219.14 961.239 1219.14 941.276C1219.14 921.314 1202.96 905.131 1183 905.131C1163.03 905.131 1146.85 921.314 1146.85 941.276C1146.85 961.239 1163.03 977.422 1183 977.422Z" fill="#29D9FF"/>
<path fill-rule="evenodd" clip-rule="evenodd" d="M1503.03 1792.94C1549.61 1792.94 1587.37 1755.18 1587.37 1708.6C1587.37 1662.03 1549.61 1624.27 1503.03 1624.27C1456.45 1624.27 1418.69 1662.03 1418.69 1708.6C1418.69 1755.18 1456.45 1792.94 1503.03 1792.94ZM1503.03 1744.75C1522.99 1744.75 1539.17 1728.57 1539.17 1708.6C1539.17 1688.64 1522.99 1672.46 1503.03 1672.46C1483.07 1672.46 1466.88 1688.64 1466.88 1708.6C1466.88 1728.57 1483.07 1744.75 1503.03 1744.75Z" fill="url(#paint61_linear_79_534)"/>
<path fill-rule="evenodd" clip-rule="evenodd" d="M430.728 1801.23C477.307 1801.23 515.066 1763.47 515.066 1716.89C515.066 1670.31 477.307 1632.55 430.728 1632.55C384.149 1632.55 346.39 1670.31 346.39 1716.89C346.39 1763.47 384.149 1801.23 430.728 1801.23ZM430.728 1753.03C450.69 1753.03 466.873 1736.85 466.873 1716.89C466.873 1696.93 450.69 1680.74 430.728 1680.74C410.766 1680.74 394.583 1696.93 394.583 1716.89C394.583 1736.85 410.766 1753.03 430.728 1753.03Z" fill="#FE05C2"/>
<path fill-rule="evenodd" clip-rule="evenodd" d="M263.557 1609.96C310.136 1609.96 347.895 1572.2 347.895 1525.62C347.895 1479.04 310.136 1441.28 263.557 1441.28C216.978 1441.28 179.219 1479.04 179.219 1525.62C179.219 1572.2 216.978 1609.96 263.557 1609.96ZM263.557 1561.77C283.519 1561.77 299.702 1545.58 299.702 1525.62C299.702 1505.66 283.519 1489.48 263.557 1489.48C243.595 1489.48 227.412 1505.66 227.412 1525.62C227.412 1545.58 243.595 1561.77 263.557 1561.77Z" fill="#CD06BC"/>
<path d="M953.325 734.186C953.325 713.785 969.508 697.246 989.47 697.246C1009.43 697.246 1025.62 713.785 1025.62 734.186V1957.06C1025.62 1977.46 1009.43 1994 989.47 1994C969.508 1994 953.325 1977.46 953.325 1957.06V734.186Z" fill="url(#paint62_linear_79_534)"/>
<path d="M953.325 36.9402C953.325 16.5387 969.508 0 989.47 0C1009.43 0 1025.62 16.5387 1025.62 36.9402V563.338C1025.62 583.739 1009.43 600.278 989.47 600.278C969.508 600.278 953.325 583.739 953.325 563.338V36.9402Z" fill="url(#paint63_linear_79_534)"/>
<path fill-rule="evenodd" clip-rule="evenodd" d="M989.47 735.702C1036.05 735.702 1073.81 697.942 1073.81 651.363C1073.81 604.784 1036.05 567.025 989.47 567.025C942.891 567.025 905.132 604.784 905.132 651.363C905.132 697.942 942.891 735.702 989.47 735.702ZM989.47 687.508C1009.43 687.508 1025.62 671.326 1025.62 651.363C1025.62 631.401 1009.43 615.218 989.47 615.218C969.508 615.218 953.325 631.401 953.325 651.363C953.325 671.326 969.508 687.508 989.47 687.508Z" fill="url(#paint64_linear_79_534)"/>
<defs>
<linearGradient id="paint0_linear_79_534" x1="717.5" y1="1948" x2="223.5" y2="1478" gradientUnits="userSpaceOnUse">
<stop stop-color="#FEAE07"/>
<stop offset="0.378844" stop-color="#FE05C2"/>
<stop offset="1" stop-color="#CD06BC"/>
</linearGradient>
<linearGradient id="paint1_linear_79_534" x1="717.5" y1="1948" x2="223.5" y2="1478" gradientUnits="userSpaceOnUse">
<stop stop-color="#FEAE07"/>
<stop offset="0.378844" stop-color="#FE05C2"/>
<stop offset="1" stop-color="#CD06BC"/>
</linearGradient>
<linearGradient id="paint2_linear_79_534" x1="717.5" y1="1948" x2="223.5" y2="1478" gradientUnits="userSpaceOnUse">
<stop stop-color="#FEAE07"/>
<stop offset="0.378844" stop-color="#FE05C2"/>
<stop offset="1" stop-color="#CD06BC"/>
</linearGradient>
<linearGradient id="paint3_linear_79_534" x1="532" y1="1215" x2="69" y2="1103" gradientUnits="userSpaceOnUse">
<stop stop-color="#54A4FF"/>
<stop offset="1" stop-color="#9D00A4"/>
</linearGradient>
<linearGradient id="paint4_linear_79_534" x1="532" y1="1215" x2="69" y2="1103" gradientUnits="userSpaceOnUse">
<stop stop-color="#54A4FF"/>
<stop offset="1" stop-color="#9D00A4"/>
</linearGradient>
<linearGradient id="paint5_linear_79_534" x1="532" y1="1215" x2="69" y2="1103" gradientUnits="userSpaceOnUse">
<stop stop-color="#54A4FF"/>
<stop offset="1" stop-color="#9D00A4"/>
</linearGradient>
<linearGradient id="paint6_linear_79_534" x1="454.825" y1="1304.23" x2="454.825" y2="1526.37" gradientUnits="userSpaceOnUse">
<stop stop-color="#9D00A4"/>
<stop offset="1" stop-color="#C600B0"/>
</linearGradient>
<linearGradient id="paint7_linear_79_534" x1="1127" y1="1948.5" x2="1914" y2="1432" gradientUnits="userSpaceOnUse">
<stop stop-color="#FEAE07"/>
<stop offset="0.222782" stop-color="#FE05C2"/>
<stop offset="0.670806" stop-color="#FE05C2"/>
<stop offset="1" stop-color="#29D9FF"/>
</linearGradient>
<linearGradient id="paint8_linear_79_534" x1="1127" y1="1948.5" x2="1914" y2="1432" gradientUnits="userSpaceOnUse">
<stop stop-color="#FEAE07"/>
<stop offset="0.222782" stop-color="#FE05C2"/>
<stop offset="0.670806" stop-color="#FE05C2"/>
<stop offset="1" stop-color="#29D9FF"/>
</linearGradient>
<linearGradient id="paint9_linear_79_534" x1="1127" y1="1948.5" x2="1914" y2="1432" gradientUnits="userSpaceOnUse">
<stop stop-color="#FEAE07"/>
<stop offset="0.222782" stop-color="#FE05C2"/>
<stop offset="0.670806" stop-color="#FE05C2"/>
<stop offset="1" stop-color="#29D9FF"/>
</linearGradient>
<linearGradient id="paint10_linear_79_534" x1="1127" y1="1948.5" x2="1914" y2="1432" gradientUnits="userSpaceOnUse">
<stop stop-color="#FEAE07"/>
<stop offset="0.222782" stop-color="#FE05C2"/>
<stop offset="0.670806" stop-color="#FE05C2"/>
<stop offset="1" stop-color="#29D9FF"/>
</linearGradient>
<linearGradient id="paint11_linear_79_534" x1="1127" y1="1948.5" x2="1914" y2="1432" gradientUnits="userSpaceOnUse">
<stop stop-color="#FEAE07"/>
<stop offset="0.222782" stop-color="#FE05C2"/>
<stop offset="0.670806" stop-color="#FE05C2"/>
<stop offset="1" stop-color="#29D9FF"/>
</linearGradient>
<linearGradient id="paint12_linear_79_534" x1="1575.32" y1="1151.37" x2="1575.32" y2="1590.38" gradientUnits="userSpaceOnUse">
<stop stop-color="#54A4FF"/>
<stop offset="1" stop-color="#672FD0"/>
</linearGradient>
<linearGradient id="paint13_linear_79_534" x1="1259" y1="1947" x2="1621" y2="1486" gradientUnits="userSpaceOnUse">
<stop offset="0.00380728" stop-color="#FEAE07"/>
<stop offset="0.362665" stop-color="#FF1378"/>
<stop offset="0.722449" stop-color="#9D00A4"/>
<stop offset="1" stop-color="#5267FF"/>
</linearGradient>
<linearGradient id="paint14_linear_79_534" x1="1259" y1="1947" x2="1621" y2="1486" gradientUnits="userSpaceOnUse">
<stop offset="0.00380728" stop-color="#FEAE07"/>
<stop offset="0.362665" stop-color="#FF1378"/>
<stop offset="0.722449" stop-color="#9D00A4"/>
<stop offset="1" stop-color="#5267FF"/>
</linearGradient>
<linearGradient id="paint15_linear_79_534" x1="1259" y1="1947" x2="1621" y2="1486" gradientUnits="userSpaceOnUse">
<stop offset="0.00380728" stop-color="#FEAE07"/>
<stop offset="0.362665" stop-color="#FF1378"/>
<stop offset="0.722449" stop-color="#9D00A4"/>
<stop offset="1" stop-color="#5267FF"/>
</linearGradient>
<linearGradient id="paint16_linear_79_534" x1="1079.19" y1="1054.36" x2="1142.12" y2="1352.05" gradientUnits="userSpaceOnUse">
<stop stop-color="#54A4FF"/>
<stop offset="1" stop-color="#672FD0"/>
</linearGradient>
<linearGradient id="paint17_linear_79_534" x1="1272.39" y1="938.818" x2="1420.88" y2="1133.27" gradientUnits="userSpaceOnUse">
<stop stop-color="#29D9FF"/>
<stop offset="1" stop-color="#5267FF"/>
</linearGradient>
<linearGradient id="paint18_linear_79_534" x1="1545.9" y1="761.713" x2="1724.9" y2="1044.21" gradientUnits="userSpaceOnUse">
<stop stop-color="#54A4FF"/>
<stop offset="1" stop-color="#6711C5"/>
</linearGradient>
<linearGradient id="paint19_linear_79_534" x1="1045" y1="777.5" x2="1570.5" y2="223" gradientUnits="userSpaceOnUse">
<stop stop-color="#672FD0"/>
<stop offset="0.302083" stop-color="#54A4FF"/>
<stop offset="0.682292" stop-color="#29D9FF"/>
<stop offset="1" stop-color="#A2FFAE"/>
</linearGradient>
<linearGradient id="paint20_linear_79_534" x1="1045" y1="777.5" x2="1570.5" y2="223" gradientUnits="userSpaceOnUse">
<stop stop-color="#672FD0"/>
<stop offset="0.302083" stop-color="#54A4FF"/>
<stop offset="0.682292" stop-color="#29D9FF"/>
<stop offset="1" stop-color="#A2FFAE"/>
</linearGradient>
<linearGradient id="paint21_linear_79_534" x1="1045" y1="777.5" x2="1570.5" y2="223" gradientUnits="userSpaceOnUse">
<stop stop-color="#672FD0"/>
<stop offset="0.302083" stop-color="#54A4FF"/>
<stop offset="0.682292" stop-color="#29D9FF"/>
<stop offset="1" stop-color="#A2FFAE"/>
</linearGradient>
<linearGradient id="paint22_linear_79_534" x1="1045" y1="777.5" x2="1570.5" y2="223" gradientUnits="userSpaceOnUse">
<stop stop-color="#672FD0"/>
<stop offset="0.302083" stop-color="#54A4FF"/>
<stop offset="0.682292" stop-color="#29D9FF"/>
<stop offset="1" stop-color="#A2FFAE"/>
</linearGradient>
<linearGradient id="paint23_linear_79_534" x1="1045" y1="777.5" x2="1570.5" y2="223" gradientUnits="userSpaceOnUse">
<stop stop-color="#672FD0"/>
<stop offset="0.302083" stop-color="#54A4FF"/>
<stop offset="0.682292" stop-color="#29D9FF"/>
<stop offset="1" stop-color="#A2FFAE"/>
</linearGradient>
<linearGradient id="paint24_linear_79_534" x1="1045" y1="777.5" x2="1570.5" y2="223" gradientUnits="userSpaceOnUse">
<stop stop-color="#672FD0"/>
<stop offset="0.302083" stop-color="#54A4FF"/>
<stop offset="0.682292" stop-color="#29D9FF"/>
<stop offset="1" stop-color="#A2FFAE"/>
</linearGradient>
<linearGradient id="paint25_linear_79_534" x1="1511" y1="554" x2="1879" y2="569.5" gradientUnits="userSpaceOnUse">
<stop stop-color="#54A4FF"/>
<stop offset="1" stop-color="#29D9FF"/>
</linearGradient>
<linearGradient id="paint26_linear_79_534" x1="1511" y1="554" x2="1879" y2="569.5" gradientUnits="userSpaceOnUse">
<stop stop-color="#54A4FF"/>
<stop offset="1" stop-color="#29D9FF"/>
</linearGradient>
<linearGradient id="paint27_linear_79_534" x1="1209.35" y1="445.789" x2="1209.35" y2="879.529" gradientUnits="userSpaceOnUse">
<stop stop-color="#13CEF5"/>
<stop offset="1" stop-color="#A2FFAE"/>
</linearGradient>
<linearGradient id="paint28_linear_79_534" x1="947.5" y1="319" x2="736.5" y2="-44.4999" gradientUnits="userSpaceOnUse">
<stop stop-color="#44E2EE"/>
<stop offset="1" stop-color="#A2FFAE"/>
</linearGradient>
<linearGradient id="paint29_linear_79_534" x1="947.5" y1="319" x2="736.5" y2="-44.4999" gradientUnits="userSpaceOnUse">
<stop stop-color="#44E2EE"/>
<stop offset="1" stop-color="#A2FFAE"/>
</linearGradient>
<linearGradient id="paint30_linear_79_534" x1="903.5" y1="563.5" x2="494" y2="214" gradientUnits="userSpaceOnUse">
<stop stop-color="#A2FFAE"/>
<stop offset="1" stop-color="#13CEF5"/>
</linearGradient>
<linearGradient id="paint31_linear_79_534" x1="903.5" y1="563.5" x2="494" y2="214" gradientUnits="userSpaceOnUse">
<stop stop-color="#A2FFAE"/>
<stop offset="1" stop-color="#13CEF5"/>
</linearGradient>
<linearGradient id="paint32_linear_79_534" x1="1441.5" y1="1148" x2="1192" y2="1287.5" gradientUnits="userSpaceOnUse">
<stop stop-color="#FEAE07"/>
<stop offset="1" stop-color="#FF4D7B"/>
</linearGradient>
<linearGradient id="paint33_linear_79_534" x1="1441.5" y1="1148" x2="1192" y2="1287.5" gradientUnits="userSpaceOnUse">
<stop stop-color="#FEAE07"/>
<stop offset="1" stop-color="#FF4D7B"/>
</linearGradient>
<linearGradient id="paint34_linear_79_534" x1="818.5" y1="1221" x2="398" y2="922" gradientUnits="userSpaceOnUse">
<stop offset="0.501138" stop-color="#5988F4"/>
<stop offset="1" stop-color="#672FD0"/>
</linearGradient>
<linearGradient id="paint35_linear_79_534" x1="818.5" y1="1221" x2="398" y2="922" gradientUnits="userSpaceOnUse">
<stop offset="0.501138" stop-color="#5988F4"/>
<stop offset="1" stop-color="#672FD0"/>
</linearGradient>
<linearGradient id="paint36_linear_79_534" x1="818.5" y1="1221" x2="398" y2="922" gradientUnits="userSpaceOnUse">
<stop offset="0.501138" stop-color="#5988F4"/>
<stop offset="1" stop-color="#672FD0"/>
</linearGradient>
<linearGradient id="paint37_linear_79_534" x1="36.145" y1="950.313" x2="36.145" y2="1256.79" gradientUnits="userSpaceOnUse">
<stop stop-color="#CD06BC"/>
<stop offset="1" stop-color="#FE05C2"/>
</linearGradient>
<linearGradient id="paint38_linear_79_534" x1="894" y1="1439" x2="53.5" y2="543" gradientUnits="userSpaceOnUse">
<stop stop-color="#672FD0"/>
<stop offset="0.270184" stop-color="#54A4FF"/>
<stop offset="0.5942" stop-color="#29D9FF"/>
<stop offset="1" stop-color="#A2FFAE"/>
</linearGradient>
<linearGradient id="paint39_linear_79_534" x1="894" y1="1439" x2="53.5" y2="543" gradientUnits="userSpaceOnUse">
<stop stop-color="#672FD0"/>
<stop offset="0.270184" stop-color="#54A4FF"/>
<stop offset="0.5942" stop-color="#29D9FF"/>
<stop offset="1" stop-color="#A2FFAE"/>
</linearGradient>
<linearGradient id="paint40_linear_79_534" x1="894" y1="1439" x2="53.5" y2="543" gradientUnits="userSpaceOnUse">
<stop stop-color="#672FD0"/>
<stop offset="0.270184" stop-color="#54A4FF"/>
<stop offset="0.5942" stop-color="#29D9FF"/>
<stop offset="1" stop-color="#A2FFAE"/>
</linearGradient>
<linearGradient id="paint41_linear_79_534" x1="894" y1="1439" x2="53.5" y2="543" gradientUnits="userSpaceOnUse">
<stop stop-color="#672FD0"/>
<stop offset="0.270184" stop-color="#54A4FF"/>
<stop offset="0.5942" stop-color="#29D9FF"/>
<stop offset="1" stop-color="#A2FFAE"/>
</linearGradient>
<linearGradient id="paint42_linear_79_534" x1="894" y1="1439" x2="53.5" y2="543" gradientUnits="userSpaceOnUse">
<stop stop-color="#672FD0"/>
<stop offset="0.270184" stop-color="#54A4FF"/>
<stop offset="0.5942" stop-color="#29D9FF"/>
<stop offset="1" stop-color="#A2FFAE"/>
</linearGradient>
<linearGradient id="paint43_linear_79_534" x1="894" y1="1439" x2="53.5" y2="543" gradientUnits="userSpaceOnUse">
<stop stop-color="#672FD0"/>
<stop offset="0.270184" stop-color="#54A4FF"/>
<stop offset="0.5942" stop-color="#29D9FF"/>
<stop offset="1" stop-color="#A2FFAE"/>
</linearGradient>
<linearGradient id="paint44_linear_79_534" x1="894" y1="1439" x2="53.5" y2="543" gradientUnits="userSpaceOnUse">
<stop stop-color="#672FD0"/>
<stop offset="0.270184" stop-color="#54A4FF"/>
<stop offset="0.5942" stop-color="#29D9FF"/>
<stop offset="1" stop-color="#A2FFAE"/>
</linearGradient>
<linearGradient id="paint45_linear_79_534" x1="894" y1="1439" x2="53.5" y2="543" gradientUnits="userSpaceOnUse">
<stop stop-color="#672FD0"/>
<stop offset="0.270184" stop-color="#54A4FF"/>
<stop offset="0.5942" stop-color="#29D9FF"/>
<stop offset="1" stop-color="#A2FFAE"/>
</linearGradient>
<linearGradient id="paint46_linear_79_534" x1="774" y1="1999" x2="774" y2="1688" gradientUnits="userSpaceOnUse">
<stop stop-color="#FEAE07"/>
<stop offset="1" stop-color="#FF4D7B"/>
</linearGradient>
<linearGradient id="paint47_linear_79_534" x1="774" y1="1999" x2="774" y2="1688" gradientUnits="userSpaceOnUse">
<stop stop-color="#FEAE07"/>
<stop offset="1" stop-color="#FF4D7B"/>
</linearGradient>
<linearGradient id="paint48_linear_79_534" x1="1038.5" y1="1457.5" x2="1964.5" y2="859" gradientUnits="userSpaceOnUse">
<stop stop-color="#C600B0"/>
<stop offset="0.322917" stop-color="#FE05C2"/>
<stop offset="0.651042" stop-color="#672FD0"/>
<stop offset="1" stop-color="#29D9FF"/>
</linearGradient>
<linearGradient id="paint49_linear_79_534" x1="1038.5" y1="1457.5" x2="1964.5" y2="859" gradientUnits="userSpaceOnUse">
<stop stop-color="#C600B0"/>
<stop offset="0.322917" stop-color="#FE05C2"/>
<stop offset="0.651042" stop-color="#672FD0"/>
<stop offset="1" stop-color="#29D9FF"/>
</linearGradient>
<linearGradient id="paint50_linear_79_534" x1="1038.5" y1="1457.5" x2="1964.5" y2="859" gradientUnits="userSpaceOnUse">
<stop stop-color="#C600B0"/>
<stop offset="0.322917" stop-color="#FE05C2"/>
<stop offset="0.651042" stop-color="#672FD0"/>
<stop offset="1" stop-color="#29D9FF"/>
</linearGradient>
<linearGradient id="paint51_linear_79_534" x1="1038.5" y1="1457.5" x2="1964.5" y2="859" gradientUnits="userSpaceOnUse">
<stop stop-color="#C600B0"/>
<stop offset="0.322917" stop-color="#FE05C2"/>
<stop offset="0.651042" stop-color="#672FD0"/>
<stop offset="1" stop-color="#29D9FF"/>
</linearGradient>
<linearGradient id="paint52_linear_79_534" x1="903.5" y1="938" x2="81.5" y2="336.5" gradientUnits="userSpaceOnUse">
<stop stop-color="#FE05C2"/>
<stop offset="0.316254" stop-color="#C600B0"/>
<stop offset="0.574148" stop-color="#9D00A4"/>
<stop offset="1" stop-color="#6711C5"/>
</linearGradient>
<linearGradient id="paint53_linear_79_534" x1="903.5" y1="938" x2="81.5" y2="336.5" gradientUnits="userSpaceOnUse">
<stop stop-color="#FE05C2"/>
<stop offset="0.316254" stop-color="#C600B0"/>
<stop offset="0.574148" stop-color="#9D00A4"/>
<stop offset="1" stop-color="#6711C5"/>
</linearGradient>
<linearGradient id="paint54_linear_79_534" x1="903.5" y1="938" x2="81.5" y2="336.5" gradientUnits="userSpaceOnUse">
<stop stop-color="#FE05C2"/>
<stop offset="0.316254" stop-color="#C600B0"/>
<stop offset="0.574148" stop-color="#9D00A4"/>
<stop offset="1" stop-color="#6711C5"/>
</linearGradient>
<linearGradient id="paint55_linear_79_534" x1="903.5" y1="938" x2="81.5" y2="336.5" gradientUnits="userSpaceOnUse">
<stop stop-color="#FE05C2"/>
<stop offset="0.316254" stop-color="#C600B0"/>
<stop offset="0.574148" stop-color="#9D00A4"/>
<stop offset="1" stop-color="#6711C5"/>
</linearGradient>
<linearGradient id="paint56_linear_79_534" x1="903.5" y1="938" x2="81.5" y2="336.5" gradientUnits="userSpaceOnUse">
<stop stop-color="#FE05C2"/>
<stop offset="0.316254" stop-color="#C600B0"/>
<stop offset="0.574148" stop-color="#9D00A4"/>
<stop offset="1" stop-color="#6711C5"/>
</linearGradient>
<linearGradient id="paint57_linear_79_534" x1="903.5" y1="938" x2="81.5" y2="336.5" gradientUnits="userSpaceOnUse">
<stop stop-color="#FE05C2"/>
<stop offset="0.316254" stop-color="#C600B0"/>
<stop offset="0.574148" stop-color="#9D00A4"/>
<stop offset="1" stop-color="#6711C5"/>
</linearGradient>
<linearGradient id="paint58_linear_79_534" x1="497" y1="412" x2="787" y2="9.00025" gradientUnits="userSpaceOnUse">
<stop stop-color="#FE05C2"/>
<stop offset="1" stop-color="#CD06BC"/>
</linearGradient>
<linearGradient id="paint59_linear_79_534" x1="655.135" y1="736.552" x2="945.135" y2="333.552" gradientUnits="userSpaceOnUse">
<stop stop-color="#FE05C2"/>
<stop offset="1" stop-color="#CD06BC"/>
</linearGradient>
<linearGradient id="paint60_linear_79_534" x1="518.085" y1="1561.86" x2="808.085" y2="1158.86" gradientUnits="userSpaceOnUse">
<stop stop-color="#FE05C2"/>
<stop offset="1" stop-color="#CD06BC"/>
</linearGradient>
<linearGradient id="paint61_linear_79_534" x1="1369" y1="1893.95" x2="1659" y2="1490.95" gradientUnits="userSpaceOnUse">
<stop stop-color="#FE05C2"/>
<stop offset="1" stop-color="#CD06BC"/>
</linearGradient>
<linearGradient id="paint62_linear_79_534" x1="989" y1="1964" x2="989" y2="1.12395e-07" gradientUnits="userSpaceOnUse">
<stop stop-color="#FEAE07"/>
<stop offset="0.177083" stop-color="#FE05C2"/>
<stop offset="0.338542" stop-color="#FF1378"/>
<stop offset="0.510417" stop-color="#CD06BC"/>
<stop offset="0.666667" stop-color="#672FD0"/>
<stop offset="0.838542" stop-color="#29D9FF"/>
<stop offset="1" stop-color="#A2FFAE"/>
</linearGradient>
<linearGradient id="paint63_linear_79_534" x1="989" y1="1964" x2="989" y2="1.12395e-07" gradientUnits="userSpaceOnUse">
<stop stop-color="#FEAE07"/>
<stop offset="0.177083" stop-color="#FE05C2"/>
<stop offset="0.338542" stop-color="#FF1378"/>
<stop offset="0.510417" stop-color="#CD06BC"/>
<stop offset="0.666667" stop-color="#672FD0"/>
<stop offset="0.838542" stop-color="#29D9FF"/>
<stop offset="1" stop-color="#A2FFAE"/>
</linearGradient>
<linearGradient id="paint64_linear_79_534" x1="1117.6" y1="509.692" x2="853.099" y2="735.692" gradientUnits="userSpaceOnUse">
<stop stop-color="#29D9FF"/>
<stop offset="1" stop-color="#A2FFAE"/>
</linearGradient>
</defs>
</svg>
