<?xml version="1.0" encoding="UTF-8" standalone="no"?>
<svg
   xmlns:dc="http://purl.org/dc/elements/1.1/"
   xmlns:cc="http://creativecommons.org/ns#"
   xmlns:rdf="http://www.w3.org/1999/02/22-rdf-syntax-ns#"
   xmlns:svg="http://www.w3.org/2000/svg"
   xmlns="http://www.w3.org/2000/svg"
   viewBox="0 0 188.97333 188.97333"
   height="188.97333"
   width="188.97333"
   xml:space="preserve"
   id="svg2"
   version="1.1"><metadata
     id="metadata8"><rdf:RDF><cc:Work
         rdf:about=""><dc:format>image/svg+xml</dc:format><dc:type
           rdf:resource="http://purl.org/dc/dcmitype/StillImage" /></cc:Work></rdf:RDF></metadata><defs
     id="defs6"><clipPath
       id="clipPath18"
       clipPathUnits="userSpaceOnUse"><path
         id="path16"
         d="M 0,141.73 H 141.73 V 0 H 0 Z" /></clipPath><linearGradient
       id="linearGradient60"
       spreadMethod="pad"
       gradientTransform="matrix(5.6936269,-2.3196256,-2.3196256,-5.6936269,57.354805,85.681534)"
       gradientUnits="userSpaceOnUse"
       y2="0"
       x2="1"
       y1="0"
       x1="0"><stop
         id="stop52"
         offset="0"
         style="stop-opacity:1;stop-color:#ed1c24" /><stop
         id="stop54"
         offset="0.00469484"
         style="stop-opacity:1;stop-color:#ed1c24" /><stop
         id="stop56"
         offset="0.82507116"
         style="stop-opacity:1;stop-color:#870e12" /><stop
         id="stop58"
         offset="1"
         style="stop-opacity:1;stop-color:#870e12" /></linearGradient><clipPath
       id="clipPath70"
       clipPathUnits="userSpaceOnUse"><path
         id="path68"
         d="M 0,141.73 H 141.73 V 0 H 0 Z" /></clipPath></defs><g
     transform="matrix(1.3333333,0,0,-1.3333333,0,188.97333)"
     id="g10"><g
       id="g12"><g
         clip-path="url(#clipPath18)"
         id="g14"><g
           transform="translate(22.3676,32.5007)"
           id="g20"><path
             id="path22"
             style="fill:#595e63;fill-opacity:1;fill-rule:nonzero;stroke:none"
             d="m 0,0 c -0.433,0.642 -0.639,1.56 -0.613,2.729 0.025,1.17 0.3,2.124 0.819,2.835 0.547,0.75 1.264,1.315 2.194,1.728 0.994,0.442 2.167,0.737 3.487,0.877 0.861,0.092 1.757,0.138 2.665,0.138 0.196,0 0.394,-0.002 0.594,-0.006 V -2.472 H 6.458 c -0.681,0 -1.48,0.066 -2.374,0.196 -0.829,0.12 -1.628,0.37 -2.376,0.745 C 1.021,-1.188 0.462,-0.687 0,0 m 14.139,16.528 c -0.893,1.228 -2.025,2.171 -3.363,2.805 -1.271,0.602 -2.627,1 -4.032,1.185 -1.337,0.174 -2.504,0.263 -3.47,0.263 h -5.432 v -4.175 h 4.233 c 0.68,0 1.479,-0.066 2.374,-0.196 C 5.276,16.29 6.075,16.04 6.824,15.666 7.511,15.321 8.071,14.82 8.533,14.135 8.84,13.679 9.033,13.083 9.11,12.349 7.533,12.398 5.966,12.355 4.42,12.218 2.407,12.039 0.563,11.608 -1.061,10.936 -2.75,10.236 -4.156,9.218 -5.24,7.911 -6.375,6.541 -6.968,4.765 -7.001,2.645 c -0.036,-1.356 0.165,-2.563 0.596,-3.588 0.426,-1.009 0.996,-1.877 1.698,-2.578 0.698,-0.699 1.521,-1.26 2.444,-1.667 0.859,-0.38 1.748,-0.682 2.64,-0.896 0.884,-0.214 1.776,-0.355 2.65,-0.421 0.835,-0.064 1.586,-0.096 2.231,-0.096 H 15.489 V 11.5 c 0.034,2.059 -0.419,3.751 -1.35,5.028" /></g><g
           transform="translate(47.6543,32.5002)"
           id="g24"><path
             id="path26"
             style="fill:#595e63;fill-opacity:1;fill-rule:nonzero;stroke:none"
             d="m 0,0 c -0.432,0.642 -0.638,1.56 -0.613,2.754 v 8.698 c -0.025,1.168 0.181,2.087 0.613,2.73 0.462,0.685 1.021,1.186 1.709,1.53 0.748,0.374 1.547,0.625 2.376,0.745 0.895,0.13 1.694,0.196 2.374,0.196 H 9.146 V -2.472 H 6.459 c -0.682,0 -1.481,0.066 -2.374,0.196 -0.83,0.12 -1.629,0.371 -2.377,0.745 C 1.021,-1.187 0.462,-0.687 0,0 M 9.146,30.257 V 20.782 H 5.258 C 4.263,20.782 3.081,20.693 1.742,20.518 0.335,20.334 -1.015,19.934 -2.27,19.331 -3.586,18.7 -4.713,17.77 -5.618,16.567 -6.572,15.303 -7.037,13.614 -7.002,11.566 V 2.635 c -0.035,-2.068 0.43,-3.757 1.383,-5.02 0.906,-1.203 2.033,-2.133 3.348,-2.765 1.259,-0.604 2.609,-1.003 4.013,-1.187 C 3.076,-6.512 4.259,-6.6 5.258,-6.6 h 10.278 v 36.857 z" /></g><g
           transform="translate(97.1643,44.9603)"
           id="g28"><path
             id="path30"
             style="fill:#595e63;fill-opacity:1;fill-rule:nonzero;stroke:none"
             d="M 0,0 C 0,1.427 0.36,2.574 1.099,3.508 1.781,4.367 2.774,4.786 4.136,4.79 4.919,4.788 5.572,4.648 6.128,4.363 6.539,4.15 6.879,3.87 7.166,3.508 L 7.271,3.381 C 7.945,2.471 8.273,1.364 8.273,0 v -19.06 h 6.409 V 0 c 0,1.427 0.36,2.574 1.099,3.508 0.685,0.863 1.67,1.283 3.013,1.283 1.37,0 2.37,-0.42 3.054,-1.283 0.74,-0.934 1.1,-2.081 1.1,-3.508 v -19.06 h 6.408 v 18.609 c 0,1.497 -0.321,2.867 -0.956,4.073 C 27.788,4.784 26.974,5.781 25.984,6.585 25.01,7.374 23.88,7.979 22.623,8.381 19.924,9.238 16.897,9.153 14.268,8.122 13.224,7.712 12.279,7.153 11.457,6.459 10.701,7.1 9.841,7.627 8.898,8.026 L 8.901,8.035 8.68,8.122 C 7.25,8.683 5.731,8.967 4.128,8.967 H 4.119 C 2.815,8.964 1.538,8.766 0.324,8.38 -0.933,7.979 -2.063,7.374 -3.035,6.585 -4.028,5.781 -4.841,4.784 -5.452,3.621 -6.087,2.415 -6.409,1.045 -6.409,-0.451 V -19.06 H 0 Z" /></g><g
           transform="translate(72.7737,46.4277)"
           id="g32"><path
             id="path34"
             style="fill:#595e63;fill-opacity:1;fill-rule:nonzero;stroke:none"
             d="m 0,0 c 0.23,0.691 0.557,1.298 0.973,1.803 0.403,0.488 0.892,0.862 1.495,1.146 0.599,0.28 1.282,0.422 2.031,0.422 0.63,0 1.267,-0.116 1.89,-0.344 C 6.997,2.803 7.544,2.469 8.015,2.037 8.477,1.611 8.841,1.084 9.098,0.473 9.351,-0.13 9.454,-0.842 9.404,-1.634 9.402,-1.668 9.383,-2.163 9.294,-2.731 9.167,-3.454 8.925,-4.075 8.564,-4.571 8.017,-5.321 7.299,-5.886 6.37,-6.3 5.376,-6.741 4.202,-7.036 2.883,-7.177 2.022,-7.268 1.126,-7.315 0.218,-7.315 c -0.131,0 -0.37,0.001 -0.576,0.003 v 4.997 C -0.358,-1.49 -0.237,-0.711 0,0 m 15.516,-1.789 c 10e-4,0.046 0.006,0.09 0.007,0.137 h -0.005 c 0.014,1.387 -0.277,2.663 -0.875,3.793 -0.633,1.194 -1.498,2.2 -2.569,2.991 C 11.036,5.898 9.842,6.491 8.526,6.896 7.223,7.297 5.868,7.5 4.499,7.5 2.754,7.5 1.17,7.206 -0.211,6.627 -1.602,6.042 -2.798,5.22 -3.764,4.185 -4.725,3.155 -5.472,1.923 -5.985,0.522 -6.49,-0.858 -6.747,-2.372 -6.747,-3.976 l 10e-4,-7.307 c -0.036,-1.359 0.166,-2.561 0.599,-3.57 0.425,-0.991 0.995,-1.849 1.695,-2.549 0.693,-0.692 1.509,-1.259 2.429,-1.683 0.865,-0.399 1.759,-0.711 2.655,-0.926 0.884,-0.214 1.768,-0.355 2.625,-0.421 0.822,-0.064 1.581,-0.096 2.257,-0.096 h 6.612 v 4.129 H 6.714 c -0.687,0 -1.483,0.059 -2.367,0.175 -0.808,0.106 -1.59,0.341 -2.321,0.7 -0.684,0.336 -1.249,0.817 -1.727,1.471 -0.306,0.42 -0.506,0.969 -0.598,1.641 -0.026,0.257 -0.052,0.653 -0.071,1.056 1.576,-0.05 2.926,-0.006 4.472,0.131 2.013,0.179 3.857,0.61 5.481,1.282 1.689,0.7 3.095,1.717 4.179,3.025 0.885,1.069 1.436,2.387 1.653,3.921 0.056,0.325 0.088,0.657 0.098,0.997 0.003,0.071 10e-4,0.141 0.003,0.211" /></g><g
           transform="translate(97.4514,88.8879)"
           id="g36"><path
             id="path38"
             style="fill:#70ceb6;fill-opacity:1;fill-rule:nonzero;stroke:none"
             d="M 0,0 C 3.452,1.616 7.152,3.007 10.999,4.135 16.793,5.833 22.856,6.932 29.102,7.42 V 25.88 C 21.085,25.356 13.281,23.993 5.819,21.806 -3.761,18.997 -12.407,14.948 -19.877,9.771 -22.522,7.938 -25.002,5.968 -27.285,3.89 -20.688,1.496 -14.624,-1.559 -9.194,-5.231 -6.388,-3.303 -3.296,-1.543 0,0" /></g></g></g><g
       id="g40"><g
         id="g42"><g
           id="g48"><g
             id="g50"><path
               id="path62"
               style="fill:url(#linearGradient60);stroke:none"
               d="m 40.664,80.166 c 5.96,-0.357 11.751,-1.3 17.292,-2.817 v 0 c 0.462,0.866 0.952,1.723 1.469,2.571 v 0 c 2.176,3.565 4.851,6.985 7.95,10.164 v 0 c 0.893,0.916 1.825,1.814 2.791,2.693 v 0 c -1.849,0.672 -3.739,1.291 -5.668,1.856 v 0 c -7.622,2.234 -15.616,3.565 -23.834,3.974 v 0 z" /></g></g></g></g><g
       id="g64"><g
         clip-path="url(#clipPath70)"
         id="g66"><g
           transform="translate(67.375,90.0839)"
           id="g72"><path
             id="path74"
             style="fill:#588782;fill-opacity:1;fill-rule:nonzero;stroke:none"
             d="m 0,0 c -3.099,-3.179 -5.774,-6.599 -7.95,-10.164 -0.517,-0.847 -1.007,-1.705 -1.469,-2.571 0.455,-0.125 0.909,-0.253 1.361,-0.386 5.783,-1.695 11.067,-3.958 15.761,-6.745 0.022,0.036 0.043,0.073 0.065,0.109 1.458,2.389 3.281,4.711 5.418,6.903 2.182,2.239 4.706,4.357 7.503,6.295 0.064,0.044 0.129,0.088 0.194,0.132 C 15.452,-2.755 9.389,0.3 2.791,2.694 1.825,1.814 0.893,0.916 0,0" /></g></g></g></g></svg>