<?xml version="1.0" encoding="UTF-8" standalone="no"?>
<!DOCTYPE svg PUBLIC "-//W3C//DTD SVG 1.1//EN" "http://www.w3.org/Graphics/SVG/1.1/DTD/svg11.dtd">
<svg version="1.1" xmlns="http://www.w3.org/2000/svg" xmlns:xlink="http://www.w3.org/1999/xlink" preserveAspectRatio="xMidYMid meet" viewBox="0 0 186 149" width="186" height="149"><defs><path d="M151.76 34.1C151.76 34.1 151.76 34.1 151.76 34.1C151.76 82.31 151.76 109.09 151.76 114.45C151.76 114.45 151.76 114.45 151.76 114.45C81.25 114.45 42.07 114.45 34.24 114.45C34.24 114.45 34.24 114.45 34.24 114.45C34.24 66.24 34.24 39.45 34.24 34.1C34.24 34.1 34.24 34.1 34.24 34.1C104.75 34.1 143.93 34.1 151.76 34.1Z" id="a1oaSfbmMw"></path><path d="M148.83 37.03C148.83 37.03 148.83 37.03 148.83 37.03C148.83 81.64 148.83 106.42 148.83 111.38C148.83 111.38 148.83 111.38 148.83 111.38C81.92 111.38 44.75 111.38 37.31 111.38C37.31 111.38 37.31 111.38 37.31 111.38C37.31 66.77 37.31 41.99 37.31 37.03C37.31 37.03 37.31 37.03 37.31 37.03C104.22 37.03 141.39 37.03 148.83 37.03Z" id="d2hXLBgBGa"></path><path d="M93.91 48.21L96.84 48.21L94.47 49.89L95.45 52.82L92.93 51.01L90.55 52.82L91.53 49.89L89.02 48.21L92.09 48.21L92.93 45.28L93.91 48.21Z" id="b708ZRtoBq"></path><path d="M93.91 97.82L96.84 97.82L94.47 99.5L95.45 102.43L92.93 100.62L90.55 102.43L91.53 99.5L89.02 97.82L92.09 97.82L92.93 94.89L93.91 97.82Z" id="asxu4KTQv"></path><path d="M81.61 51.43L84.55 51.43L82.17 53.24L83.01 56.04L80.63 54.36L78.26 56.04L79.1 53.24L76.72 51.43L79.65 51.43L80.63 48.63L81.61 51.43Z" id="fgENFa9wc"></path><path d="M72.53 60.65L75.46 60.65L73.09 62.33L73.92 65.26L71.55 63.44L69.17 65.26L70.01 62.33L67.64 60.65L70.57 60.65L71.55 57.71L72.53 60.65Z" id="a2cHsa6xNd"></path><path d="M69.17 72.95L72.11 72.95L69.73 74.76L70.57 77.56L68.2 75.74L65.82 77.56L66.66 74.76L64.28 72.95L67.36 72.95L68.2 70.15L69.17 72.95Z" id="h1ikYdoyp2"></path><path d="M72.39 85.38L75.46 85.38L72.95 87.06L73.92 90L71.55 88.18L69.03 90L70.01 87.06L67.64 85.38L70.57 85.38L71.55 82.45L72.39 85.38Z" id="f5aiLeoF9s"></path><path d="M81.61 94.47L84.55 94.47L82.17 96.14L83.01 99.08L80.63 97.26L78.26 99.08L79.1 96.14L76.72 94.47L79.65 94.47L80.63 91.53L81.61 94.47Z" id="a2TBwufJPE"></path><path d="M104.39 51.43L101.31 51.43L103.83 53.24L102.85 56.04L105.37 54.36L107.74 56.04L106.76 53.24L109.28 51.43L106.21 51.43L105.37 48.63L104.39 51.43Z" id="c7fFByBuij"></path><path d="M113.47 60.65L110.54 60.65L112.91 62.33L111.94 65.26L114.45 63.44L116.83 65.26L115.85 62.33L118.36 60.65L115.29 60.65L114.45 57.71L113.47 60.65Z" id="cqXZEUNfe"></path><path d="M116.83 72.95L113.89 72.95L116.27 74.76L115.29 77.56L117.8 75.74L120.18 77.56L119.2 74.76L121.72 72.95L118.64 72.95L117.8 70.15L116.83 72.95Z" id="bZLlQo3R"></path><path d="M113.47 85.38L110.54 85.38L112.91 87.06L112.08 90L114.45 88.18L116.83 90L115.99 87.06L118.36 85.38L115.29 85.38L114.45 82.45L113.47 85.38Z" id="c73c899r7P"></path><path d="M104.39 94.47L101.31 94.47L103.83 96.14L102.85 99.08L105.37 97.26L107.74 99.08L106.76 96.14L109.28 94.47L106.21 94.47L105.37 91.53L104.39 94.47Z" id="d38nHH6h33"></path><path d="M93.77 0.02L94.19 0.05L94.6 0.09L95.02 0.14L95.43 0.21L95.85 0.28L96.26 0.36L96.67 0.45L97.08 0.55L97.49 0.66L97.9 0.78L98.31 0.9L98.71 1.04L99.12 1.18L99.52 1.33L99.92 1.48L100.32 1.65L100.71 1.82L101.11 1.99L101.5 2.17L101.89 2.36L102.27 2.55L102.66 2.75L103.04 2.95L103.42 3.15L103.8 3.36L104.18 3.57L104.55 3.79L104.92 4.01L105.28 4.23L105.65 4.45L106.01 4.68L106.37 4.91L106.72 5.14L107.07 5.37L107.42 5.6L107.76 5.83L108.1 6.06L108.44 6.29L108.81 6.55L109.17 6.81L109.54 7.08L109.9 7.34L110.26 7.61L110.62 7.88L110.98 8.15L111.34 8.42L111.7 8.69L112.06 8.96L112.41 9.23L112.77 9.51L113.12 9.78L113.47 10.06L113.83 10.34L114.18 10.61L114.53 10.89L114.87 11.17L115.22 11.46L115.57 11.74L115.91 12.02L116.26 12.31L116.6 12.59L116.94 12.88L117.28 13.17L117.63 13.46L117.96 13.75L118.3 14.04L118.64 14.33L118.98 14.62L119.31 14.91L119.64 15.21L119.98 15.51L120.31 15.8L120.64 16.1L120.97 16.4L121.3 16.7L121.62 17L121.95 17.3L122.28 17.61L122.51 17.82L122.74 18.03L122.97 18.24L123.2 18.45L123.43 18.66L123.66 18.87L123.89 19.09L124.12 19.3L124.35 19.51L124.58 19.73L124.81 19.94L125.04 20.16L125.27 20.37L125.5 20.59L125.74 20.8L125.97 21.02L126.2 21.24L126.43 21.45L126.66 21.67L126.89 21.89L127.12 22.11L127.35 22.32L127.58 22.54L127.81 22.76L128.04 22.98L128.27 23.2L128.5 23.42L128.73 23.63L128.96 23.85L129.19 24.07L129.42 24.29L129.65 24.51L129.89 24.73L130.12 24.95L130.35 25.17L130.58 25.39L130.81 25.61L131.04 25.83L131.27 26.05L131.5 26.27L135.41 30.18L138.91 33.54L138.91 33.55L138.91 33.56L138.91 33.57L138.91 33.58L138.91 33.58L138.91 33.59L138.92 33.6L138.92 33.61L138.92 33.61L138.92 33.62L138.93 33.63L138.93 33.63L138.94 33.64L138.94 33.65L138.94 33.65L138.94 33.66L138.94 33.66L138.94 33.66L138.94 33.67L138.94 33.67L138.94 33.67L138.93 33.67L138.93 33.67L138.93 33.67L138.92 33.67L138.91 33.68L138.91 33.68L138.9 33.68L138.89 33.68L138.88 33.68L138.87 33.68L138.85 33.68L138.84 33.68L138.82 33.68L138.81 33.68L138.77 33.68L138.77 33.69L138.77 33.7L138.76 33.71L138.76 33.72L138.76 33.73L138.76 33.74L138.75 33.75L138.75 33.76L138.75 33.77L138.74 33.78L138.74 33.79L138.73 33.8L138.73 33.81L138.72 33.82L138.71 33.83L138.71 33.84L138.7 33.85L138.69 33.85L138.69 33.86L138.68 33.87L138.67 33.88L138.66 33.89L138.65 33.89L138.65 33.9L138.64 33.91L138.63 33.91L138.62 33.92L138.61 33.92L138.6 33.93L138.59 33.93L138.58 33.94L138.57 33.94L138.56 33.95L138.55 33.95L138.54 33.95L138.53 33.95L138.52 33.96L138.51 33.96L138.5 33.96L138.49 33.96L138.35 33.96L138.26 33.92L138.18 33.88L138.09 33.83L138.01 33.79L137.92 33.75L137.84 33.72L137.75 33.68L137.66 33.64L137.57 33.6L137.48 33.56L137.4 33.53L137.31 33.49L137.22 33.45L137.13 33.42L137.04 33.38L136.95 33.35L136.86 33.31L136.77 33.28L136.67 33.24L136.58 33.21L136.49 33.17L136.4 33.14L136.31 33.11L136.21 33.07L136.12 33.04L136.03 33.01L135.94 32.97L135.84 32.94L135.75 32.91L135.65 32.88L135.56 32.85L135.47 32.81L135.37 32.78L135.28 32.75L135.19 32.72L135.09 32.69L135 32.65L134.9 32.62L134.81 32.59L134.71 32.56L133.7 32.24L132.67 31.94L131.63 31.64L130.57 31.36L129.5 31.09L128.42 30.84L127.33 30.59L126.24 30.36L125.13 30.14L124.02 29.92L122.9 29.72L121.78 29.53L120.65 29.35L119.52 29.18L118.39 29.02L117.26 28.87L116.13 28.73L115 28.59L113.88 28.47L112.76 28.35L111.64 28.24L110.53 28.14L109.43 28.05L108.33 27.96L107.25 27.88L106.17 27.81L105.11 27.75L104.06 27.69L103.02 27.64L101.99 27.59L100.99 27.55L99.99 27.51L99.02 27.48L98.07 27.46L97.13 27.43L96.22 27.42L95.32 27.41L94.46 27.4L93.61 27.39L92.79 27.39L91.97 27.39L91.13 27.4L90.26 27.41L89.36 27.42L88.45 27.43L87.51 27.46L86.56 27.48L85.59 27.51L84.59 27.55L83.59 27.59L82.56 27.64L81.53 27.69L80.47 27.75L79.41 27.81L78.33 27.88L77.25 27.96L76.15 28.05L75.05 28.14L73.94 28.24L72.82 28.35L71.7 28.47L70.58 28.59L69.45 28.73L68.32 28.87L67.19 29.02L66.06 29.18L64.93 29.35L63.8 29.53L62.68 29.72L61.56 29.92L60.45 30.14L59.35 30.36L58.25 30.59L57.16 30.84L56.08 31.09L55.01 31.36L53.95 31.64L52.91 31.94L51.88 32.24L50.87 32.56L50.77 32.59L50.68 32.62L50.59 32.65L50.49 32.69L50.4 32.72L50.31 32.75L50.22 32.78L50.13 32.81L50.04 32.85L49.95 32.88L49.86 32.91L49.77 32.94L49.68 32.97L49.59 33.01L49.5 33.04L49.41 33.07L49.32 33.11L49.23 33.14L49.14 33.17L49.05 33.21L48.96 33.24L48.87 33.28L48.78 33.31L48.69 33.35L48.6 33.38L48.51 33.42L48.43 33.45L48.34 33.49L48.25 33.53L48.16 33.56L48.06 33.6L47.97 33.64L47.88 33.68L47.79 33.72L47.7 33.75L47.61 33.79L47.51 33.83L47.42 33.88L47.33 33.92L47.23 33.96L47.09 33.96L46.95 33.82L46.94 33.82L46.93 33.82L46.93 33.82L46.92 33.81L46.91 33.81L46.9 33.81L46.89 33.81L46.89 33.8L46.88 33.8L46.88 33.79L46.87 33.79L46.87 33.78L46.86 33.78L46.86 33.77L46.86 33.77L46.85 33.76L46.85 33.75L46.85 33.75L46.85 33.74L46.85 33.73L46.85 33.72L46.85 33.71L46.85 33.71L46.85 33.7L46.86 33.69L46.86 33.68L46.86 33.67L46.87 33.66L46.87 33.65L46.88 33.64L46.88 33.63L46.89 33.62L46.89 33.61L46.9 33.6L46.91 33.59L46.92 33.58L46.93 33.57L46.93 33.56L46.94 33.55L46.95 33.54L50.45 30.18L50.52 30.1L50.6 30.02L50.67 29.93L50.75 29.85L50.83 29.76L50.92 29.67L51 29.58L51.08 29.5L51.17 29.41L51.26 29.32L51.34 29.23L51.43 29.14L51.52 29.05L51.62 28.95L51.71 28.86L51.8 28.77L51.9 28.67L52 28.58L52.1 28.48L52.19 28.39L52.29 28.29L52.4 28.19L52.5 28.09L52.6 27.99L52.7 27.89L52.92 27.69L53.02 27.58L53.13 27.48L53.24 27.37L53.35 27.27L53.46 27.16L53.57 27.05L53.68 26.95L53.79 26.84L53.9 26.72L54.02 26.61L54.13 26.5L54.25 26.39L54.36 26.27L54.59 26.05L54.82 25.83L55.05 25.61L55.28 25.39L55.51 25.17L55.74 24.95L55.97 24.73L56.21 24.51L56.44 24.29L56.67 24.07L56.9 23.85L57.13 23.63L57.36 23.42L57.59 23.2L57.82 22.98L58.05 22.76L58.28 22.54L58.51 22.32L58.74 22.11L58.97 21.89L59.2 21.67L59.43 21.45L59.66 21.24L59.89 21.02L60.13 20.8L60.36 20.59L60.59 20.37L60.82 20.16L61.05 19.94L61.28 19.73L61.51 19.51L61.74 19.3L61.97 19.09L62.2 18.87L62.43 18.66L62.66 18.45L62.89 18.24L63.12 18.03L63.35 17.82L63.58 17.61L63.91 17.3L64.24 17L64.56 16.7L64.89 16.4L65.22 16.1L65.55 15.8L65.88 15.51L66.22 15.21L66.55 14.91L66.89 14.62L67.22 14.33L67.56 14.04L67.9 13.75L68.24 13.46L68.58 13.17L68.92 12.88L69.26 12.59L69.6 12.31L69.95 12.02L70.29 11.74L70.64 11.46L70.99 11.17L71.33 10.89L71.68 10.61L72.03 10.34L72.39 10.06L72.74 9.78L73.09 9.51L73.45 9.23L73.8 8.96L74.16 8.69L74.52 8.42L74.88 8.15L75.24 7.88L75.6 7.61L75.96 7.34L76.32 7.08L76.69 6.81L77.05 6.55L77.42 6.29L77.76 6.07L78.1 5.85L78.44 5.62L78.79 5.4L79.14 5.18L79.49 4.95L79.85 4.73L80.21 4.51L80.58 4.29L80.94 4.07L81.31 3.85L81.68 3.64L82.06 3.42L82.44 3.21L82.82 3.01L83.2 2.81L83.59 2.61L83.97 2.42L84.36 2.23L84.76 2.04L85.15 1.87L85.55 1.69L85.94 1.53L86.34 1.37L86.74 1.22L87.15 1.07L87.55 0.93L87.96 0.8L88.37 0.68L88.78 0.57L89.19 0.47L89.6 0.37L90.01 0.29L90.43 0.21L90.84 0.15L91.26 0.1L91.68 0.06L92.09 0.02L92.51 0.01L92.93 0L93.35 0.01L93.77 0.02ZM90.77 21.29L89.59 21.36L88.4 21.44L87.2 21.55L85.99 21.69L84.76 21.84L83.53 22.02L82.28 22.22L81.03 22.44L79.77 22.68L78.5 22.94L77.23 23.21L75.95 23.51L74.67 23.82L73.39 24.15L72.11 24.49L70.83 24.85L69.54 25.22L68.27 25.61L66.99 26.01L65.72 26.42L64.45 26.85L63.19 27.29L61.94 27.73L60.69 28.19L59.46 28.66L58.23 29.14L57.01 29.62L55.81 30.11L54.62 30.61L53.45 31.12L52.29 31.63L51.15 32.14L51.55 32.01L52 31.87L52.51 31.72L53.06 31.57L53.67 31.42L54.32 31.26L55.03 31.1L55.78 30.93L56.59 30.75L57.44 30.57L58.35 30.39L59.3 30.2L60.31 30L61.37 29.8L62.48 29.6L63.63 29.39L64.84 29.17L66.1 28.95L67.41 28.73L68.77 28.5L70.18 28.26L71.64 28.02L73.14 27.77L74.7 27.52L76.32 27.27L77.98 27.01L79.69 26.74L81.45 26.47L83.26 26.19L85.12 25.91L87.03 25.62L88.99 25.33L91.01 25.04L93.07 24.73L94.48 24.75L95.92 24.79L97.36 24.85L98.82 24.93L100.28 25.04L101.75 25.16L103.23 25.31L104.7 25.47L106.17 25.65L107.64 25.84L109.11 26.05L110.56 26.28L112 26.51L113.43 26.76L114.84 27.01L116.23 27.28L117.6 27.55L118.94 27.82L120.25 28.11L121.54 28.39L122.8 28.68L124.02 28.97L125.2 29.26L126.34 29.55L127.44 29.84L128.49 30.12L129.5 30.4L130.45 30.68L131.36 30.95L132.21 31.21L133 31.46L133.73 31.7L134.39 31.92L134.99 32.14L133.85 31.63L132.69 31.12L131.52 30.61L130.33 30.11L129.12 29.62L127.91 29.14L126.68 28.66L125.45 28.19L124.2 27.73L122.95 27.29L121.69 26.85L120.42 26.42L119.15 26.01L117.87 25.61L116.59 25.22L115.31 24.85L114.03 24.49L112.75 24.15L111.47 23.82L110.19 23.51L108.91 23.21L107.64 22.94L106.37 22.68L105.11 22.44L103.86 22.22L102.61 22.02L101.38 21.84L100.15 21.69L98.94 21.55L97.74 21.44L96.55 21.36L95.37 21.29L94.21 21.25L93.07 21.24L91.93 21.25L90.77 21.29ZM91.97 15.12L91.48 15.15L90.97 15.19L90.46 15.24L89.94 15.3L89.4 15.37L88.86 15.46L88.31 15.55L87.76 15.65L87.19 15.76L86.63 15.88L86.05 16.01L85.48 16.14L84.89 16.28L84.31 16.43L83.72 16.59L83.13 16.75L82.54 16.92L81.95 17.1L81.35 17.28L80.76 17.46L80.17 17.65L79.58 17.85L78.99 18.04L78.4 18.25L77.82 18.45L77.24 18.66L76.66 18.87L76.09 19.09L75.53 19.3L74.97 19.52L74.42 19.74L73.87 19.96L73.34 20.18L72.81 20.4L72.17 20.67L71.53 20.94L70.89 21.22L70.25 21.5L69.61 21.78L68.98 22.07L68.34 22.36L67.71 22.65L67.07 22.94L66.44 23.24L65.81 23.54L65.18 23.84L64.55 24.15L63.92 24.46L63.29 24.77L62.67 25.09L62.04 25.41L61.42 25.73L60.8 26.06L60.17 26.38L59.55 26.71L58.94 27.05L58.32 27.38L57.7 27.72L57.09 28.06L56.48 28.41L55.87 28.75L55.26 29.1L54.65 29.46L54.04 29.81L53.44 30.17L52.84 30.53L52.24 30.9L51.64 31.26L51.04 31.63L50.45 32L51 31.75L51.54 31.49L52.09 31.24L52.64 30.98L53.18 30.73L53.73 30.48L54.28 30.23L54.83 29.98L55.38 29.73L55.92 29.48L56.47 29.23L57.02 28.98L57.57 28.74L58.12 28.49L58.67 28.25L59.22 28.01L59.77 27.77L60.32 27.53L60.87 27.29L61.42 27.05L61.97 26.82L62.52 26.59L63.07 26.35L63.63 26.12L64.18 25.89L64.73 25.66L65.28 25.44L65.84 25.21L66.39 24.99L66.95 24.77L67.5 24.55L68.06 24.33L68.62 24.11L69.17 23.9L69.73 23.69L70.29 23.48L70.9 23.24L71.51 23L72.12 22.77L72.73 22.55L73.34 22.33L73.96 22.12L74.58 21.91L75.2 21.71L75.82 21.51L76.44 21.33L77.06 21.14L77.69 20.97L78.31 20.8L78.94 20.63L79.57 20.47L80.2 20.32L80.84 20.18L81.47 20.04L82.11 19.9L82.74 19.77L83.38 19.65L84.02 19.54L84.66 19.43L85.3 19.33L85.94 19.23L86.59 19.14L87.23 19.06L87.88 18.98L88.52 18.91L89.17 18.84L89.82 18.78L90.47 18.73L91.12 18.68L91.77 18.65L92.42 18.61L93.07 18.59L93.5 18.6L93.95 18.63L94.4 18.66L94.87 18.7L95.35 18.74L95.83 18.8L96.33 18.85L96.84 18.92L97.37 18.99L97.9 19.06L98.45 19.15L99 19.24L99.57 19.33L100.15 19.44L100.74 19.55L101.34 19.66L101.95 19.78L102.57 19.91L103.21 20.05L103.85 20.19L104.51 20.34L105.18 20.49L105.86 20.65L106.55 20.82L107.25 21L107.96 21.18L108.69 21.36L109.42 21.56L110.17 21.76L110.93 21.96L111.7 22.18L112.48 22.4L113.27 22.62L114.07 22.85L114.88 23.09L115.71 23.34L116.28 23.55L116.85 23.76L117.41 23.97L117.98 24.19L118.55 24.41L119.11 24.63L119.67 24.85L120.23 25.07L120.79 25.3L121.35 25.53L121.91 25.76L122.46 25.99L123.02 26.22L123.57 26.45L124.12 26.69L124.67 26.93L125.22 27.17L125.77 27.41L126.32 27.65L126.86 27.89L127.41 28.14L127.95 28.39L128.49 28.64L129.03 28.89L129.57 29.14L130.11 29.39L130.64 29.65L131.18 29.9L131.71 30.16L132.24 30.42L132.78 30.68L133.31 30.94L133.83 31.2L134.36 31.47L134.89 31.73L135.41 32L134.82 31.63L134.22 31.26L133.62 30.9L133.02 30.53L132.42 30.17L131.82 29.81L131.21 29.46L130.6 29.1L129.99 28.75L129.38 28.41L128.77 28.06L128.16 27.72L127.54 27.38L126.92 27.05L126.31 26.71L125.69 26.38L125.06 26.06L124.44 25.73L123.82 25.41L123.19 25.09L122.57 24.77L121.94 24.46L121.31 24.15L120.68 23.84L120.05 23.54L119.42 23.24L118.79 22.94L118.15 22.65L117.52 22.36L116.88 22.07L116.25 21.78L115.61 21.5L114.97 21.22L114.33 20.94L113.69 20.67L113.05 20.4L112.52 20.18L111.99 19.96L111.44 19.74L110.89 19.52L110.33 19.3L109.77 19.09L109.2 18.87L108.62 18.66L108.04 18.45L107.46 18.25L106.87 18.04L106.28 17.85L105.69 17.65L105.1 17.46L104.51 17.28L103.91 17.1L103.32 16.92L102.73 16.75L102.14 16.59L101.55 16.43L100.97 16.28L100.38 16.14L99.81 16.01L99.23 15.88L98.67 15.76L98.1 15.65L97.55 15.55L97 15.46L96.46 15.37L95.92 15.3L95.4 15.24L94.89 15.19L94.38 15.15L93.89 15.12L93.4 15.1L92.93 15.09L92.46 15.1L91.97 15.12ZM92.56 8.68L92.04 8.72L91.5 8.78L90.97 8.85L90.42 8.94L89.87 9.04L89.32 9.16L88.76 9.29L88.2 9.43L87.63 9.59L87.07 9.75L86.5 9.93L85.94 10.11L85.38 10.3L84.82 10.5L84.27 10.7L83.72 10.91L83.18 11.12L82.64 11.34L82.11 11.56L81.59 11.78L81.08 12L80.59 12.22L80.1 12.44L79.62 12.66L79.16 12.88L78.72 13.09L78.29 13.3L77.87 13.5L77.47 13.7L77.1 13.89L76.74 14.07L76.4 14.24L76.08 14.41L75.78 14.56L75.51 14.71L75.27 14.84L75.04 14.95L74.65 15.17L74.25 15.4L73.86 15.62L73.46 15.84L73.07 16.06L72.68 16.29L72.29 16.51L71.9 16.74L71.51 16.96L71.13 17.19L70.74 17.42L70.36 17.65L69.97 17.88L69.59 18.11L69.21 18.34L68.83 18.57L68.45 18.8L68.07 19.03L67.69 19.27L67.31 19.5L66.93 19.74L66.56 19.97L66.18 20.21L65.81 20.45L65.44 20.69L65.06 20.93L64.69 21.17L64.32 21.41L63.95 21.66L63.58 21.9L63.21 22.15L62.84 22.39L62.48 22.64L62.11 22.89L61.74 23.14L61.38 23.39L61.01 23.64L60.65 23.9L60.33 24.13L60.02 24.36L59.7 24.58L59.39 24.8L59.09 25.03L58.78 25.24L58.48 25.46L58.19 25.68L57.89 25.89L57.6 26.1L57.32 26.3L57.03 26.51L56.75 26.71L56.48 26.91L56.2 27.11L55.93 27.31L55.67 27.5L55.41 27.69L55.15 27.88L54.89 28.07L54.64 28.25L54.39 28.43L54.15 28.61L53.91 28.79L53.68 28.96L53.45 29.13L53.22 29.31L53 29.47L52.78 29.64L52.56 29.8L52.35 29.96L52.15 30.12L51.95 30.28L51.75 30.43L51.56 30.58L51.37 30.73L51.19 30.88L51.01 31.02L50.17 31.72L50.8 31.31L51.43 30.91L52.06 30.51L52.69 30.1L53.32 29.7L53.95 29.3L54.59 28.91L55.22 28.51L55.86 28.12L56.49 27.73L57.13 27.34L57.77 26.95L58.4 26.56L59.04 26.18L59.68 25.79L60.33 25.41L60.97 25.03L61.61 24.66L62.26 24.28L62.9 23.91L63.55 23.53L64.2 23.16L64.85 22.79L65.5 22.43L66.15 22.06L66.8 21.7L67.46 21.34L68.12 20.98L68.77 20.62L69.43 20.26L70.09 19.9L70.76 19.55L71.42 19.2L72.09 18.85L72.75 18.5L73.42 18.16L74.09 17.81L74.76 17.47L75.21 17.25L75.66 17.03L76.12 16.81L76.58 16.6L77.05 16.39L77.52 16.18L78 15.98L78.48 15.78L78.97 15.58L79.46 15.38L79.95 15.19L80.45 15.01L80.95 14.83L81.45 14.65L81.95 14.47L82.46 14.31L82.96 14.14L83.46 13.99L83.97 13.83L84.47 13.69L84.98 13.55L85.48 13.41L85.98 13.29L86.48 13.17L86.98 13.05L87.47 12.95L87.97 12.85L88.45 12.76L88.94 12.67L89.42 12.6L89.89 12.53L90.37 12.47L90.83 12.42L91.29 12.37L91.75 12.34L92.19 12.32L92.64 12.3L93.07 12.3L93.36 12.3L93.66 12.31L93.98 12.33L94.3 12.35L94.63 12.39L94.98 12.43L95.33 12.47L95.69 12.53L96.07 12.59L96.45 12.66L96.85 12.73L97.25 12.81L97.67 12.9L98.09 13L98.53 13.1L98.97 13.21L99.43 13.33L99.89 13.46L100.37 13.59L100.86 13.73L101.36 13.88L101.86 14.03L102.38 14.19L102.91 14.36L103.45 14.54L104 14.72L104.55 14.91L105.12 15.1L105.7 15.31L106.29 15.52L106.89 15.74L107.5 15.96L108.12 16.2L108.75 16.44L109.39 16.68L110.04 16.94L110.7 17.2L111.38 17.47L112.05 17.81L112.72 18.16L113.39 18.5L114.05 18.85L114.72 19.2L115.38 19.55L116.05 19.9L116.71 20.26L117.37 20.62L118.02 20.98L118.68 21.34L119.34 21.7L119.99 22.06L120.64 22.43L121.29 22.79L121.94 23.16L122.59 23.53L123.24 23.91L123.88 24.28L124.53 24.66L125.17 25.03L125.81 25.41L126.46 25.79L127.1 26.18L127.74 26.56L128.37 26.95L129.01 27.34L129.65 27.73L130.28 28.12L130.92 28.51L131.55 28.91L132.19 29.3L132.82 29.7L133.45 30.1L134.08 30.51L134.71 30.91L135.34 31.31L135.97 31.72L135.13 31.02L134.95 30.88L134.77 30.73L134.58 30.58L134.39 30.43L134.19 30.27L133.99 30.11L133.79 29.95L133.58 29.79L133.36 29.62L133.14 29.45L132.92 29.28L132.69 29.11L132.46 28.93L132.23 28.75L131.99 28.57L131.75 28.39L131.5 28.2L131.25 28.02L130.99 27.83L130.73 27.64L130.47 27.44L130.21 27.25L129.94 27.05L129.66 26.85L129.39 26.65L129.11 26.45L128.82 26.24L128.54 26.04L128.25 25.83L127.95 25.62L127.66 25.41L127.36 25.2L127.05 24.98L126.75 24.77L126.44 24.55L126.12 24.34L125.81 24.12L125.49 23.9L125.13 23.64L124.76 23.39L124.39 23.14L124.03 22.89L123.66 22.64L123.29 22.39L122.92 22.14L122.54 21.89L122.17 21.64L121.8 21.39L121.42 21.15L121.05 20.9L120.67 20.66L120.29 20.41L119.92 20.17L119.54 19.93L119.16 19.69L118.78 19.45L118.4 19.21L118.02 18.98L117.64 18.74L117.25 18.51L116.87 18.28L116.49 18.04L116.11 17.81L115.72 17.58L115.34 17.36L114.95 17.13L114.57 16.91L114.18 16.68L113.8 16.46L113.41 16.24L113.03 16.02L112.64 15.8L112.26 15.59L111.87 15.38L111.48 15.16L111.1 14.95L110.87 14.82L110.63 14.68L110.35 14.53L110.06 14.37L109.74 14.19L109.4 14.01L109.04 13.81L108.67 13.61L108.27 13.41L107.85 13.2L107.42 12.98L106.98 12.76L106.52 12.53L106.04 12.31L105.55 12.08L105.06 11.85L104.55 11.63L104.03 11.4L103.5 11.18L102.96 10.96L102.42 10.75L101.87 10.54L101.32 10.33L100.76 10.14L100.2 9.95L99.64 9.77L99.07 9.6L98.51 9.45L97.94 9.3L97.38 9.17L96.82 9.05L96.27 8.94L95.72 8.85L95.17 8.78L94.64 8.72L94.1 8.68L93.58 8.66L93.07 8.66L92.56 8.68ZM91.96 2.56L91.47 2.62L90.96 2.7L90.44 2.8L89.92 2.91L89.39 3.05L88.85 3.2L88.31 3.37L87.77 3.55L87.22 3.74L86.67 3.95L86.13 4.17L85.58 4.4L85.03 4.65L84.49 4.89L83.94 5.15L83.4 5.41L82.87 5.68L82.34 5.96L81.82 6.23L81.31 6.51L80.81 6.79L80.31 7.07L79.83 7.35L79.36 7.63L78.9 7.91L78.45 8.18L78.02 8.44L77.6 8.71L77.2 8.96L76.82 9.21L76.45 9.44L76.11 9.67L75.78 9.88L75.48 10.09L75.19 10.28L74.93 10.45L74.7 10.62L74.48 10.76L74.12 11.02L73.75 11.29L73.39 11.55L73.02 11.81L72.66 12.08L72.29 12.34L71.93 12.61L71.57 12.87L71.2 13.14L70.84 13.41L70.48 13.68L70.12 13.95L69.76 14.22L69.4 14.49L69.04 14.76L68.68 15.03L68.32 15.3L67.97 15.57L67.61 15.85L67.25 16.12L66.9 16.4L66.54 16.67L66.19 16.95L65.83 17.23L65.48 17.51L65.12 17.79L64.77 18.07L64.42 18.35L64.07 18.63L63.71 18.92L63.36 19.2L63.01 19.48L62.66 19.77L62.31 20.06L61.97 20.35L61.62 20.63L61.27 20.92L60.92 21.22L60.58 21.51L60.23 21.8L59.93 22.05L59.63 22.3L59.33 22.55L59.04 22.8L58.75 23.04L58.46 23.29L58.18 23.53L57.9 23.77L57.62 24.01L57.35 24.25L57.08 24.49L56.81 24.72L56.55 24.96L56.29 25.19L56.03 25.42L55.78 25.65L55.53 25.87L55.28 26.09L55.04 26.32L54.8 26.53L54.56 26.75L54.33 26.96L54.1 27.18L53.87 27.38L53.65 27.59L53.43 27.79L53.21 27.99L53 28.19L52.79 28.39L52.59 28.58L52.38 28.77L52.19 28.96L51.99 29.14L51.8 29.32L51.61 29.49L51.43 29.67L51.25 29.84L51.07 30L50.9 30.17L50.73 30.32L49.75 31.3L50.04 31.07L50.35 30.82L50.67 30.56L51.01 30.29L51.36 30.01L51.72 29.72L52.1 29.43L52.49 29.12L52.88 28.81L53.29 28.49L53.71 28.16L54.14 27.83L54.57 27.49L55.01 27.15L55.46 26.81L55.91 26.46L56.37 26.1L56.83 25.75L57.3 25.39L57.77 25.03L58.24 24.67L58.71 24.31L59.18 23.95L59.65 23.6L60.12 23.24L60.59 22.88L61.05 22.53L61.51 22.18L61.97 21.84L62.42 21.5L62.87 21.16L63.31 20.83L63.75 20.51L64.17 20.19L64.59 19.88L65 19.57L65.39 19.28L65.78 18.99L66.16 18.71L66.52 18.45L66.72 18.31L66.96 18.15L67.24 17.95L67.56 17.72L67.91 17.46L68.3 17.18L68.73 16.88L69.18 16.55L69.67 16.2L70.19 15.83L70.74 15.45L71.32 15.06L71.92 14.65L72.54 14.23L73.19 13.8L73.86 13.36L74.55 12.92L75.26 12.48L75.99 12.04L76.74 11.6L77.5 11.16L78.27 10.73L79.05 10.3L79.85 9.88L80.66 9.48L81.47 9.08L82.29 8.71L83.11 8.34L83.94 8L84.77 7.68L85.61 7.38L86.44 7.1L87.27 6.85L88.1 6.63L88.92 6.44L89.74 6.28L90.55 6.16L91.36 6.07L92.15 6.02L92.93 6.01L93.45 6.02L93.98 6.05L94.51 6.1L95.06 6.16L95.6 6.24L96.16 6.33L96.72 6.43L97.3 6.56L97.87 6.69L98.46 6.85L99.05 7.02L99.65 7.2L100.26 7.4L100.87 7.61L101.49 7.84L102.12 8.09L102.75 8.35L103.4 8.63L104.05 8.92L104.7 9.22L105.37 9.55L106.04 9.88L106.72 10.24L107.4 10.6L108.09 10.99L108.79 11.39L109.5 11.8L110.22 12.23L110.94 12.68L111.66 13.14L112.4 13.61L113.14 14.1L113.89 14.61L114.65 15.13L115.41 15.67L116.19 16.22L116.96 16.79L117.75 17.37L118.54 17.97L119.34 18.59L119.71 18.85L120.1 19.13L120.49 19.42L120.9 19.71L121.31 20.02L121.73 20.33L122.16 20.64L122.6 20.97L123.05 21.3L123.49 21.63L123.95 21.97L124.41 22.32L124.87 22.67L125.34 23.02L125.8 23.37L126.27 23.73L126.74 24.08L127.21 24.44L127.68 24.8L128.15 25.15L128.61 25.51L129.07 25.86L129.53 26.22L129.99 26.56L130.44 26.91L130.88 27.25L131.32 27.59L131.75 27.92L132.17 28.25L132.59 28.57L132.99 28.88L133.39 29.19L133.77 29.49L134.15 29.78L134.51 30.06L134.86 30.33L135.19 30.59L135.51 30.84L135.82 31.08L136.11 31.3L136.09 31.28L136.07 31.26L136.05 31.24L136.03 31.22L136.01 31.19L135.98 31.17L135.96 31.14L135.94 31.12L135.92 31.1L135.9 31.07L135.88 31.05L135.81 30.97L135.79 30.94L135.77 30.92L135.74 30.89L135.72 30.87L135.7 30.84L135.67 30.81L135.65 30.79L135.63 30.76L135.6 30.74L135.58 30.71L135.55 30.68L135.53 30.66L135.5 30.63L135.48 30.61L135.45 30.58L135.42 30.56L135.4 30.53L135.37 30.51L135.34 30.48L135.31 30.46L135.28 30.44L135.25 30.41L135.23 30.39L135.19 30.37L135.16 30.35L135.13 30.32L134.96 30.17L134.79 30L134.61 29.84L134.43 29.67L134.25 29.5L134.06 29.33L133.87 29.15L133.68 28.97L133.48 28.79L133.27 28.6L133.07 28.41L132.86 28.22L132.65 28.02L132.43 27.83L132.21 27.63L131.99 27.42L131.76 27.22L131.53 27.01L131.3 26.8L131.06 26.59L130.82 26.37L130.58 26.15L130.33 25.93L130.08 25.71L129.83 25.48L129.57 25.25L129.31 25.02L129.05 24.79L128.78 24.55L128.51 24.31L128.24 24.07L127.96 23.83L127.68 23.58L127.4 23.33L127.11 23.08L126.82 22.83L126.53 22.58L126.23 22.32L125.93 22.06L125.63 21.8L125.28 21.51L124.94 21.22L124.59 20.92L124.24 20.63L123.89 20.35L123.55 20.06L123.2 19.77L122.85 19.48L122.5 19.2L122.15 18.92L121.79 18.63L121.44 18.35L121.09 18.07L120.74 17.79L120.38 17.51L120.03 17.23L119.67 16.95L119.32 16.67L118.96 16.4L118.61 16.12L118.25 15.85L117.89 15.57L117.54 15.3L117.18 15.03L116.82 14.76L116.46 14.49L116.1 14.22L115.74 13.95L115.38 13.68L115.02 13.41L114.66 13.14L114.29 12.87L113.93 12.61L113.57 12.34L113.2 12.08L112.84 11.81L112.47 11.55L112.11 11.29L111.74 11.02L111.38 10.76L111.16 10.62L110.93 10.45L110.67 10.28L110.38 10.09L110.08 9.88L109.75 9.67L109.41 9.44L109.04 9.21L108.66 8.96L108.26 8.71L107.84 8.44L107.41 8.18L106.96 7.91L106.5 7.63L106.03 7.35L105.55 7.07L105.05 6.79L104.55 6.51L104.04 6.23L103.52 5.96L102.99 5.68L102.46 5.41L101.92 5.15L101.38 4.89L100.83 4.65L100.28 4.4L99.73 4.17L99.19 3.95L98.64 3.74L98.09 3.55L97.55 3.37L97.01 3.2L96.47 3.05L95.94 2.91L95.42 2.8L94.9 2.7L94.4 2.62L93.9 2.56L93.41 2.53L92.93 2.52L92.45 2.53L91.96 2.56Z" id="b1cM6vLzNw"></path><path d="M33.98 42.62L33.99 42.63L34 42.63L34.01 42.63L34.02 42.64L34.03 42.64L34.04 42.65L34.05 42.65L34.05 42.66L34.06 42.67L34.06 42.67L34.07 42.68L34.07 42.69L34.08 42.7L34.08 42.71L34.08 42.72L34.09 42.73L34.09 42.74L34.09 42.75L34.09 42.76L34.09 42.77L34.09 42.79L34.1 42.8L34.1 42.81L34.1 42.82L34.1 42.84L34.1 42.85L34.1 42.86L34.1 42.88L34.1 42.89L34.1 43.04L34.03 43.11L33.97 43.18L33.91 43.24L33.85 43.32L33.79 43.39L33.73 43.46L33.68 43.54L33.62 43.61L33.57 43.69L33.52 43.77L33.46 43.84L33.41 43.92L33.37 44L33.32 44.08L33.27 44.16L33.22 44.25L33.18 44.33L33.13 44.41L33.09 44.49L33.05 44.58L33 44.66L32.96 44.74L32.92 44.83L32.88 44.91L32.84 44.99L32.8 45.07L32.76 45.16L32.72 45.24L32.68 45.32L32.64 45.4L32.6 45.48L32.56 45.56L32.16 46.42L31.79 47.29L31.43 48.19L31.09 49.09L30.78 50.01L30.47 50.94L30.19 51.88L29.92 52.82L29.68 53.78L29.44 54.73L29.22 55.7L29.02 56.66L28.83 57.62L28.66 58.59L28.5 59.55L28.35 60.51L28.22 61.46L28.09 62.41L27.98 63.35L27.88 64.28L27.8 65.2L27.72 66.11L27.65 67L27.59 67.88L27.54 68.74L27.5 69.59L27.46 70.41L27.43 71.22L27.41 72L27.4 72.76L27.39 73.5L27.39 74.2L27.39 74.91L27.4 75.65L27.41 76.41L27.43 77.19L27.46 77.99L27.5 78.82L27.54 79.67L27.59 80.53L27.65 81.41L27.72 82.31L27.8 83.21L27.88 84.14L27.98 85.07L28.09 86.01L28.22 86.96L28.35 87.92L28.5 88.88L28.66 89.84L28.83 90.81L29.02 91.78L29.22 92.75L29.44 93.72L29.68 94.68L29.92 95.64L30.19 96.6L30.47 97.54L30.78 98.48L31.09 99.41L31.43 100.33L31.79 101.23L32.16 102.12L32.56 102.99L32.6 103.07L32.64 103.15L32.68 103.23L32.72 103.31L32.77 103.38L32.81 103.46L32.85 103.54L32.9 103.62L32.94 103.7L32.99 103.78L33.04 103.86L33.08 103.94L33.13 104.01L33.18 104.09L33.23 104.17L33.28 104.25L33.33 104.33L33.38 104.41L33.43 104.49L33.48 104.56L33.53 104.64L33.58 104.72L33.63 104.8L33.68 104.88L33.73 104.96L33.78 105.04L33.84 105.11L33.89 105.19L33.94 105.27L33.99 105.35L34.05 105.43L34.1 105.51L34.11 105.52L34.12 105.53L34.13 105.55L34.14 105.56L34.14 105.57L34.15 105.58L34.15 105.6L34.15 105.61L34.16 105.62L34.16 105.63L34.15 105.65L34.15 105.66L34.15 105.67L34.14 105.68L34.14 105.69L34.13 105.7L34.13 105.71L34.12 105.72L34.11 105.73L34.1 105.74L34.09 105.74L34.08 105.75L34.07 105.76L34.06 105.76L34.05 105.77L34.03 105.77L34.02 105.78L34.01 105.78L34 105.78L33.98 105.79L33.97 105.79L33.96 105.79L33.82 105.79L33.8 105.78L33.78 105.78L33.75 105.76L33.71 105.74L33.67 105.72L33.62 105.69L33.57 105.65L33.51 105.61L33.44 105.56L33.36 105.51L33.28 105.46L33.2 105.4L33.1 105.33L33 105.26L32.9 105.18L32.79 105.11L32.67 105.02L32.42 104.84L32.28 104.74L32.14 104.64L31.99 104.54L31.84 104.43L31.68 104.31L31.51 104.2L31.34 104.07L31.16 103.95L30.98 103.82L30.79 103.69L30.59 103.55L30.39 103.41L30.18 103.27L30.08 103.21L29.97 103.14L29.87 103.07L29.76 103L29.65 102.93L29.54 102.86L29.43 102.79L29.32 102.72L29.21 102.65L29.09 102.57L28.98 102.5L28.86 102.42L28.74 102.34L28.63 102.26L28.51 102.18L28.39 102.1L28.26 102.02L28.14 101.93L28.02 101.85L27.89 101.76L27.76 101.68L27.64 101.59L27.51 101.5L27.37 101.4L27.24 101.31L27.11 101.22L26.97 101.12L26.84 101.02L26.7 100.92L26.56 100.82L26.42 100.72L26.27 100.62L26 100.42L25.72 100.22L25.45 100.03L25.17 99.83L24.9 99.63L24.62 99.44L24.35 99.24L24.07 99.04L23.8 98.85L23.53 98.65L23.25 98.45L22.98 98.26L22.7 98.06L22.43 97.86L22.16 97.67L21.89 97.47L21.62 97.28L21.34 97.08L21.07 96.88L20.8 96.69L20.53 96.49L20.26 96.29L20 96.1L19.73 95.9L19.46 95.7L19.19 95.51L18.93 95.31L18.66 95.11L18.4 94.92L18.13 94.72L17.87 94.52L17.61 94.33L17.24 94.05L16.87 93.77L16.51 93.49L16.14 93.21L15.78 92.93L15.41 92.65L15.04 92.36L14.68 92.08L14.32 91.79L13.95 91.5L13.59 91.21L13.23 90.92L12.87 90.62L12.51 90.33L12.15 90.03L11.79 89.73L11.43 89.43L11.08 89.13L10.73 88.83L10.37 88.53L10.02 88.23L9.67 87.92L9.33 87.62L8.98 87.31L8.64 87L8.3 86.7L7.96 86.39L7.62 86.08L7.28 85.76L6.95 85.45L6.62 85.14L6.29 84.82L6.01 84.54L5.73 84.24L5.46 83.95L5.18 83.65L4.9 83.34L4.62 83.04L4.34 82.73L4.07 82.42L3.8 82.1L3.53 81.79L3.27 81.47L3.01 81.15L2.76 80.82L2.51 80.49L2.27 80.16L2.04 79.83L1.82 79.49L1.61 79.16L1.41 78.82L1.22 78.47L1.04 78.13L0.87 77.78L0.71 77.43L0.57 77.08L0.44 76.73L0.33 76.37L0.23 76.02L0.15 75.66L0.09 75.3L0.04 74.93L0.01 74.57L0 74.2L0.01 73.84L0.04 73.47L0.08 73.11L0.14 72.75L0.22 72.39L0.32 72.03L0.43 71.68L0.55 71.33L0.69 70.98L0.84 70.63L1 70.28L1.18 69.94L1.37 69.59L1.56 69.25L1.77 68.91L1.99 68.58L2.22 68.25L2.45 67.92L2.7 67.59L2.95 67.26L3.2 66.94L3.47 66.62L3.74 66.3L4.01 65.99L4.29 65.68L4.57 65.37L4.85 65.06L5.14 64.76L5.42 64.46L5.71 64.17L6 63.87L6.29 63.58L6.62 63.26L6.95 62.93L7.28 62.61L7.61 62.29L7.95 61.98L8.28 61.66L8.62 61.35L8.96 61.04L9.3 60.73L9.65 60.42L9.99 60.12L10.34 59.82L10.68 59.51L11.03 59.22L11.39 58.92L11.74 58.62L12.09 58.33L12.45 58.04L12.81 57.75L13.17 57.46L13.53 57.17L13.89 56.88L14.25 56.6L14.62 56.31L14.99 56.03L15.36 55.75L15.73 55.47L16.1 55.19L16.48 54.91L16.85 54.63L17.23 54.36L17.61 54.08L17.87 53.88L18.13 53.69L18.4 53.49L18.66 53.3L18.93 53.1L19.19 52.9L19.46 52.71L19.73 52.51L20 52.31L20.26 52.12L20.53 51.92L20.8 51.72L21.07 51.53L21.34 51.33L21.62 51.13L21.89 50.94L22.16 50.74L22.43 50.54L22.7 50.35L22.98 50.15L23.25 49.95L23.53 49.76L23.8 49.56L24.07 49.36L24.35 49.17L24.62 48.97L24.9 48.78L25.17 48.58L25.45 48.38L25.72 48.19L26 47.99L26.27 47.79L26.42 47.7L26.56 47.61L26.7 47.52L26.84 47.43L26.97 47.34L27.11 47.24L27.24 47.15L27.37 47.06L27.51 46.97L27.64 46.88L27.76 46.8L27.89 46.71L28.02 46.62L28.14 46.53L28.26 46.45L28.39 46.36L28.51 46.28L28.63 46.19L28.74 46.11L28.86 46.03L28.98 45.95L29.09 45.87L29.21 45.79L29.32 45.71L29.43 45.63L29.54 45.56L29.65 45.48L29.76 45.41L29.87 45.34L29.97 45.27L30.08 45.2L30.18 45.14L30.39 45.01L30.59 44.88L30.79 44.75L30.98 44.63L31.17 44.51L31.35 44.39L31.53 44.27L31.7 44.15L31.86 44.04L32.02 43.93L32.17 43.83L32.32 43.73L32.46 43.63L32.59 43.53L32.72 43.44L32.84 43.36L32.95 43.27L33.06 43.19L33.16 43.12L33.26 43.05L33.35 42.98L33.43 42.92L33.5 42.87L33.56 42.82L33.62 42.77L33.67 42.73L33.72 42.7L33.75 42.67L33.78 42.65L33.8 42.63L33.82 42.62L33.95 42.62L33.97 42.62L33.98 42.62ZM31.45 45.6L31.16 45.84L30.97 46L30.78 46.16L30.58 46.34L30.37 46.51L30.16 46.69L29.95 46.88L29.73 47.07L29.51 47.26L29.28 47.47L29.05 47.67L28.82 47.88L28.58 48.09L28.34 48.31L28.09 48.54L27.84 48.76L27.59 49L27.33 49.23L27.07 49.47L26.81 49.72L26.54 49.97L26.28 50.22L26.01 50.48L25.73 50.74L25.45 51.01L25.18 51.28L24.89 51.55L24.61 51.83L24.32 52.12L24.04 52.4L23.7 52.72L23.38 53.04L23.05 53.36L22.72 53.68L22.4 54.01L22.08 54.33L21.76 54.66L21.44 54.98L21.12 55.31L20.81 55.64L20.49 55.97L20.18 56.3L19.87 56.64L19.56 56.97L19.25 57.31L18.95 57.64L18.64 57.98L18.34 58.32L18.04 58.67L17.74 59.01L17.44 59.36L17.14 59.7L16.85 60.05L16.55 60.4L16.26 60.76L15.96 61.11L15.67 61.47L15.38 61.83L15.09 62.19L14.92 62.39L14.73 62.62L14.52 62.88L14.29 63.17L14.04 63.48L13.78 63.82L13.51 64.17L13.23 64.55L12.94 64.95L12.65 65.36L12.35 65.79L12.06 66.23L11.76 66.69L11.46 67.15L11.18 67.63L10.89 68.12L10.62 68.61L10.36 69.11L10.11 69.61L9.88 70.11L9.66 70.61L9.46 71.12L9.29 71.62L9.14 72.11L9.01 72.6L8.91 73.09L8.84 73.56L8.81 74.03L8.8 74.48L8.83 74.94L8.9 75.4L8.99 75.88L9.1 76.36L9.25 76.86L9.41 77.35L9.6 77.85L9.81 78.35L10.03 78.86L10.27 79.36L10.52 79.86L10.78 80.36L11.05 80.85L11.33 81.34L11.62 81.81L11.91 82.28L12.2 82.74L12.49 83.18L12.78 83.61L13.06 84.02L13.34 84.42L13.61 84.8L13.86 85.15L14.11 85.49L14.34 85.8L14.56 86.09L14.76 86.35L14.94 86.58L15.09 86.78L15.38 87.14L15.67 87.5L15.96 87.86L16.26 88.21L16.55 88.56L16.85 88.92L17.14 89.26L17.44 89.61L17.74 89.96L18.04 90.3L18.34 90.64L18.64 90.98L18.95 91.32L19.25 91.66L19.56 92L19.87 92.33L20.18 92.67L20.49 93L20.81 93.33L21.12 93.66L21.44 93.98L21.76 94.31L22.08 94.64L22.4 94.96L22.72 95.28L23.05 95.6L23.38 95.93L23.7 96.24L24.04 96.56L24.24 96.76L24.45 96.95L24.66 97.15L24.87 97.35L25.09 97.56L25.3 97.76L25.53 97.97L25.75 98.18L25.98 98.39L26.21 98.61L26.44 98.82L26.68 99.04L26.92 99.27L27.16 99.49L27.41 99.72L27.66 99.95L27.91 100.18L28.16 100.41L28.42 100.65L28.68 100.88L28.95 101.12L29.21 101.37L29.48 101.61L29.75 101.86L30.03 102.11L30.31 102.36L30.36 102.41L30.8 102.87L31.33 103.42L31.86 103.97L31.16 103.13L30.88 102.87L30.59 102.62L30.36 102.41L30.27 102.31L29.75 101.76L29.22 101.2L28.71 100.64L28.19 100.08L27.68 99.51L27.17 98.95L26.66 98.38L26.16 97.81L25.66 97.23L25.16 96.66L24.67 96.08L24.17 95.51L23.69 94.93L23.2 94.34L22.72 93.76L22.24 93.17L21.76 92.58L21.29 91.99L20.82 91.4L20.35 90.81L19.89 90.21L19.42 89.61L18.97 89.01L18.51 88.41L18.06 87.81L17.61 87.2L17.32 86.79L17.04 86.38L16.76 85.96L16.48 85.53L16.21 85.1L15.94 84.66L15.68 84.23L15.43 83.78L15.19 83.34L14.95 82.89L14.72 82.44L14.49 81.99L14.28 81.54L14.07 81.09L13.88 80.63L13.69 80.18L13.52 79.73L13.36 79.29L13.2 78.84L13.07 78.4L12.94 77.96L12.82 77.52L12.73 77.09L12.64 76.66L12.57 76.24L12.51 75.83L12.47 75.42L12.45 75.02L12.44 74.62L12.45 74.23L12.47 73.83L12.51 73.42L12.57 73L12.64 72.58L12.73 72.16L12.82 71.73L12.94 71.29L13.07 70.85L13.2 70.41L13.36 69.96L13.52 69.51L13.69 69.06L13.88 68.61L14.07 68.16L14.28 67.71L14.49 67.26L14.72 66.81L14.95 66.36L15.19 65.91L15.43 65.46L15.68 65.02L15.94 64.58L16.21 64.15L16.48 63.72L16.76 63.29L17.04 62.87L17.32 62.45L17.61 62.05L18.06 61.44L18.51 60.84L18.97 60.23L19.42 59.63L19.89 59.04L20.35 58.44L20.82 57.85L21.29 57.25L21.76 56.66L22.24 56.07L22.72 55.49L23.2 54.9L23.69 54.32L24.17 53.74L24.67 53.16L25.16 52.59L25.66 52.01L26.16 51.44L26.66 50.87L27.17 50.3L27.68 49.74L28.19 49.17L28.71 48.61L29.22 48.05L29.75 47.49L30.27 46.93L30.38 46.82L30.03 47.22L29.55 47.78L29.07 48.35L28.6 48.92L28.13 49.5L27.66 50.08L27.2 50.66L26.74 51.24L26.28 51.83L25.84 52.42L25.39 53.02L24.95 53.61L24.51 54.21L24.08 54.82L23.65 55.42L23.23 56.03L22.81 56.64L22.4 57.26L21.99 57.87L21.59 58.49L21.19 59.12L20.79 59.74L20.4 60.37L20.1 60.87L19.79 61.39L19.49 61.91L19.19 62.45L18.89 62.99L18.6 63.53L18.31 64.08L18.03 64.64L17.76 65.2L17.49 65.76L17.23 66.32L16.99 66.88L16.75 67.44L16.53 68L16.32 68.56L16.12 69.11L15.94 69.66L15.77 70.2L15.62 70.74L15.48 71.26L15.37 71.78L15.27 72.29L15.19 72.79L15.14 73.27L15.1 73.75L15.09 74.2L15.1 74.51L15.12 74.84L15.16 75.19L15.22 75.55L15.29 75.93L15.38 76.33L15.48 76.75L15.6 77.18L15.73 77.63L15.88 78.1L16.04 78.59L16.22 79.1L16.42 79.62L16.63 80.16L16.86 80.72L17.1 81.3L17.36 81.89L17.64 82.5L17.93 83.13L18.23 83.78L18.56 84.45L18.89 85.13L19.25 85.83L19.62 86.55L20 87.28L20.4 88.04L20.79 88.67L21.19 89.29L21.59 89.91L21.99 90.53L22.4 91.15L22.81 91.76L23.23 92.37L23.65 92.98L24.08 93.59L24.51 94.19L24.95 94.79L25.39 95.38L25.84 95.97L26.28 96.56L26.74 97.14L27.2 97.72L27.66 98.29L28.13 98.86L28.6 99.43L29.07 99.99L29.55 100.55L30.03 101.1L30.52 101.65L31.01 102.2L31.5 102.74L32 103.27L31.65 102.77L31.3 102.27L30.95 101.76L30.6 101.25L30.26 100.74L29.92 100.23L29.58 99.72L29.24 99.2L28.9 98.68L28.57 98.16L28.24 97.64L27.91 97.12L27.58 96.6L27.26 96.07L26.93 95.55L26.61 95.02L26.29 94.49L25.97 93.96L25.65 93.44L25.34 92.91L25.03 92.37L24.71 91.84L24.4 91.31L24.09 90.78L23.78 90.25L23.48 89.72L23.16 89.13L22.84 88.55L22.53 87.96L22.23 87.38L21.94 86.78L21.65 86.19L21.38 85.6L21.11 85L20.85 84.4L20.6 83.8L20.37 83.2L20.14 82.6L19.93 82L19.73 81.39L19.55 80.78L19.38 80.18L19.22 79.57L19.08 78.96L18.95 78.35L18.85 77.74L18.76 77.13L18.68 76.51L18.63 75.9L18.6 75.29L18.58 74.68L18.59 74.06L18.61 73.45L18.65 72.84L18.71 72.23L18.78 71.62L18.87 71L18.98 70.39L19.1 69.78L19.23 69.18L19.38 68.57L19.54 67.96L19.71 67.36L19.89 66.75L20.09 66.15L20.3 65.55L20.51 64.95L20.74 64.36L20.98 63.77L21.23 63.17L21.48 62.59L21.75 62L22.02 61.42L22.3 60.84L22.58 60.26L22.87 59.69L23.17 59.12L23.48 58.55L23.77 58.02L24.06 57.49L24.36 56.96L24.67 56.43L24.97 55.89L25.28 55.36L25.59 54.83L25.91 54.3L26.23 53.78L26.55 53.25L26.87 52.72L27.2 52.2L27.53 51.67L27.86 51.15L28.2 50.63L28.53 50.1L28.87 49.59L29.21 49.07L29.55 48.55L29.9 48.04L30.25 47.53L30.59 47.02L30.94 46.51L31.29 46L31.65 45.5L31.65 45.5L31.86 45.28L31.73 45.38L32 45L31.5 45.55L31.45 45.6ZM31.27 44.72L31.24 44.74L31.21 44.77L31.18 44.79L31.15 44.81L31.12 44.83L31.08 44.85L31.05 44.87L31.02 44.89L30.99 44.91L30.92 44.95L30.89 44.97L30.86 44.99L30.82 45.01L30.79 45.03L30.76 45.05L30.73 45.07L30.7 45.09L30.66 45.11L30.63 45.13L30.6 45.16L30.58 45.18L30.55 45.2L30.52 45.23L30.49 45.25L30.46 45.28L30.26 45.42L30.06 45.57L29.85 45.72L29.63 45.88L29.41 46.04L29.19 46.2L28.96 46.37L28.72 46.54L28.48 46.71L28.23 46.89L27.98 47.07L27.73 47.25L27.47 47.44L27.21 47.63L26.94 47.82L26.67 48.02L26.4 48.22L26.12 48.43L25.84 48.64L25.56 48.85L25.27 49.07L24.98 49.29L24.69 49.51L24.39 49.74L24.09 49.97L23.79 50.21L23.49 50.45L23.18 50.69L22.88 50.94L22.57 51.19L22.25 51.45L21.94 51.71L21.57 51.99L21.21 52.28L20.85 52.57L20.49 52.87L20.13 53.16L19.77 53.45L19.41 53.74L19.06 54.04L18.7 54.34L18.35 54.63L18 54.93L17.65 55.23L17.3 55.53L16.95 55.83L16.61 56.14L16.26 56.44L15.92 56.74L15.58 57.05L15.24 57.36L14.9 57.67L14.56 57.98L14.22 58.29L13.88 58.6L13.55 58.92L13.21 59.23L12.88 59.55L12.55 59.87L12.22 60.19L11.89 60.51L11.56 60.84L11.23 61.16L10.9 61.49L10.72 61.68L10.51 61.91L10.28 62.15L10.02 62.42L9.75 62.71L9.46 63.02L9.16 63.34L8.85 63.69L8.52 64.05L8.18 64.43L7.84 64.82L7.49 65.23L7.14 65.65L6.79 66.07L6.44 66.51L6.1 66.96L5.76 67.41L5.42 67.86L5.1 68.33L4.78 68.79L4.49 69.26L4.2 69.73L3.93 70.2L3.69 70.66L3.46 71.13L3.26 71.59L3.08 72.05L2.93 72.49L2.82 72.94L2.73 73.37L2.67 73.79L2.66 74.2L2.67 74.62L2.73 75.04L2.82 75.48L2.93 75.92L3.08 76.37L3.26 76.83L3.46 77.3L3.69 77.76L3.93 78.23L4.2 78.71L4.49 79.18L4.78 79.65L5.1 80.12L5.42 80.59L5.76 81.05L6.1 81.51L6.44 81.95L6.79 82.39L7.14 82.82L7.49 83.24L7.84 83.65L8.18 84.04L8.52 84.42L8.85 84.78L9.16 85.12L9.46 85.44L9.75 85.75L10.02 86.03L10.28 86.29L10.51 86.53L10.72 86.74L10.9 86.92L11.23 87.25L11.56 87.57L11.89 87.9L12.22 88.22L12.56 88.54L12.89 88.86L13.23 89.18L13.57 89.49L13.91 89.81L14.25 90.12L14.59 90.43L14.93 90.74L15.28 91.05L15.62 91.36L15.97 91.66L16.32 91.97L16.66 92.27L17.01 92.58L17.36 92.88L17.71 93.18L18.06 93.48L18.41 93.78L18.76 94.07L19.11 94.37L19.47 94.66L19.82 94.96L20.17 95.25L20.53 95.54L20.88 95.83L21.23 96.13L21.59 96.41L21.94 96.7L22.25 96.95L22.57 97.2L22.88 97.44L23.18 97.68L23.49 97.92L23.79 98.15L24.09 98.38L24.39 98.61L24.69 98.84L24.98 99.06L25.27 99.28L25.56 99.5L25.84 99.71L26.12 99.92L26.4 100.13L26.67 100.34L26.94 100.54L27.21 100.74L27.47 100.93L27.73 101.12L27.98 101.31L28.23 101.49L28.48 101.67L28.72 101.85L28.96 102.03L29.19 102.19L29.41 102.36L29.63 102.52L29.85 102.68L30.06 102.84L30.26 102.99L30.46 103.13L30.5 103.14L30.54 103.16L30.58 103.17L30.62 103.19L30.65 103.21L30.69 103.22L30.72 103.24L30.75 103.26L30.79 103.28L30.82 103.29L30.85 103.31L30.88 103.33L30.92 103.35L30.95 103.37L30.98 103.39L31.01 103.41L31.04 103.43L31.06 103.45L31.09 103.47L31.15 103.51L31.18 103.53L31.2 103.55L31.23 103.56L31.26 103.58L31.28 103.6L31.31 103.62L31.34 103.63L31.36 103.65L31.39 103.66L31.42 103.68L31.44 103.69L31.14 103.43L30.83 103.16L30.49 102.87L30.14 102.57L29.78 102.25L29.4 101.92L29.01 101.58L28.61 101.23L28.2 100.87L27.77 100.5L27.34 100.13L26.91 99.75L26.47 99.36L26.02 98.97L25.57 98.57L25.12 98.17L24.67 97.77L24.22 97.37L23.76 96.97L23.32 96.57L22.87 96.17L22.43 95.78L22 95.39L21.58 95L21.16 94.63L20.75 94.25L20.36 93.89L19.98 93.54L19.61 93.19L19.25 92.86L18.91 92.54L18.59 92.23L18.4 92.06L18.17 91.85L17.88 91.6L17.56 91.3L17.19 90.97L16.79 90.6L16.36 90.19L15.89 89.75L15.41 89.28L14.9 88.78L14.37 88.25L13.83 87.69L13.28 87.12L12.73 86.52L12.17 85.9L11.62 85.26L11.07 84.61L10.52 83.94L10 83.26L9.48 82.57L8.99 81.88L8.53 81.17L8.09 80.46L7.68 79.75L7.31 79.04L6.97 78.33L6.68 77.62L6.44 76.92L6.25 76.23L6.11 75.54L6.03 74.87L6.01 74.2L6.05 73.54L6.15 72.87L6.31 72.18L6.52 71.49L6.78 70.78L7.08 70.08L7.42 69.37L7.8 68.65L8.21 67.94L8.65 67.23L9.12 66.53L9.61 65.83L10.12 65.14L10.64 64.46L11.18 63.79L11.72 63.13L12.27 62.49L12.82 61.87L13.37 61.26L13.91 60.68L14.44 60.12L14.95 59.59L15.45 59.08L15.93 58.6L16.39 58.15L16.81 57.74L17.21 57.36L17.57 57.01L17.89 56.71L18.17 56.44L18.4 56.22L18.59 56.04L18.92 55.73L19.27 55.41L19.64 55.08L20.02 54.73L20.41 54.38L20.81 54.01L21.22 53.64L21.64 53.26L22.06 52.88L22.5 52.49L22.94 52.1L23.38 51.7L23.82 51.3L24.27 50.9L24.72 50.5L25.17 50.1L25.62 49.7L26.06 49.3L26.51 48.91L26.94 48.52L27.38 48.14L27.8 47.77L28.22 47.4L28.63 47.04L29.03 46.69L29.41 46.35L29.79 46.02L30.15 45.7L30.5 45.4L30.83 45.11L31.15 44.84L31.3 44.7L31.3 44.7L31.33 44.68L31.36 44.65L31.39 44.63L31.42 44.6L31.44 44.58L31.3 44.7L31.27 44.72ZM31.17 47.24L30.69 48.07L30.21 48.94L29.73 49.84L29.26 50.79L28.79 51.77L28.32 52.79L27.86 53.85L27.4 54.95L26.94 56.09L26.48 57.26L26.03 58.47L25.58 59.72L25.13 61.01L24.69 62.34L24.25 63.71L23.81 65.11L23.37 66.56L22.94 68.04L22.51 69.56L22.09 71.11L21.66 72.71L21.24 74.34L21.27 75.44L21.34 76.56L21.47 77.7L21.64 78.85L21.86 80.03L22.12 81.22L22.42 82.42L22.76 83.63L23.14 84.86L23.56 86.09L24.01 87.32L24.49 88.56L25 89.8L25.54 91.04L26.11 92.28L26.71 93.51L27.32 94.74L27.96 95.96L28.62 97.17L29.3 98.37L29.99 99.55L30.69 100.71L31.41 101.86L32.14 102.99L31.85 102.4L31.53 101.73L31.18 100.96L30.82 100.12L30.43 99.21L30.04 98.22L29.64 97.17L29.23 96.06L28.82 94.9L28.4 93.68L28 92.43L27.6 91.13L27.21 89.8L26.84 88.44L26.49 87.06L26.16 85.65L25.85 84.24L25.58 82.81L25.33 81.38L25.13 79.95L24.96 78.53L24.84 77.11L24.76 75.72L24.73 74.34L24.76 72.97L24.84 71.58L24.96 70.17L25.12 68.75L25.32 67.32L25.56 65.9L25.83 64.48L26.13 63.07L26.45 61.67L26.8 60.29L27.17 58.94L27.55 57.61L27.94 56.32L28.34 55.06L28.75 53.85L29.17 52.69L29.58 51.58L29.98 50.53L30.38 49.54L30.77 48.61L31.14 47.76L31.5 46.99L31.83 46.3L32.14 45.7L31.65 46.45L31.17 47.24Z" id="hr2ajMmG"></path><path d="M47.68 114.53L47.77 114.57L47.85 114.61L47.94 114.65L48.03 114.69L48.11 114.73L48.2 114.77L48.29 114.81L48.38 114.85L48.46 114.88L48.55 114.92L48.64 114.96L48.73 114.99L48.82 115.03L48.91 115.06L49 115.1L49.09 115.13L49.19 115.17L49.28 115.2L49.37 115.24L49.46 115.27L49.55 115.3L49.65 115.34L49.74 115.37L49.83 115.4L49.93 115.43L50.02 115.47L50.11 115.5L50.21 115.53L50.3 115.56L50.39 115.6L50.49 115.63L50.58 115.66L50.68 115.69L50.77 115.72L50.86 115.75L50.96 115.79L51.05 115.82L51.15 115.85L52.16 116.17L53.19 116.47L54.23 116.77L55.29 117.05L56.36 117.31L57.44 117.57L58.53 117.82L59.63 118.05L60.73 118.27L61.84 118.48L62.96 118.68L64.08 118.88L65.21 119.06L66.34 119.23L67.47 119.39L68.6 119.54L69.73 119.68L70.86 119.82L71.98 119.94L73.1 120.06L74.22 120.17L75.33 120.27L76.43 120.36L77.53 120.45L78.61 120.53L79.69 120.6L80.75 120.66L81.8 120.72L82.84 120.77L83.87 120.82L84.87 120.86L85.87 120.9L86.84 120.93L87.79 120.95L88.73 120.97L89.64 120.99L90.54 121L91.4 121.01L92.25 121.02L93.07 121.02L93.89 121.02L94.73 121.01L95.6 121L96.5 120.99L97.41 120.97L98.35 120.95L99.3 120.93L100.27 120.9L101.27 120.86L102.27 120.82L103.3 120.77L104.34 120.72L105.39 120.66L106.45 120.6L107.53 120.53L108.61 120.45L109.71 120.36L110.81 120.27L111.92 120.17L113.04 120.06L114.16 119.94L115.28 119.82L116.41 119.68L117.54 119.54L118.67 119.39L119.8 119.23L120.93 119.06L122.06 118.88L123.18 118.68L124.3 118.48L125.41 118.27L126.51 118.05L127.61 117.82L128.7 117.57L129.78 117.31L130.85 117.05L131.91 116.77L132.95 116.47L133.98 116.17L134.99 115.85L135.09 115.82L135.18 115.79L135.27 115.75L135.37 115.72L135.46 115.69L135.55 115.66L135.64 115.63L135.73 115.6L135.82 115.56L135.91 115.53L136 115.5L136.09 115.47L136.18 115.43L136.27 115.4L136.36 115.37L136.45 115.34L136.54 115.3L136.63 115.27L136.72 115.24L136.81 115.2L136.9 115.17L136.99 115.13L137.08 115.1L137.17 115.06L137.26 115.03L137.35 114.99L137.44 114.96L137.52 114.92L137.61 114.88L137.71 114.85L137.8 114.81L137.89 114.77L137.98 114.73L138.07 114.69L138.16 114.65L138.25 114.61L138.35 114.57L138.44 114.53L138.53 114.49L138.63 114.45L138.77 114.45L138.91 114.59L138.92 114.59L138.93 114.59L138.94 114.59L138.94 114.59L138.95 114.6L138.96 114.6L138.97 114.6L138.97 114.61L138.98 114.61L138.98 114.61L138.99 114.62L138.99 114.62L139 114.63L139 114.64L139 114.64L139.01 114.65L139.01 114.66L139.01 114.66L139.01 114.67L139.01 114.68L139.01 114.69L139.01 114.69L139.01 114.7L139.01 114.71L139 114.72L139 114.73L139 114.74L138.99 114.75L138.99 114.76L138.98 114.77L138.98 114.78L138.97 114.79L138.97 114.8L138.96 114.81L138.95 114.82L138.94 114.83L138.94 114.84L138.93 114.85L138.92 114.86L138.91 114.87L135.41 118.22L135.34 118.31L135.26 118.39L135.19 118.48L135.11 118.56L135.03 118.65L134.94 118.74L134.86 118.82L134.78 118.91L134.69 119L134.6 119.09L134.52 119.18L134.43 119.27L134.34 119.36L134.24 119.46L134.15 119.55L134.06 119.64L133.96 119.74L133.86 119.83L133.76 119.93L133.67 120.02L133.57 120.12L133.46 120.22L133.36 120.32L133.26 120.42L133.16 120.52L132.94 120.72L132.84 120.82L132.73 120.93L132.62 121.03L132.51 121.14L132.4 121.25L132.29 121.35L132.18 121.46L132.07 121.57L131.96 121.68L131.84 121.8L131.73 121.91L131.61 122.02L131.5 122.14L131.27 122.36L131.04 122.58L130.81 122.8L130.58 123.02L130.35 123.24L130.12 123.46L129.89 123.68L129.65 123.9L129.42 124.12L129.19 124.34L128.96 124.55L128.73 124.77L128.5 124.99L128.27 125.21L128.04 125.43L127.81 125.65L127.58 125.87L127.35 126.09L127.12 126.3L126.89 126.52L126.66 126.74L126.43 126.96L126.2 127.17L125.97 127.39L125.74 127.61L125.5 127.82L125.27 128.04L125.04 128.25L124.81 128.47L124.58 128.68L124.35 128.89L124.12 129.11L123.89 129.32L123.66 129.53L123.43 129.75L123.2 129.96L122.97 130.17L122.74 130.38L122.51 130.59L122.28 130.8L121.95 131.1L121.62 131.41L121.3 131.71L120.97 132.01L120.64 132.31L120.31 132.61L119.98 132.9L119.64 133.2L119.31 133.49L118.98 133.79L118.64 134.08L118.3 134.37L117.96 134.66L117.63 134.95L117.28 135.24L116.94 135.53L116.6 135.82L116.26 136.1L115.91 136.39L115.57 136.67L115.22 136.95L114.87 137.23L114.53 137.51L114.18 137.79L113.83 138.07L113.47 138.35L113.12 138.63L112.77 138.9L112.41 139.17L112.06 139.45L111.7 139.72L111.34 139.99L110.98 140.26L110.62 140.53L110.26 140.8L109.9 141.06L109.54 141.33L109.17 141.59L108.81 141.86L108.44 142.12L108.11 142.34L107.78 142.56L107.45 142.79L107.11 143.01L106.77 143.23L106.42 143.46L106.07 143.68L105.72 143.9L105.36 144.12L105 144.34L104.63 144.56L104.27 144.77L103.9 144.98L103.52 145.19L103.15 145.4L102.77 145.6L102.39 145.8L102 145.99L101.62 146.18L101.23 146.36L100.84 146.54L100.44 146.72L100.05 146.88L99.65 147.04L99.25 147.19L98.85 147.34L98.44 147.48L98.04 147.61L97.63 147.73L97.22 147.84L96.81 147.94L96.4 148.04L95.99 148.12L95.57 148.2L95.16 148.26L94.74 148.31L94.32 148.35L93.91 148.38L93.49 148.4L93.07 148.41L92.65 148.4L92.23 148.39L91.81 148.36L91.4 148.32L90.98 148.26L90.57 148.2L90.15 148.13L89.74 148.05L89.33 147.96L88.92 147.86L88.51 147.75L88.1 147.63L87.69 147.51L87.29 147.37L86.88 147.23L86.48 147.08L86.08 146.92L85.68 146.76L85.29 146.59L84.89 146.42L84.5 146.24L84.11 146.05L83.73 145.86L83.34 145.66L82.96 145.46L82.58 145.26L82.2 145.05L81.82 144.83L81.45 144.62L81.08 144.4L80.72 144.18L80.35 143.95L79.99 143.73L79.63 143.5L79.28 143.27L78.93 143.04L78.58 142.81L78.24 142.58L77.9 142.35L77.56 142.12L77.19 141.86L76.83 141.59L76.46 141.33L76.1 141.06L75.74 140.8L75.38 140.53L75.02 140.26L74.66 139.99L74.3 139.72L73.94 139.45L73.59 139.17L73.23 138.9L72.88 138.63L72.53 138.35L72.17 138.07L71.82 137.79L71.47 137.51L71.13 137.23L70.78 136.95L70.43 136.67L70.09 136.39L69.74 136.1L69.4 135.82L69.06 135.53L68.72 135.24L68.37 134.95L68.04 134.66L67.7 134.37L67.36 134.08L67.02 133.79L66.69 133.49L66.36 133.2L66.02 132.9L65.69 132.61L65.36 132.31L65.03 132.01L64.7 131.71L64.38 131.41L64.05 131.1L63.72 130.8L63.49 130.59L63.26 130.38L63.03 130.17L62.8 129.96L62.57 129.75L62.34 129.53L62.11 129.32L61.88 129.11L61.65 128.89L61.42 128.68L61.19 128.47L60.96 128.25L60.73 128.04L60.5 127.82L60.26 127.61L60.03 127.39L59.8 127.17L59.57 126.96L59.34 126.74L59.11 126.52L58.88 126.3L58.65 126.09L58.42 125.87L58.19 125.65L57.96 125.43L57.73 125.21L57.5 124.99L57.27 124.77L57.04 124.55L56.81 124.34L56.58 124.12L56.35 123.9L56.11 123.68L55.88 123.46L55.65 123.24L55.42 123.02L55.19 122.8L54.96 122.58L54.73 122.36L54.5 122.14L50.59 118.22L47.09 114.87L47.09 114.75L47.09 114.72L47.09 114.71L47.1 114.7L47.1 114.69L47.1 114.68L47.1 114.67L47.11 114.66L47.11 114.65L47.11 114.64L47.12 114.63L47.12 114.62L47.13 114.61L47.13 114.6L47.14 114.59L47.15 114.58L47.15 114.57L47.16 114.56L47.17 114.55L47.17 114.55L47.18 114.54L47.19 114.53L47.2 114.52L47.21 114.52L47.21 114.51L47.22 114.5L47.23 114.5L47.24 114.49L47.25 114.48L47.26 114.48L47.27 114.47L47.28 114.47L47.29 114.47L47.3 114.46L47.31 114.46L47.32 114.46L47.33 114.45L47.34 114.45L47.35 114.45L47.36 114.45L47.37 114.45L47.51 114.45L47.6 114.49L47.68 114.53ZM135.65 117.45L135.33 117.71L134.99 117.98L134.64 118.26L134.28 118.55L133.9 118.85L133.51 119.16L133.12 119.48L132.71 119.8L132.29 120.13L131.86 120.47L131.43 120.81L130.99 121.15L130.54 121.5L130.09 121.85L129.63 122.21L129.17 122.57L128.7 122.93L128.23 123.29L127.76 123.65L127.29 124.01L126.82 124.37L126.35 124.73L125.88 125.09L125.41 125.45L124.95 125.8L124.49 126.15L124.03 126.49L123.58 126.83L123.13 127.17L122.69 127.49L122.25 127.81L121.83 128.13L121.41 128.43L121 128.73L120.61 129.02L120.22 129.3L119.84 129.57L119.48 129.82L119.28 129.96L119.04 130.12L118.76 130.32L118.44 130.55L118.08 130.8L117.69 131.09L117.26 131.39L116.8 131.72L116.31 132.07L115.79 132.43L115.24 132.82L114.66 133.21L114.05 133.62L113.42 134.04L112.77 134.47L112.1 134.9L111.4 135.34L110.69 135.79L109.96 136.23L109.21 136.67L108.45 137.11L107.67 137.54L106.89 137.97L106.09 138.39L105.28 138.79L104.47 139.18L103.65 139.56L102.82 139.93L102 140.27L101.17 140.59L100.34 140.89L99.51 141.17L98.68 141.42L97.85 141.64L97.04 141.83L96.22 141.99L95.42 142.11L94.63 142.2L93.84 142.25L93.07 142.26L92.55 142.25L92.02 142.23L91.49 142.19L90.94 142.14L90.4 142.07L89.84 141.98L89.28 141.88L88.7 141.76L88.13 141.63L87.54 141.48L86.95 141.32L86.35 141.14L85.74 140.95L85.13 140.74L84.51 140.51L83.88 140.27L83.25 140.01L82.6 139.74L81.95 139.45L81.3 139.15L80.63 138.83L79.96 138.5L79.28 138.15L78.6 137.78L77.91 137.4L77.21 137.01L76.5 136.59L75.78 136.17L75.06 135.72L74.34 135.26L73.6 134.79L72.86 134.3L72.11 133.79L71.35 133.27L70.59 132.74L69.81 132.19L69.04 131.62L68.25 131.04L67.46 130.44L66.66 129.82L66.3 129.56L65.92 129.28L65.53 128.99L65.14 128.7L64.73 128.39L64.31 128.08L63.89 127.76L63.45 127.44L63.01 127.11L62.56 126.77L62.11 126.43L61.65 126.09L61.19 125.74L60.73 125.38L60.26 125.03L59.79 124.67L59.32 124.32L58.85 123.96L58.38 123.6L57.91 123.24L57.44 122.88L56.97 122.52L56.51 122.17L56.05 121.81L55.6 121.46L55.15 121.12L54.71 120.78L54.28 120.44L53.85 120.11L53.43 119.78L53.02 119.46L52.63 119.15L52.24 118.84L51.86 118.55L51.5 118.26L51.15 117.98L50.81 117.71L50.49 117.45L50.18 117.2L49.89 116.97L49.91 116.99L49.93 117.01L49.95 117.03L49.97 117.05L49.99 117.08L50.02 117.1L50.04 117.12L50.06 117.15L50.08 117.17L50.1 117.2L50.12 117.22L50.19 117.3L50.21 117.32L50.23 117.35L50.26 117.38L50.28 117.4L50.3 117.43L50.33 117.46L50.35 117.48L50.37 117.51L50.4 117.53L50.42 117.56L50.45 117.59L50.47 117.61L50.5 117.64L50.52 117.66L50.55 117.69L50.58 117.71L50.6 117.74L50.63 117.76L50.66 117.79L50.69 117.81L50.72 117.83L50.75 117.86L50.77 117.88L50.81 117.9L50.84 117.92L50.87 117.94L51.04 118.1L51.21 118.27L51.39 118.43L51.57 118.6L51.75 118.77L51.94 118.95L52.13 119.13L52.32 119.31L52.52 119.5L52.73 119.69L52.93 119.88L53.14 120.08L53.35 120.27L53.57 120.47L53.79 120.68L54.01 120.88L54.24 121.09L54.47 121.3L54.7 121.52L54.94 121.73L55.18 121.95L55.42 122.17L55.67 122.4L55.92 122.62L56.17 122.85L56.43 123.08L56.69 123.31L56.95 123.54L57.22 123.78L57.49 124.02L57.76 124.26L58.04 124.5L58.32 124.74L58.6 124.98L58.89 125.23L59.18 125.47L59.47 125.72L59.77 125.97L60.07 126.22L60.37 126.47L60.72 126.76L61.06 127.05L61.41 127.34L61.76 127.63L62.11 127.92L62.45 128.21L62.8 128.5L63.15 128.78L63.5 129.07L63.85 129.35L64.21 129.64L64.56 129.92L64.91 130.2L65.26 130.48L65.62 130.76L65.97 131.04L66.33 131.32L66.68 131.59L67.04 131.87L67.39 132.15L67.75 132.42L68.11 132.69L68.46 132.97L68.82 133.24L69.18 133.51L69.54 133.78L69.9 134.05L70.26 134.32L70.62 134.59L70.98 134.86L71.34 135.13L71.71 135.39L72.07 135.66L72.43 135.93L72.8 136.19L73.16 136.46L73.53 136.72L73.89 136.98L74.26 137.25L74.62 137.51L74.84 137.65L75.07 137.81L75.33 137.99L75.62 138.18L75.92 138.38L76.25 138.6L76.59 138.83L76.96 139.06L77.34 139.31L77.74 139.56L78.16 139.82L78.59 140.09L79.04 140.36L79.5 140.64L79.97 140.92L80.45 141.2L80.95 141.48L81.45 141.76L81.96 142.04L82.48 142.31L83.01 142.59L83.54 142.85L84.08 143.12L84.62 143.37L85.17 143.62L85.72 143.86L86.27 144.1L86.81 144.32L87.36 144.52L87.91 144.72L88.45 144.9L88.99 145.07L89.53 145.22L90.06 145.36L90.58 145.47L91.1 145.57L91.6 145.65L92.1 145.71L92.59 145.74L93.07 145.75L93.55 145.74L94.04 145.71L94.53 145.65L95.04 145.57L95.56 145.47L96.08 145.36L96.61 145.22L97.15 145.07L97.69 144.9L98.23 144.72L98.78 144.52L99.33 144.32L99.87 144.1L100.42 143.86L100.97 143.62L101.51 143.37L102.06 143.12L102.6 142.85L103.13 142.59L103.66 142.31L104.18 142.04L104.69 141.76L105.19 141.48L105.69 141.2L106.17 140.92L106.64 140.64L107.1 140.36L107.55 140.09L107.98 139.82L108.4 139.56L108.8 139.31L109.18 139.06L109.55 138.83L109.89 138.6L110.22 138.38L110.52 138.18L110.81 137.99L111.07 137.81L111.3 137.65L111.52 137.51L111.88 137.25L112.25 136.98L112.61 136.72L112.98 136.46L113.34 136.19L113.71 135.93L114.07 135.66L114.43 135.39L114.8 135.13L115.16 134.86L115.52 134.59L115.88 134.32L116.24 134.05L116.6 133.78L116.96 133.51L117.32 133.24L117.68 132.97L118.03 132.69L118.39 132.42L118.75 132.15L119.1 131.87L119.46 131.59L119.81 131.32L120.17 131.04L120.52 130.76L120.88 130.48L121.23 130.2L121.58 129.92L121.93 129.64L122.29 129.35L122.64 129.07L122.99 128.78L123.34 128.5L123.69 128.21L124.03 127.92L124.38 127.63L124.73 127.34L125.08 127.05L125.42 126.76L125.77 126.47L126.07 126.22L126.37 125.97L126.67 125.72L126.96 125.47L127.25 125.23L127.54 124.98L127.82 124.74L128.1 124.5L128.38 124.26L128.65 124.02L128.92 123.78L129.19 123.54L129.45 123.31L129.71 123.08L129.97 122.85L130.22 122.62L130.47 122.4L130.72 122.17L130.96 121.95L131.2 121.73L131.44 121.52L131.67 121.3L131.9 121.09L132.13 120.88L132.35 120.68L132.57 120.47L132.79 120.27L133 120.08L133.21 119.88L133.41 119.69L133.62 119.5L133.81 119.31L134.01 119.13L134.2 118.95L134.39 118.77L134.57 118.6L134.75 118.43L134.93 118.27L135.1 118.1L135.27 117.94L136.25 116.97L135.96 117.2L135.65 117.45ZM134.57 117.5L133.94 117.9L133.31 118.31L132.68 118.71L132.05 119.1L131.41 119.5L130.78 119.9L130.14 120.29L129.51 120.68L128.87 121.07L128.23 121.46L127.6 121.85L126.96 122.23L126.32 122.61L125.67 122.99L125.03 123.37L124.39 123.75L123.74 124.13L123.1 124.5L122.45 124.87L121.8 125.25L121.15 125.61L120.5 125.98L119.85 126.35L119.2 126.71L118.54 127.07L117.88 127.43L117.23 127.79L116.57 128.15L115.91 128.5L115.24 128.86L114.58 129.21L113.91 129.56L113.25 129.91L112.58 130.25L111.91 130.6L111.24 130.94L110.79 131.16L110.34 131.38L109.88 131.59L109.42 131.81L108.95 132.02L108.48 132.23L108 132.43L107.52 132.63L107.03 132.83L106.54 133.02L106.05 133.21L105.55 133.4L105.05 133.58L104.55 133.76L104.05 133.93L103.54 134.1L103.04 134.26L102.54 134.42L102.03 134.57L101.53 134.72L101.02 134.86L100.52 134.99L100.02 135.12L99.52 135.24L99.02 135.36L98.53 135.46L98.03 135.56L97.55 135.65L97.06 135.74L96.58 135.81L96.11 135.88L95.63 135.94L95.17 135.99L94.71 136.03L94.25 136.07L93.81 136.09L93.36 136.11L92.93 136.11L92.64 136.11L92.34 136.1L92.02 136.08L91.7 136.05L91.37 136.02L91.02 135.98L90.67 135.94L90.31 135.88L89.93 135.82L89.55 135.75L89.15 135.68L88.75 135.6L88.33 135.51L87.91 135.41L87.47 135.31L87.03 135.19L86.57 135.08L86.11 134.95L85.63 134.82L85.14 134.68L84.64 134.53L84.14 134.38L83.62 134.22L83.09 134.05L82.55 133.87L82 133.69L81.45 133.5L80.88 133.3L80.3 133.1L79.71 132.89L79.11 132.67L78.5 132.44L77.88 132.21L77.25 131.97L76.61 131.72L75.96 131.47L75.3 131.21L74.62 130.94L73.96 130.61L73.3 130.27L72.64 129.94L71.98 129.6L71.32 129.26L70.66 128.91L70.01 128.57L69.35 128.22L68.69 127.87L68.04 127.51L67.38 127.16L66.73 126.8L66.07 126.44L65.42 126.08L64.77 125.71L64.12 125.35L63.47 124.98L62.82 124.61L62.17 124.23L61.52 123.86L60.87 123.48L60.23 123.1L59.58 122.71L58.94 122.33L58.3 121.94L57.65 121.55L57.01 121.16L56.37 120.76L55.73 120.37L55.1 119.97L54.46 119.56L53.82 119.16L53.19 118.75L52.55 118.35L51.92 117.93L51.29 117.52L50.66 117.1L50.03 116.69L50.87 117.39L51.05 117.53L51.23 117.68L51.42 117.83L51.61 117.98L51.81 118.14L52.01 118.3L52.21 118.46L52.42 118.62L52.64 118.79L52.86 118.96L53.08 119.13L53.31 119.3L53.54 119.48L53.77 119.66L54.01 119.84L54.25 120.02L54.5 120.21L54.75 120.39L55.01 120.58L55.27 120.77L55.53 120.97L55.79 121.16L56.06 121.36L56.34 121.56L56.61 121.76L56.89 121.96L57.18 122.17L57.46 122.37L57.75 122.58L58.05 122.79L58.34 123L58.64 123.21L58.95 123.42L59.25 123.64L59.56 123.86L59.88 124.07L60.19 124.29L60.51 124.51L60.87 124.77L61.24 125.02L61.61 125.27L61.97 125.52L62.34 125.77L62.71 126.02L63.08 126.27L63.46 126.52L63.83 126.77L64.2 127.02L64.58 127.26L64.95 127.51L65.33 127.75L65.71 127.99L66.08 128.24L66.46 128.48L66.84 128.72L67.22 128.96L67.6 129.19L67.98 129.43L68.36 129.67L68.75 129.9L69.13 130.13L69.51 130.36L69.89 130.6L70.28 130.82L70.66 131.05L71.05 131.28L71.43 131.5L71.82 131.73L72.2 131.95L72.59 132.17L72.97 132.39L73.36 132.6L73.74 132.82L74.13 133.03L74.52 133.25L74.9 133.46L75.13 133.57L75.37 133.7L75.65 133.85L75.94 134L76.26 134.16L76.6 134.34L76.96 134.52L77.33 134.71L77.73 134.91L78.15 135.11L78.58 135.32L79.02 135.53L79.48 135.74L79.96 135.96L80.45 136.18L80.94 136.4L81.45 136.62L81.97 136.84L82.5 137.05L83.04 137.27L83.58 137.48L84.13 137.68L84.68 137.88L85.24 138.08L85.8 138.26L86.36 138.44L86.93 138.61L87.49 138.77L88.06 138.91L88.62 139.05L89.18 139.17L89.73 139.28L90.28 139.38L90.83 139.46L91.36 139.52L91.9 139.57L92.42 139.6L92.93 139.6L93.44 139.6L93.96 139.57L94.5 139.52L95.03 139.46L95.58 139.38L96.13 139.28L96.68 139.17L97.24 139.05L97.8 138.91L98.37 138.77L98.93 138.61L99.5 138.44L100.06 138.26L100.62 138.08L101.18 137.88L101.73 137.68L102.28 137.48L102.82 137.27L103.36 137.05L103.89 136.84L104.41 136.62L104.92 136.4L105.41 136.18L105.9 135.96L106.38 135.74L106.84 135.53L107.28 135.32L107.71 135.11L108.13 134.91L108.53 134.71L108.9 134.52L109.26 134.34L109.6 134.16L109.92 134L110.22 133.85L110.49 133.7L110.73 133.57L110.96 133.46L111.35 133.24L111.75 133.01L112.14 132.79L112.54 132.57L112.93 132.35L113.32 132.12L113.71 131.9L114.1 131.67L114.49 131.44L114.87 131.22L115.26 130.99L115.64 130.76L116.03 130.53L116.41 130.3L116.79 130.07L117.17 129.84L117.55 129.61L117.93 129.38L118.31 129.14L118.69 128.91L119.07 128.67L119.44 128.43L119.82 128.2L120.19 127.96L120.56 127.72L120.94 127.48L121.31 127.24L121.68 126.99L122.05 126.75L122.42 126.51L122.79 126.26L123.16 126.01L123.52 125.77L123.89 125.52L124.26 125.27L124.62 125.02L124.99 124.77L125.35 124.51L125.67 124.28L125.98 124.05L126.3 123.83L126.61 123.6L126.91 123.38L127.22 123.16L127.52 122.95L127.81 122.73L128.11 122.52L128.4 122.31L128.68 122.1L128.97 121.9L129.25 121.7L129.52 121.5L129.8 121.3L130.07 121.1L130.33 120.91L130.59 120.72L130.85 120.53L131.11 120.34L131.36 120.16L131.61 119.98L131.85 119.8L132.09 119.62L132.32 119.45L132.55 119.27L132.78 119.1L133 118.94L133.22 118.77L133.44 118.61L133.65 118.45L133.85 118.29L134.05 118.13L134.25 117.98L134.44 117.83L134.63 117.68L134.81 117.53L134.99 117.39L135.83 116.69L135.2 117.09L134.57 117.5ZM134.6 117.06L134.05 117.31L133.5 117.57L132.95 117.82L132.41 118.07L131.86 118.32L131.31 118.57L130.76 118.82L130.22 119.07L129.67 119.32L129.12 119.56L128.57 119.81L128.02 120.05L127.47 120.3L126.92 120.54L126.37 120.78L125.82 121.02L125.27 121.26L124.72 121.49L124.17 121.73L123.62 121.96L123.07 122.2L122.51 122.43L121.96 122.66L121.41 122.88L120.86 123.11L120.3 123.34L119.75 123.56L119.19 123.78L118.64 124L118.08 124.22L117.52 124.43L116.96 124.65L116.41 124.86L115.85 125.07L115.24 125.31L114.63 125.55L114.02 125.78L113.41 126L112.8 126.22L112.18 126.43L111.56 126.64L110.94 126.84L110.32 127.03L109.7 127.22L109.08 127.41L108.45 127.58L107.83 127.75L107.2 127.92L106.57 128.07L105.94 128.23L105.3 128.37L104.67 128.51L104.03 128.65L103.4 128.77L102.76 128.9L102.12 129.01L101.48 129.12L100.84 129.22L100.2 129.32L99.55 129.41L98.91 129.49L98.26 129.57L97.62 129.64L96.97 129.71L96.32 129.77L95.67 129.82L95.02 129.86L94.37 129.9L93.72 129.94L93.07 129.96L92.63 129.94L92.18 129.92L91.72 129.89L91.24 129.85L90.76 129.8L90.26 129.75L89.76 129.69L89.24 129.62L88.71 129.55L88.17 129.47L87.62 129.39L87.06 129.29L86.49 129.2L85.91 129.09L85.31 128.98L84.71 128.86L84.09 128.73L83.46 128.6L82.82 128.46L82.17 128.31L81.51 128.16L80.84 128L80.16 127.84L79.47 127.66L78.76 127.49L78.05 127.3L77.32 127.11L76.59 126.91L75.84 126.7L75.08 126.49L74.31 126.27L73.53 126.04L72.73 125.81L71.93 125.57L71.12 125.32L70.29 125.07L69.73 124.86L69.17 124.65L68.62 124.43L68.06 124.22L67.51 124L66.95 123.78L66.4 123.56L65.84 123.34L65.29 123.11L64.74 122.88L64.19 122.66L63.64 122.43L63.09 122.2L62.54 121.96L61.99 121.73L61.44 121.49L60.9 121.26L60.35 121.02L59.81 120.78L59.27 120.54L58.72 120.3L58.18 120.05L57.64 119.81L57.1 119.56L56.57 119.32L56.03 119.07L55.49 118.82L54.96 118.57L54.43 118.32L53.89 118.07L53.36 117.82L52.83 117.57L52.31 117.31L51.78 117.06L51.25 116.8L50.73 116.55L51.32 116.92L51.92 117.29L52.52 117.65L53.12 118.02L53.72 118.38L54.32 118.74L54.93 119.09L55.54 119.44L56.15 119.79L56.76 120.14L57.37 120.49L57.98 120.83L58.6 121.17L59.22 121.5L59.83 121.84L60.45 122.17L61.07 122.49L61.7 122.82L62.32 123.14L62.95 123.46L63.57 123.77L64.2 124.09L64.83 124.4L65.46 124.7L66.09 125.01L66.72 125.31L67.35 125.61L67.99 125.9L68.62 126.19L69.26 126.48L69.89 126.77L70.53 127.05L71.17 127.33L71.81 127.6L72.45 127.88L73.09 128.15L73.61 128.37L74.15 128.59L74.7 128.81L75.25 129.03L75.81 129.24L76.37 129.46L76.94 129.68L77.52 129.89L78.1 130.1L78.68 130.3L79.27 130.5L79.86 130.7L80.45 130.9L81.04 131.09L81.63 131.27L82.23 131.45L82.82 131.63L83.41 131.8L84 131.96L84.59 132.12L85.17 132.27L85.75 132.41L86.33 132.54L86.91 132.67L87.47 132.79L88.04 132.9L88.59 133L89.14 133.09L89.68 133.17L90.21 133.25L90.74 133.31L91.25 133.36L91.76 133.4L92.25 133.43L92.74 133.45L93.21 133.46L93.68 133.45L94.17 133.43L94.66 133.4L95.16 133.36L95.68 133.31L96.2 133.25L96.74 133.17L97.28 133.09L97.83 133L98.38 132.9L98.95 132.79L99.51 132.67L100.09 132.54L100.66 132.41L101.25 132.27L101.83 132.12L102.42 131.96L103.01 131.8L103.6 131.63L104.19 131.45L104.79 131.27L105.38 131.09L105.97 130.9L106.56 130.7L107.15 130.5L107.74 130.3L108.32 130.1L108.9 129.89L109.48 129.68L110.05 129.46L110.61 129.24L111.17 129.03L111.72 128.81L112.27 128.59L112.8 128.37L113.33 128.15L113.97 127.88L114.61 127.6L115.25 127.33L115.89 127.05L116.53 126.77L117.16 126.48L117.8 126.19L118.43 125.9L119.07 125.61L119.7 125.31L120.33 125.01L120.96 124.7L121.59 124.4L122.22 124.09L122.85 123.77L123.47 123.46L124.1 123.14L124.72 122.82L125.34 122.49L125.97 122.17L126.59 121.84L127.2 121.5L127.82 121.17L128.44 120.83L129.05 120.49L129.66 120.14L130.27 119.79L130.88 119.44L131.49 119.09L132.09 118.74L132.7 118.38L133.3 118.02L133.9 117.65L134.5 117.29L135.1 116.92L135.69 116.55L135.14 116.8L134.6 117.06ZM133.73 116.83L133 117.06L132.21 117.31L131.36 117.56L130.45 117.82L129.5 118.09L128.49 118.37L127.44 118.65L126.34 118.94L125.2 119.22L124.02 119.51L122.8 119.81L121.54 120.1L120.25 120.38L118.94 120.67L117.6 120.95L116.23 121.22L114.84 121.49L113.43 121.75L112 122L110.56 122.24L109.11 122.46L107.64 122.68L106.17 122.88L104.7 123.06L103.23 123.23L101.75 123.38L100.28 123.5L98.82 123.61L97.36 123.7L95.92 123.76L94.48 123.8L93.07 123.81L91.64 123.8L90.2 123.76L88.75 123.7L87.29 123.61L85.81 123.5L84.34 123.38L82.86 123.23L81.38 123.06L79.91 122.88L78.44 122.68L76.97 122.46L75.52 122.24L74.08 122L72.65 121.75L71.25 121.49L69.86 121.22L68.49 120.95L67.15 120.67L65.84 120.38L64.56 120.1L63.31 119.81L62.09 119.51L60.91 119.22L59.78 118.94L58.68 118.65L57.63 118.37L56.63 118.09L55.67 117.82L54.77 117.56L53.93 117.31L53.14 117.06L52.41 116.83L51.75 116.61L51.15 116.41L52.29 116.92L53.45 117.43L54.62 117.94L55.81 118.44L57.01 118.93L58.23 119.41L59.46 119.89L60.69 120.36L61.94 120.81L63.19 121.26L64.45 121.7L65.72 122.12L66.99 122.54L68.27 122.94L69.54 123.33L70.83 123.7L72.11 124.06L73.39 124.4L74.67 124.73L75.95 125.04L77.23 125.34L78.5 125.61L79.77 125.87L81.03 126.11L82.28 126.33L83.53 126.53L84.76 126.7L85.99 126.86L87.2 126.99L88.4 127.11L89.59 127.19L90.77 127.26L91.93 127.29L93.07 127.31L94.21 127.29L95.37 127.26L96.55 127.19L97.74 127.11L98.94 126.99L100.15 126.86L101.38 126.7L102.61 126.53L103.86 126.33L105.11 126.11L106.37 125.87L107.64 125.61L108.91 125.34L110.19 125.04L111.47 124.73L112.75 124.4L114.03 124.06L115.31 123.7L116.59 123.33L117.87 122.94L119.15 122.54L120.42 122.12L121.69 121.7L122.95 121.26L124.2 120.81L125.45 120.36L126.68 119.89L127.91 119.41L129.12 118.93L130.33 118.44L131.52 117.94L132.69 117.43L133.85 116.92L134.99 116.41L134.39 116.61L133.73 116.83Z" id="f3JaitZ0O6"></path><path d="M152.22 42.77L152.25 42.79L152.29 42.81L152.33 42.83L152.38 42.86L152.43 42.9L152.49 42.94L152.56 42.98L152.64 43.04L152.72 43.09L152.8 43.15L152.9 43.22L153 43.29L153.1 43.36L153.21 43.44L153.33 43.53L153.58 43.71L153.72 43.81L153.86 43.91L154.01 44.01L154.16 44.12L154.32 44.24L154.49 44.35L154.66 44.47L154.84 44.6L155.02 44.73L155.21 44.86L155.41 45L155.61 45.13L155.82 45.28L155.92 45.34L156.03 45.41L156.13 45.48L156.24 45.55L156.35 45.62L156.46 45.69L156.57 45.76L156.68 45.83L156.79 45.9L156.91 45.98L157.02 46.05L157.14 46.13L157.26 46.21L157.37 46.29L157.49 46.37L157.61 46.45L157.74 46.53L157.86 46.61L157.98 46.7L158.11 46.79L158.24 46.87L158.36 46.96L158.49 47.05L158.63 47.14L158.76 47.24L158.89 47.33L159.03 47.43L159.16 47.53L159.3 47.63L159.44 47.73L159.58 47.83L159.73 47.93L160 48.13L160.28 48.33L160.55 48.52L160.83 48.72L161.1 48.91L161.38 49.11L161.65 49.31L161.93 49.5L162.2 49.7L162.47 49.9L162.75 50.09L163.02 50.29L163.3 50.49L163.57 50.68L163.84 50.88L164.11 51.08L164.38 51.27L164.66 51.47L164.93 51.67L165.2 51.86L165.47 52.06L165.74 52.26L166 52.45L166.27 52.65L166.54 52.85L166.81 53.04L167.07 53.24L167.34 53.43L167.6 53.63L167.87 53.83L168.13 54.02L168.39 54.22L168.76 54.5L169.13 54.77L169.49 55.05L169.86 55.33L170.22 55.62L170.59 55.9L170.96 56.19L171.32 56.47L171.68 56.76L172.05 57.05L172.41 57.34L172.77 57.63L173.13 57.93L173.49 58.22L173.85 58.52L174.21 58.81L174.57 59.11L174.92 59.41L175.27 59.71L175.63 60.02L175.98 60.32L176.33 60.62L176.67 60.93L177.02 61.24L177.36 61.54L177.7 61.85L178.04 62.16L178.38 62.47L178.72 62.78L179.05 63.1L179.38 63.41L179.71 63.72L180 64L180.29 64.28L180.58 64.57L180.86 64.87L181.15 65.17L181.43 65.47L181.71 65.78L181.99 66.09L182.26 66.41L182.53 66.73L182.8 67.06L183.05 67.39L183.3 67.72L183.55 68.06L183.78 68.39L184.01 68.74L184.23 69.08L184.44 69.43L184.63 69.78L184.82 70.13L185 70.49L185.16 70.85L185.31 71.2L185.45 71.56L185.57 71.93L185.68 72.29L185.78 72.65L185.86 73.02L185.92 73.38L185.96 73.75L185.99 74.12L186 74.48L185.99 74.85L185.96 75.21L185.92 75.58L185.86 75.94L185.78 76.3L185.68 76.65L185.57 77.01L185.45 77.36L185.31 77.71L185.16 78.06L185 78.41L184.82 78.75L184.63 79.1L184.44 79.44L184.23 79.77L184.01 80.11L183.78 80.44L183.55 80.77L183.3 81.1L183.05 81.42L182.8 81.75L182.53 82.07L182.26 82.38L181.99 82.7L181.71 83.01L181.43 83.32L181.15 83.62L180.86 83.93L180.58 84.23L180.29 84.52L180 84.81L179.71 85.1L179.38 85.43L179.05 85.75L178.72 86.08L178.39 86.4L178.05 86.71L177.72 87.03L177.38 87.34L177.04 87.65L176.7 87.96L176.35 88.27L176.01 88.57L175.66 88.87L175.32 89.17L174.97 89.47L174.61 89.77L174.26 90.07L173.91 90.36L173.55 90.65L173.19 90.94L172.83 91.23L172.47 91.52L172.11 91.81L171.75 92.09L171.38 92.38L171.01 92.66L170.64 92.94L170.27 93.22L169.9 93.5L169.52 93.78L169.15 94.06L168.77 94.33L168.39 94.61L168.13 94.8L167.87 95L167.6 95.2L167.34 95.39L167.07 95.59L166.81 95.79L166.54 95.98L166.27 96.18L166 96.38L165.74 96.57L165.47 96.77L165.2 96.97L164.93 97.16L164.66 97.36L164.38 97.55L164.11 97.75L163.84 97.95L163.57 98.14L163.3 98.34L163.02 98.54L162.75 98.73L162.47 98.93L162.2 99.13L161.93 99.32L161.65 99.52L161.38 99.72L161.1 99.91L160.83 100.11L160.55 100.31L160.28 100.5L160 100.7L159.73 100.9L159.58 100.99L159.44 101.08L159.3 101.17L159.16 101.26L159.03 101.35L158.89 101.44L158.76 101.53L158.63 101.62L158.49 101.71L158.36 101.8L158.24 101.89L158.11 101.98L157.98 102.07L157.86 102.16L157.74 102.24L157.61 102.33L157.49 102.41L157.37 102.5L157.26 102.58L157.14 102.66L157.02 102.74L156.91 102.82L156.79 102.9L156.68 102.98L156.57 103.05L156.46 103.13L156.35 103.2L156.24 103.28L156.13 103.35L156.03 103.42L155.92 103.48L155.82 103.55L155.61 103.68L155.41 103.81L155.21 103.94L155.02 104.06L154.83 104.18L154.65 104.3L154.47 104.42L154.3 104.53L154.14 104.64L153.98 104.75L153.83 104.86L153.68 104.96L153.54 105.06L153.41 105.15L153.28 105.25L153.16 105.33L153.05 105.42L152.94 105.49L152.84 105.57L152.74 105.64L152.65 105.7L152.57 105.76L152.5 105.82L152.44 105.87L152.38 105.91L152.33 105.95L152.28 105.99L152.25 106.02L152.22 106.04L152.2 106.05L152.18 106.07L152.05 106.07L152.03 106.07L152.02 106.06L152.01 106.06L152 106.06L151.99 106.06L151.98 106.05L151.97 106.05L151.96 106.04L151.95 106.04L151.95 106.03L151.94 106.02L151.94 106.01L151.93 106.01L151.93 106L151.92 105.99L151.92 105.98L151.92 105.97L151.91 105.96L151.91 105.95L151.91 105.94L151.91 105.93L151.91 105.91L151.91 105.9L151.9 105.89L151.9 105.88L151.9 105.86L151.9 105.85L151.9 105.84L151.9 105.83L151.9 105.81L151.9 105.8L151.9 105.65L151.97 105.58L152.03 105.51L152.09 105.44L152.15 105.37L152.21 105.3L152.27 105.23L152.32 105.15L152.38 105.08L152.43 105L152.48 104.92L152.54 104.84L152.59 104.77L152.63 104.69L152.68 104.6L152.73 104.52L152.78 104.44L152.82 104.36L152.87 104.28L152.91 104.19L152.95 104.11L153 104.03L153.04 103.95L153.08 103.86L153.12 103.78L153.16 103.7L153.2 103.62L153.24 103.53L153.28 103.45L153.32 103.37L153.36 103.29L153.4 103.21L153.44 103.13L153.84 102.26L154.21 101.37L154.57 100.46L154.91 99.54L155.22 98.61L155.53 97.67L155.81 96.72L156.08 95.76L156.32 94.8L156.56 93.83L156.78 92.86L156.98 91.89L157.17 90.91L157.34 89.94L157.5 88.97L157.65 88L157.78 87.04L157.91 86.09L158.02 85.15L158.12 84.21L158.2 83.29L158.28 82.38L158.35 81.49L158.41 80.61L158.46 79.75L158.5 78.91L158.54 78.09L158.57 77.29L158.59 76.51L158.6 75.76L158.61 75.04L158.61 74.34L158.61 73.65L158.6 72.93L158.59 72.18L158.57 71.41L158.54 70.61L158.5 69.79L158.46 68.96L158.41 68.1L158.35 67.23L158.28 66.34L158.2 65.43L158.12 64.52L158.02 63.59L157.91 62.65L157.78 61.71L157.65 60.75L157.5 59.79L157.34 58.83L157.17 57.87L156.98 56.9L156.78 55.93L156.56 54.96L156.32 54L156.08 53.04L155.81 52.09L155.53 51.14L155.22 50.2L154.91 49.28L154.57 48.36L154.21 47.46L153.84 46.57L153.44 45.7L153.4 45.62L153.36 45.54L153.32 45.46L153.28 45.38L153.23 45.3L153.19 45.22L153.15 45.15L153.1 45.07L153.06 44.99L153.01 44.91L152.96 44.83L152.92 44.75L152.87 44.67L152.82 44.6L152.77 44.52L152.72 44.44L152.67 44.36L152.62 44.28L152.57 44.2L152.52 44.12L152.47 44.05L152.42 43.97L152.37 43.89L152.32 43.81L152.27 43.73L152.22 43.65L152.16 43.57L152.11 43.5L152.06 43.42L152.01 43.34L151.95 43.26L151.9 43.18L151.9 43.04L151.89 43.03L151.88 43.02L151.87 43L151.86 42.99L151.86 42.98L151.85 42.96L151.85 42.95L151.85 42.94L151.84 42.93L151.84 42.91L151.85 42.9L151.85 42.89L151.85 42.88L151.86 42.87L151.86 42.86L151.87 42.85L151.87 42.84L151.88 42.83L151.89 42.82L151.9 42.81L151.91 42.81L151.92 42.8L151.93 42.79L151.94 42.79L151.95 42.78L151.97 42.78L151.98 42.77L151.99 42.77L152 42.77L152.02 42.76L152.03 42.76L152.04 42.76L152.18 42.76L152.2 42.76L152.22 42.77ZM154.61 44.77L154.64 44.79L154.66 44.82L154.69 44.84L154.72 44.86L154.74 44.88L154.84 44.98L155.15 45.25L155.47 45.54L155.81 45.84L156.16 46.16L156.53 46.49L156.92 46.83L157.31 47.18L157.72 47.54L158.13 47.91L158.56 48.28L158.99 48.66L159.42 49.05L159.87 49.44L160.31 49.84L160.76 50.24L161.21 50.64L161.66 51.04L162.1 51.44L162.55 51.84L162.99 52.24L163.43 52.63L163.86 53.02L164.29 53.4L164.7 53.78L165.11 54.15L165.5 54.52L165.89 54.87L166.26 55.22L166.61 55.55L166.95 55.87L167.27 56.18L167.45 56.34L167.67 56.56L167.94 56.81L168.25 57.11L168.6 57.45L168.99 57.83L169.41 58.24L169.87 58.68L170.34 59.16L170.84 59.66L171.36 60.2L171.88 60.76L172.42 61.34L172.97 61.95L173.52 62.57L174.07 63.22L174.61 63.88L175.15 64.55L175.67 65.24L176.18 65.93L176.67 66.63L177.14 67.34L177.58 68.06L177.98 68.77L178.36 69.49L178.7 70.2L178.99 70.92L179.24 71.62L179.44 72.32L179.59 73.01L179.68 73.68L179.71 74.34L179.68 75.01L179.59 75.68L179.44 76.37L179.25 77.06L179 77.76L178.71 78.47L178.37 79.18L178 79.89L177.6 80.6L177.16 81.31L176.7 82.02L176.22 82.71L175.71 83.4L175.19 84.08L174.66 84.75L174.12 85.4L173.58 86.04L173.03 86.66L172.48 87.26L171.95 87.83L171.42 88.39L170.9 88.92L170.4 89.42L169.93 89.89L169.47 90.33L169.04 90.74L168.65 91.11L168.29 91.44L167.97 91.74L167.69 91.99L167.46 92.2L167.27 92.37L166.95 92.68L166.61 93L166.26 93.33L165.89 93.68L165.51 94.03L165.12 94.39L164.72 94.77L164.3 95.14L163.88 95.53L163.46 95.92L163.03 96.31L162.59 96.71L162.15 97.11L161.7 97.51L161.26 97.91L160.81 98.31L160.37 98.71L159.92 99.1L159.48 99.5L159.05 99.89L158.62 100.27L158.19 100.64L157.78 101.01L157.37 101.37L156.97 101.72L156.59 102.06L156.21 102.39L155.85 102.71L155.5 103.01L155.17 103.3L154.85 103.57L154.7 103.71L154.7 103.71L154.67 103.73L154.64 103.76L154.61 103.78L154.58 103.8L154.56 103.83L154.7 103.71L154.73 103.69L154.76 103.66L154.79 103.64L154.82 103.62L154.85 103.6L154.88 103.58L154.92 103.56L154.95 103.54L154.98 103.52L155.01 103.5L155.08 103.46L155.11 103.44L155.14 103.42L155.18 103.4L155.21 103.38L155.24 103.36L155.27 103.34L155.3 103.32L155.34 103.3L155.37 103.28L155.4 103.25L155.42 103.23L155.45 103.21L155.48 103.18L155.51 103.16L155.54 103.13L155.74 102.99L155.94 102.84L156.15 102.68L156.37 102.53L156.59 102.37L156.81 102.21L157.04 102.04L157.28 101.87L157.52 101.7L157.77 101.52L158.02 101.34L158.27 101.16L158.53 100.97L158.79 100.78L159.06 100.59L159.33 100.39L159.6 100.19L159.88 99.98L160.16 99.77L160.44 99.56L160.73 99.34L161.02 99.12L161.31 98.9L161.61 98.67L161.91 98.44L162.21 98.2L162.51 97.96L162.82 97.72L163.12 97.47L163.43 97.22L163.75 96.96L164.06 96.7L164.31 96.51L164.56 96.3L164.82 96.09L165.09 95.88L165.36 95.65L165.64 95.42L165.93 95.18L166.22 94.94L166.52 94.69L166.82 94.43L167.13 94.16L167.45 93.89L167.77 93.61L168.1 93.32L168.43 93.02L168.78 92.72L169.12 92.41L169.48 92.09L169.84 91.77L170.21 91.44L170.58 91.1L170.96 90.76L171.35 90.41L171.74 90.05L172.14 89.68L172.54 89.31L172.95 88.93L173.37 88.54L173.79 88.15L174.22 87.75L174.66 87.34L175.1 86.92L175.28 86.74L175.49 86.53L175.72 86.29L175.98 86.04L176.25 85.76L176.54 85.46L176.84 85.14L177.15 84.8L177.48 84.44L177.82 84.07L178.16 83.69L178.51 83.29L178.86 82.87L179.21 82.45L179.56 82.02L179.9 81.58L180.24 81.13L180.58 80.67L180.9 80.21L181.22 79.75L181.51 79.28L181.8 78.81L182.07 78.35L182.31 77.88L182.54 77.42L182.74 76.96L182.92 76.5L183.07 76.05L183.18 75.61L183.27 75.18L183.33 74.76L183.34 74.34L183.33 73.93L183.27 73.51L183.18 73.07L183.07 72.63L182.92 72.18L182.74 71.72L182.54 71.25L182.31 70.78L182.07 70.31L181.8 69.84L181.51 69.37L181.22 68.9L180.9 68.43L180.58 67.96L180.24 67.5L179.9 67.04L179.56 66.59L179.21 66.15L178.86 65.73L178.51 65.31L178.16 64.9L177.82 64.51L177.48 64.13L177.15 63.77L176.84 63.43L176.54 63.1L176.25 62.8L175.98 62.52L175.72 62.26L175.49 62.02L175.28 61.81L175.1 61.63L174.77 61.3L174.44 60.98L174.11 60.65L173.78 60.33L173.44 60.01L173.11 59.69L172.77 59.37L172.43 59.06L172.09 58.74L171.75 58.43L171.41 58.12L171.07 57.81L170.72 57.5L170.38 57.19L170.03 56.88L169.68 56.58L169.34 56.28L168.99 55.97L168.64 55.67L168.29 55.37L167.94 55.07L167.59 54.77L167.24 54.48L166.89 54.18L166.53 53.88L166.18 53.59L165.83 53.3L165.47 53L165.12 52.71L164.77 52.42L164.41 52.13L164.06 51.85L163.75 51.6L163.43 51.35L163.12 51.11L162.82 50.87L162.51 50.63L162.21 50.4L161.91 50.17L161.61 49.94L161.31 49.71L161.02 49.49L160.73 49.27L160.44 49.05L160.16 48.84L159.88 48.62L159.6 48.42L159.33 48.21L159.06 48.01L158.79 47.81L158.53 47.62L158.27 47.43L158.02 47.24L157.77 47.05L157.52 46.87L157.28 46.7L157.04 46.52L156.81 46.35L156.59 46.19L156.37 46.03L156.15 45.87L155.94 45.71L155.74 45.56L155.54 45.42L155.5 45.39L155.46 45.37L155.42 45.34L155.38 45.32L155.35 45.3L155.31 45.27L155.28 45.25L155.25 45.23L155.18 45.19L155.15 45.17L155.12 45.15L155.08 45.13L155.05 45.11L155.02 45.09L154.99 45.07L154.96 45.05L154.94 45.03L154.91 45.01L154.88 44.99L154.85 44.97L154.82 44.95L154.8 44.93L154.77 44.91L154.74 44.88L154.74 44.88L154.56 44.72L154.58 44.74L154.61 44.77ZM154.84 46.28L155.19 46.79L155.54 47.3L155.88 47.81L156.22 48.32L156.56 48.83L156.9 49.35L157.24 49.86L157.57 50.38L157.9 50.9L158.23 51.43L158.56 51.95L158.88 52.47L159.21 53L159.53 53.53L159.85 54.06L160.17 54.58L160.49 55.11L160.8 55.64L161.11 56.17L161.43 56.71L161.74 57.24L162.05 57.77L162.36 58.3L162.66 58.83L162.98 59.4L163.3 59.97L163.61 60.54L163.91 61.12L164.2 61.7L164.49 62.28L164.76 62.87L165.03 63.45L165.29 64.04L165.54 64.64L165.77 65.23L166 65.83L166.21 66.43L166.41 67.03L166.59 67.64L166.76 68.24L166.92 68.85L167.06 69.45L167.19 70.06L167.29 70.67L167.38 71.28L167.46 71.89L167.51 72.51L167.54 73.12L167.56 73.73L167.55 74.34L167.53 74.96L167.49 75.57L167.43 76.18L167.36 76.79L167.27 77.4L167.16 78.02L167.04 78.63L166.91 79.23L166.76 79.84L166.6 80.45L166.43 81.05L166.25 81.66L166.05 82.26L165.84 82.86L165.63 83.45L165.4 84.05L165.16 84.64L164.91 85.23L164.66 85.82L164.39 86.41L164.12 86.99L163.84 87.57L163.56 88.15L163.26 88.72L162.97 89.29L162.66 89.86L162.37 90.39L162.07 90.92L161.78 91.45L161.47 91.98L161.17 92.51L160.86 93.04L160.55 93.58L160.23 94.1L159.91 94.63L159.59 95.16L159.27 95.69L158.94 96.21L158.61 96.74L158.28 97.26L157.94 97.78L157.61 98.3L157.27 98.82L156.93 99.34L156.59 99.86L156.24 100.37L155.89 100.88L155.55 101.39L155.2 101.9L154.85 102.41L154.49 102.91L154.14 103.41L154.64 102.88L155.13 102.34L155.62 101.79L156.11 101.24L156.59 100.69L157.07 100.13L157.54 99.57L158.01 99L158.48 98.43L158.94 97.86L159.4 97.28L159.85 96.7L160.3 96.11L160.75 95.52L161.19 94.92L161.63 94.33L162.06 93.73L162.49 93.12L162.91 92.51L163.33 91.9L163.74 91.29L164.15 90.67L164.55 90.05L164.95 89.43L165.35 88.81L165.74 88.18L166.04 87.67L166.35 87.16L166.65 86.63L166.95 86.1L167.25 85.56L167.54 85.01L167.83 84.46L168.11 83.91L168.38 83.35L168.65 82.79L168.91 82.23L169.15 81.67L169.39 81.1L169.61 80.55L169.82 79.99L170.02 79.44L170.2 78.89L170.37 78.35L170.52 77.81L170.66 77.28L170.77 76.77L170.87 76.26L170.95 75.76L171 75.28L171.04 74.8L171.05 74.34L171.04 73.89L171 73.41L170.95 72.93L170.87 72.43L170.77 71.92L170.66 71.4L170.52 70.88L170.37 70.34L170.2 69.8L170.02 69.25L169.82 68.7L169.61 68.14L169.39 67.58L169.15 67.02L168.91 66.46L168.65 65.9L168.38 65.34L168.11 64.78L167.83 64.22L167.54 63.67L167.25 63.13L166.95 62.59L166.65 62.05L166.35 61.53L166.04 61.01L165.74 60.51L165.35 59.88L164.95 59.26L164.55 58.64L164.15 58.02L163.74 57.41L163.33 56.8L162.91 56.2L162.49 55.59L162.06 54.99L161.63 54.4L161.19 53.81L160.75 53.22L160.3 52.63L159.85 52.05L159.4 51.47L158.94 50.89L158.48 50.32L158.01 49.75L157.54 49.18L157.07 48.61L156.59 48.05L156.11 47.49L155.62 46.93L155.13 46.38L154.64 45.83L154.14 45.28L154.49 45.78L154.84 46.28ZM155.48 46.1L156.01 46.65L156.53 47.21L157.05 47.77L157.57 48.33L158.09 48.89L158.6 49.46L159.11 50.02L159.62 50.59L160.12 51.16L160.62 51.73L161.12 52.31L161.61 52.88L162.1 53.46L162.59 54.04L163.08 54.62L163.56 55.21L164.04 55.8L164.52 56.38L164.99 56.97L165.46 57.57L165.93 58.16L166.39 58.76L166.86 59.35L167.31 59.95L167.77 60.56L168.22 61.16L168.67 61.77L168.96 62.18L169.24 62.59L169.52 63.01L169.8 63.44L170.07 63.87L170.34 64.3L170.59 64.74L170.85 65.18L171.09 65.63L171.33 66.08L171.56 66.53L171.79 66.98L172 67.43L172.21 67.88L172.4 68.33L172.59 68.78L172.76 69.23L172.92 69.68L173.08 70.13L173.21 70.57L173.34 71.01L173.45 71.45L173.55 71.88L173.64 72.3L173.71 72.72L173.77 73.14L173.81 73.55L173.83 73.95L173.84 74.34L173.84 74.61L173.82 74.89L173.79 75.18L173.74 75.48L173.69 75.79L173.62 76.12L173.54 76.46L173.45 76.81L173.34 77.17L173.23 77.54L173.1 77.93L172.96 78.33L172.8 78.74L172.64 79.16L172.46 79.59L172.27 80.04L172.07 80.5L171.85 80.97L171.62 81.45L171.38 81.94L171.13 82.45L170.87 82.96L170.59 83.49L170.3 84.03L170 84.59L169.69 85.15L169.36 85.73L169.02 86.32L168.67 86.92L168.21 87.51L167.74 88.1L167.27 88.69L166.81 89.28L166.33 89.87L165.86 90.46L165.38 91.04L164.91 91.63L164.43 92.21L163.95 92.79L163.46 93.37L162.98 93.94L162.49 94.52L162 95.09L161.51 95.66L161.01 96.23L160.52 96.8L160.02 97.36L159.52 97.92L159.02 98.48L158.52 99.04L158.01 99.6L157.5 100.15L156.99 100.7L156.48 101.25L155.97 101.79L155.45 102.34L154.94 102.87L154.42 103.41L155.12 102.85L155.31 102.69L155.5 102.52L155.7 102.35L155.91 102.18L156.12 102L156.33 101.81L156.55 101.62L156.77 101.42L157 101.22L157.23 101.02L157.46 100.81L157.7 100.59L157.94 100.38L158.19 100.15L158.44 99.93L158.69 99.69L158.95 99.46L159.21 99.22L159.47 98.97L159.73 98.72L160 98.47L160.27 98.21L160.55 97.95L160.82 97.68L161.1 97.41L161.39 97.13L161.67 96.85L161.96 96.57L162.24 96.28L162.57 95.97L162.9 95.65L163.23 95.33L163.56 95L163.88 94.68L164.2 94.36L164.52 94.03L164.84 93.7L165.16 93.38L165.47 93.05L165.79 92.72L166.1 92.39L166.41 92.05L166.72 91.72L167.03 91.38L167.33 91.04L167.64 90.71L167.94 90.36L168.24 90.02L168.54 89.68L168.84 89.33L169.14 88.98L169.43 88.64L169.73 88.28L170.02 87.93L170.32 87.58L170.61 87.22L170.9 86.86L171.19 86.5L171.34 86.3L171.52 86.07L171.72 85.81L171.94 85.52L172.17 85.21L172.41 84.87L172.67 84.52L172.94 84.14L173.21 83.74L173.5 83.33L173.78 82.9L174.07 82.46L174.36 82L174.64 81.53L174.93 81.06L175.2 80.57L175.47 80.08L175.73 79.58L175.97 79.08L176.21 78.58L176.42 78.08L176.62 77.57L176.8 77.07L176.95 76.58L177.09 76.08L177.19 75.6L177.27 75.12L177.32 74.66L177.34 74.2L177.32 73.75L177.27 73.28L177.19 72.81L177.09 72.32L176.95 71.83L176.8 71.34L176.62 70.84L176.42 70.33L176.21 69.83L175.97 69.33L175.73 68.83L175.47 68.33L175.2 67.84L174.93 67.35L174.64 66.87L174.36 66.41L174.07 65.95L173.78 65.51L173.5 65.08L173.21 64.67L172.94 64.27L172.67 63.89L172.41 63.54L172.17 63.2L171.94 62.89L171.72 62.6L171.52 62.34L171.34 62.11L171.19 61.91L170.9 61.55L170.61 61.19L170.32 60.83L170.02 60.48L169.73 60.12L169.43 59.77L169.14 59.42L168.84 59.08L168.54 58.73L168.24 58.39L167.94 58.04L167.64 57.7L167.33 57.36L167.03 57.03L166.72 56.69L166.41 56.36L166.1 56.02L165.79 55.69L165.47 55.36L165.16 55.03L164.84 54.7L164.52 54.38L164.2 54.05L163.88 53.73L163.56 53.41L163.23 53.08L162.9 52.76L162.57 52.44L162.24 52.12L161.94 51.84L161.64 51.55L161.35 51.28L161.06 51L160.78 50.73L160.49 50.46L160.22 50.2L159.94 49.94L159.67 49.69L159.41 49.44L159.15 49.19L158.89 48.95L158.63 48.72L158.38 48.48L158.14 48.26L157.9 48.03L157.66 47.81L157.42 47.6L157.2 47.39L156.97 47.19L156.75 46.99L156.53 46.79L156.32 46.6L156.11 46.41L155.9 46.23L155.7 46.06L155.5 45.88L155.31 45.72L155.12 45.56L154.42 45L154.95 45.55L155.48 46.1ZM154.39 46.42L154.6 46.95L154.83 47.56L155.06 48.23L155.3 48.97L155.55 49.78L155.82 50.67L156.09 51.62L156.37 52.64L156.66 53.73L156.97 54.88L157.28 56.11L157.61 57.41L157.94 58.78L158.28 60.21L158.64 61.72L159 63.3L159.38 64.94L159.76 66.65L160.16 68.44L160.56 70.29L160.98 72.21L161.4 74.2L161.38 75.6L161.3 77L161.18 78.43L161.01 79.86L160.8 81.3L160.56 82.73L160.29 84.16L159.98 85.58L159.65 86.99L159.3 88.37L158.93 89.73L158.54 91.06L158.14 92.36L157.74 93.62L157.32 94.83L156.91 95.99L156.5 97.11L156.1 98.16L155.7 99.15L155.32 100.07L154.96 100.92L154.61 101.7L154.29 102.39L154 102.99L154.73 101.86L155.45 100.71L156.15 99.55L156.84 98.37L157.52 97.17L158.18 95.96L158.82 94.74L159.43 93.51L160.03 92.27L160.6 91.03L161.14 89.79L161.65 88.55L162.13 87.3L162.58 86.06L163 84.82L163.38 83.59L163.72 82.37L164.02 81.16L164.28 79.96L164.5 78.77L164.67 77.6L164.8 76.45L164.87 75.32L164.9 74.2L164.87 73.09L164.8 71.96L164.67 70.81L164.5 69.64L164.28 68.45L164.02 67.25L163.72 66.04L163.38 64.82L163 63.59L162.58 62.36L162.13 61.12L161.65 59.88L161.14 58.64L160.6 57.4L160.03 56.17L159.43 54.94L158.82 53.72L158.18 52.51L157.52 51.31L156.84 50.12L156.15 48.95L155.45 47.8L154.73 46.67L154 45.56L154.19 45.95L154.39 46.42Z" id="j7kMVhl1mV"></path></defs><g><g><g><use xlink:href="#a1oaSfbmMw" opacity="1" fill="#ffffff" fill-opacity="1"></use><g><use xlink:href="#a1oaSfbmMw" opacity="1" fill-opacity="0" stroke="#000000" stroke-width="1" stroke-opacity="0"></use></g></g><g><use xlink:href="#d2hXLBgBGa" opacity="1" fill="#184690" fill-opacity="1"></use><g><use xlink:href="#d2hXLBgBGa" opacity="1" fill-opacity="0" stroke="#000000" stroke-width="1" stroke-opacity="0"></use></g></g><g><use xlink:href="#b708ZRtoBq" opacity="1" fill="#ffec00" fill-opacity="1"></use><g><use xlink:href="#b708ZRtoBq" opacity="1" fill-opacity="0" stroke="#000000" stroke-width="1" stroke-opacity="0"></use></g></g><g><use xlink:href="#asxu4KTQv" opacity="1" fill="#ffec00" fill-opacity="1"></use><g><use xlink:href="#asxu4KTQv" opacity="1" fill-opacity="0" stroke="#000000" stroke-width="1" stroke-opacity="0"></use></g></g><g><use xlink:href="#fgENFa9wc" opacity="1" fill="#ffec00" fill-opacity="1"></use><g><use xlink:href="#fgENFa9wc" opacity="1" fill-opacity="0" stroke="#000000" stroke-width="1" stroke-opacity="0"></use></g></g><g><use xlink:href="#a2cHsa6xNd" opacity="1" fill="#ffec00" fill-opacity="1"></use><g><use xlink:href="#a2cHsa6xNd" opacity="1" fill-opacity="0" stroke="#000000" stroke-width="1" stroke-opacity="0"></use></g></g><g><use xlink:href="#h1ikYdoyp2" opacity="1" fill="#ffec00" fill-opacity="1"></use><g><use xlink:href="#h1ikYdoyp2" opacity="1" fill-opacity="0" stroke="#000000" stroke-width="1" stroke-opacity="0"></use></g></g><g><use xlink:href="#f5aiLeoF9s" opacity="1" fill="#ffec00" fill-opacity="1"></use><g><use xlink:href="#f5aiLeoF9s" opacity="1" fill-opacity="0" stroke="#000000" stroke-width="1" stroke-opacity="0"></use></g></g><g><use xlink:href="#a2TBwufJPE" opacity="1" fill="#ffec00" fill-opacity="1"></use><g><use xlink:href="#a2TBwufJPE" opacity="1" fill-opacity="0" stroke="#000000" stroke-width="1" stroke-opacity="0"></use></g></g><g><use xlink:href="#c7fFByBuij" opacity="1" fill="#ffec00" fill-opacity="1"></use><g><use xlink:href="#c7fFByBuij" opacity="1" fill-opacity="0" stroke="#000000" stroke-width="1" stroke-opacity="0"></use></g></g><g><use xlink:href="#cqXZEUNfe" opacity="1" fill="#ffec00" fill-opacity="1"></use><g><use xlink:href="#cqXZEUNfe" opacity="1" fill-opacity="0" stroke="#000000" stroke-width="1" stroke-opacity="0"></use></g></g><g><use xlink:href="#bZLlQo3R" opacity="1" fill="#ffec00" fill-opacity="1"></use><g><use xlink:href="#bZLlQo3R" opacity="1" fill-opacity="0" stroke="#000000" stroke-width="1" stroke-opacity="0"></use></g></g><g><use xlink:href="#c73c899r7P" opacity="1" fill="#ffec00" fill-opacity="1"></use><g><use xlink:href="#c73c899r7P" opacity="1" fill-opacity="0" stroke="#000000" stroke-width="1" stroke-opacity="0"></use></g></g><g><use xlink:href="#d38nHH6h33" opacity="1" fill="#ffec00" fill-opacity="1"></use><g><use xlink:href="#d38nHH6h33" opacity="1" fill-opacity="0" stroke="#000000" stroke-width="1" stroke-opacity="0"></use></g></g><g><use xlink:href="#b1cM6vLzNw" opacity="1" fill="#b0b1b3" fill-opacity="1"></use><g><use xlink:href="#b1cM6vLzNw" opacity="1" fill-opacity="0" stroke="#000000" stroke-width="1" stroke-opacity="0"></use></g></g><g><use xlink:href="#hr2ajMmG" opacity="1" fill="#b0b1b3" fill-opacity="1"></use><g><use xlink:href="#hr2ajMmG" opacity="1" fill-opacity="0" stroke="#000000" stroke-width="1" stroke-opacity="0"></use></g></g><g><use xlink:href="#f3JaitZ0O6" opacity="1" fill="#b0b1b3" fill-opacity="1"></use><g><use xlink:href="#f3JaitZ0O6" opacity="1" fill-opacity="0" stroke="#000000" stroke-width="1" stroke-opacity="0"></use></g></g><g><use xlink:href="#j7kMVhl1mV" opacity="1" fill="#b0b1b3" fill-opacity="1"></use><g><use xlink:href="#j7kMVhl1mV" opacity="1" fill-opacity="0" stroke="#000000" stroke-width="1" stroke-opacity="0"></use></g></g></g></g></svg>