<svg xmlns="http://www.w3.org/2000/svg" width="186.408" height="53.672" viewBox="0 0 186.408 53.672">
  <g id="Group_160672" data-name="Group 160672" transform="translate(-169.918 -45.115)">
    <g id="Group_1780" data-name="Group 1780" transform="translate(-2.081 25.235)">
      <g id="Group_1780-2" data-name="Group 1780" transform="translate(172 19.88)">
        <path id="Path_66925" data-name="Path 66925" d="M196.9,105.441c1.519-4.648,3.843-6.683,7.4-6.683a6.63,6.63,0,0,1,5.446,2.762,11.479,11.479,0,0,1,1.526,3.921Zm24.905,3.051c0-10.384-7.77-18.448-17.721-18.448-10.524,0-18.294,8.354-18.294,19.684,0,10.891,7.983,18.589,19.388,18.589a24.566,24.566,0,0,0,6.838-1.072s4.223-1.284,5.192-1.777a2.263,2.263,0,0,0,1.093-2.737c-.378-1.044-1.936-5-1.936-5a1.978,1.978,0,0,0-2.56-1.132s-5.389,2.421-8.047,2.421c-4.21,0-6.9-2.034-8.5-6.321h19.9c3.27,0,4.647-1.236,4.647-4.209" transform="translate(-93.908 -74.644)" fill="rgb(0,0,0)"/>
        <path id="Path_66926" data-name="Path 66926" d="M117.824,92.327a1.984,1.984,0,0,0-1.989-1.978h-6.408l0-3.7c0-1.927.76-2.72,2.687-2.8l3.733-.006a1.983,1.983,0,0,0,1.982-1.987l-.013-5.582a1.987,1.987,0,0,0-1.989-1.981l-5.836.041c-6.755.166-11.243,4.594-11.243,11.149v4.861l-4.97.011A1.985,1.985,0,0,0,91.8,92.339l.013,5.8a1.984,1.984,0,0,0,1.987,1.979l4.948.032.009,25.612a1.983,1.983,0,0,0,1.99,1.98l3.3,0,.076.009.08-.013,3.26,0a1.984,1.984,0,0,0,1.979-1.987l-.015-25.59h6.43a1.986,1.986,0,0,0,1.981-1.986Z" transform="translate(-91.798 -74.29)" fill="rgb(0,0,0)"/>
        <path id="Path_66927" data-name="Path 66927" d="M183.378,90.038h-3.518c-3.984,0-7.335,4-7.335,4v0l0-1.945a1.985,1.985,0,0,0-1.99-1.979l-6.7.016a1.979,1.979,0,0,0-1.979,1.986l0,34.017a1.984,1.984,0,0,0,1.987,1.978l6.717-.015a1.981,1.981,0,0,0,1.981-1.987l-.012-18.563a6.265,6.265,0,0,1,2.111-5.106c2.578-2.579,8.741-2.43,8.741-2.43a1.907,1.907,0,0,0,1.929-1.887v-6.2a1.909,1.909,0,0,0-1.929-1.887" transform="translate(-93.37 -74.644)" fill="rgb(0,0,0)"/>
        <path id="Path_66928" data-name="Path 66928" d="M280.2,128.745l-9.64.019a1.84,1.84,0,0,1-1.844-1.836l-.02-9.643a1.842,1.842,0,0,1,1.836-1.843l9.64-.02a1.838,1.838,0,0,1,1.844,1.836l.021,9.643a1.843,1.843,0,0,1-1.838,1.844" transform="translate(-95.769 -75.213)" fill="#13bdc9"/>
        <path id="Path_66929" data-name="Path 66929" d="M138.277,100.666a8.539,8.539,0,1,1-8.539,8.539,8.549,8.549,0,0,1,8.539-8.539m0-10.511a19.05,19.05,0,1,0,19.05,19.05,19.049,19.049,0,0,0-19.05-19.05Z" transform="translate(-92.414 -74.646)" fill="rgb(0,0,0)"/>
        <path id="Path_66930" data-name="Path 66930" d="M279.262,109.045a1.987,1.987,0,0,0,1.981-1.993l-.021-4.7c0-7.124-5.454-12.366-12.874-12.366-4.075,0-6.912,1.166-11.2,4.655a9.008,9.008,0,0,0-2.985-2.838,14.8,14.8,0,0,0-7.273-1.817,12.645,12.645,0,0,0-9.369,3.7l0-1.676a1.987,1.987,0,0,0-1.99-1.983l-6.533.014a1.988,1.988,0,0,0-1.98,1.99l.012,6.69.006.014-.006,27.4a1.987,1.987,0,0,0,1.992,1.983l6.734-.014a1.988,1.988,0,0,0,1.984-1.99l-.01-21.368a5.35,5.35,0,0,1,5.527-5.526c3.494,0,5.525,2.4,5.525,6.545l.006,20.4a1.986,1.986,0,0,0,1.99,1.983l6.736-.015a1.987,1.987,0,0,0,1.981-1.99l-.018-21.4a5.327,5.327,0,0,1,5.6-5.526,5.215,5.215,0,0,1,5.461,5.526l0,2.322a1.981,1.981,0,0,0,1.989,1.981l3.385-.006" transform="translate(-94.833 -74.642)" fill="rgb(0,0,0)"/>
      </g>
    </g>
  </g>
</svg>
