<svg xmlns="http://www.w3.org/2000/svg" viewBox="0 0 71.945 77.557"><defs><style>.cls-1{fill:#1aba73;}.cls-2{fill:#1c1f2a;}</style></defs><g id="Product_Logos_Horizontal" data-name="Product Logos Horizontal"><path class="cls-1" d="M36.6,26.988V19.557a3.807,3.807,0,0,1,3.585-1.21V15.46A4.931,4.931,0,0,0,36.6,17.252V15.74H33.647V26.988Z"/><polygon class="cls-2" points="17.472 10.184 17.472 31.561 35.974 42.25 54.472 31.561 54.472 11.298 49.931 13.922 49.931 28.936 35.974 37.002 22.016 28.936 22.016 12.808 35.099 5.249 35.099 0 17.472 10.184"/><polygon class="cls-1" points="36.916 0 36.916 5.245 49.2 12.351 53.742 9.727 36.916 0"/><path class="cls-2" d="M20.872,53.553c0-1.407-.722-1.865-1.812-1.865a3.035,3.035,0,0,0-2.34,1.232v6.07H15.136v-8.5H16.72v1.2a4.055,4.055,0,0,1,3.008-1.407,2.442,2.442,0,0,1,2.727,2.744V58.99H20.872Z"/><path class="cls-2" d="M27.648,50.281c2.551,0,4.135,1.988,4.135,4.592v.386H25.062a2.787,2.787,0,0,0,2.885,2.64,3.615,3.615,0,0,0,2.516-1l.739,1.038A4.777,4.777,0,0,1,27.789,59.2a4.463,4.463,0,0,1-.141-8.92Zm-2.6,3.835h5.19a2.513,2.513,0,0,0-2.586-2.533A2.6,2.6,0,0,0,25.044,54.116Z"/><path class="cls-2" d="M35.851,55.682,33.458,58.99H31.663l3.185-4.363-2.991-4.135h1.794l2.2,3.061,2.181-3.061h1.8l-3.009,4.135,3.2,4.363H38.226Z"/><path class="cls-2" d="M46.462,57.829A4.2,4.2,0,0,1,43.436,59.2a2.4,2.4,0,0,1-2.709-2.709v-6H42.31v5.471c0,1.408.7,1.831,1.794,1.831a3.072,3.072,0,0,0,2.358-1.2V50.492h1.583v8.5H46.462Z"/><path class="cls-2" d="M49.878,56.72a4.121,4.121,0,0,0,2.851,1.214c1.2,0,1.83-.493,1.83-1.214,0-.844-.968-1.126-2.059-1.372-1.443-.335-3.132-.721-3.132-2.552,0-1.354,1.161-2.515,3.237-2.515A4.544,4.544,0,0,1,55.843,51.5l-.7,1.108a3.314,3.314,0,0,0-2.516-1.038c-1.073,0-1.742.423-1.742,1.108,0,.74.915.986,1.971,1.232,1.478.335,3.237.739,3.237,2.692,0,1.46-1.2,2.6-3.431,2.6a4.833,4.833,0,0,1-3.536-1.32Z"/><path class="cls-1" d="M0,65.612H1.583v1.3a3.608,3.608,0,0,1,2.78-1.5v1.6a2.5,2.5,0,0,0-.545-.053A3,3,0,0,0,1.583,68.2v5.911H0Z"/><path class="cls-1" d="M8.975,65.4c2.55,0,4.134,1.987,4.134,4.592v.386H6.388a2.786,2.786,0,0,0,2.885,2.639,3.611,3.611,0,0,0,2.517-1l.738,1.038A4.777,4.777,0,0,1,9.115,74.32a4.462,4.462,0,0,1-.14-8.919Zm-2.6,3.835h5.19A2.514,2.514,0,0,0,8.975,66.7,2.6,2.6,0,0,0,6.371,69.236Z"/><path class="cls-1" d="M14.4,77.346V65.612H15.98v1.214A3.462,3.462,0,0,1,18.76,65.4c2.217,0,3.782,1.671,3.782,4.45S20.977,74.32,18.76,74.32a3.39,3.39,0,0,1-2.78-1.442v4.468Zm3.941-10.538a2.91,2.91,0,0,0-2.357,1.249v3.607a2.956,2.956,0,0,0,2.357,1.249c1.584,0,2.552-1.284,2.552-3.062C20.889,68.092,19.921,66.808,18.337,66.808Z"/><path class="cls-1" d="M23.32,69.851a4.3,4.3,0,1,1,4.293,4.469A4.217,4.217,0,0,1,23.32,69.851Zm6.932,0c0-1.6-.932-3.043-2.639-3.043a2.762,2.762,0,0,0-2.639,3.043c0,1.619.95,3.062,2.639,3.062C29.32,72.913,30.252,71.47,30.252,69.851Z"/><path class="cls-1" d="M33.229,71.839a4.112,4.112,0,0,0,2.85,1.214c1.2,0,1.83-.492,1.83-1.214,0-.844-.968-1.126-2.059-1.372-1.443-.334-3.132-.721-3.132-2.55,0-1.355,1.161-2.516,3.238-2.516a4.543,4.543,0,0,1,3.237,1.214l-.7,1.108a3.313,3.313,0,0,0-2.516-1.038c-1.073,0-1.742.422-1.742,1.109,0,.738.915.985,1.971,1.231,1.478.334,3.237.738,3.237,2.691,0,1.46-1.2,2.6-3.431,2.6A4.836,4.836,0,0,1,32.472,73Z"/><path class="cls-1" d="M40.5,63.184a1.032,1.032,0,0,1,1.021-1.02,1.02,1.02,0,0,1,1.02,1.02,1,1,0,0,1-1.02,1A1.017,1.017,0,0,1,40.5,63.184Zm.246,2.428h1.584v8.5H40.743Z"/><path class="cls-1" d="M44.457,72.227V67H43.049v-1.39h1.408V63.29H46.04v2.322h1.724V67H46.04v4.873c0,.6.281,1.038.827,1.038a1.224,1.224,0,0,0,.862-.334l.4,1.2a2.256,2.256,0,0,1-1.654.545A1.848,1.848,0,0,1,44.457,72.227Z"/><path class="cls-1" d="M48.646,69.851a4.3,4.3,0,1,1,4.292,4.469A4.217,4.217,0,0,1,48.646,69.851Zm6.932,0a2.666,2.666,0,1,0-5.279,0c0,1.619.951,3.062,2.639,3.062C54.645,72.913,55.578,71.47,55.578,69.851Z"/><path class="cls-1" d="M58.185,65.612h1.583v1.3a3.608,3.608,0,0,1,2.78-1.5v1.6A2.507,2.507,0,0,0,62,66.966,3,3,0,0,0,59.768,68.2v5.911H58.185Z"/><path class="cls-1" d="M65.325,75.939a1.174,1.174,0,0,0,1.231-.827l.493-1.126-3.5-8.585h1.689l2.657,6.668L70.55,65.4h1.706L68.069,75.517a2.684,2.684,0,0,1-2.709,1.829,4.532,4.532,0,0,1-.985-.123l.246-1.425A1.93,1.93,0,0,0,65.325,75.939Z"/></g></svg>