<?xml version="1.0" encoding="utf-8"?>
<svg version="1.1" id="layer" xmlns="http://www.w3.org/2000/svg" xmlns:xlink="http://www.w3.org/1999/xlink" x="0px" y="0px"
	 viewBox="0 0 652 652" style="enable-background:new 0 0 652 652;" xml:space="preserve">
<style type="text/css">
	.st0{fill:#004098;}
	.st1{fill-rule:evenodd;clip-rule:evenodd;fill:#004098;}
	.st2{fill:#E60012;}
	.st3{fill:#FFFFFF;}
</style>
<g>
	<rect x="173" y="71.5" class="st2" width="298.5" height="298.5"/>
	<polygon class="st3" points="380.5,188.3 380.5,136.4 354.5,84.5 328.6,136.4 328.6,188.3 341.5,188.3 341.5,139.6 354.5,113.7
		367.5,139.6 367.5,188.3 	"/>
	<rect x="224.7" y="201.3" class="st3" width="194.8" height="13"/>
	<path class="st3" d="M380.5,279.2c0-21.5,17.4-38.9,38.9-38.9v-13.1c-28.7,0-52,23.3-52,52l0.1,59.8c4.6,5.8,9,11.9,13,18.2V279.2z
		"/>
	<path class="st3" d="M341.6,253.2c0-14.3-11.6-26-26-26c-14.3,0-26,11.6-26,26l0,27.4c4.4,1.8,8.7,3.8,13,5.9l-0.1-33.3
		c0-7.2,5.8-13,13-13c7.2,0,13,5.8,13,13l0.1,49c4.5,3.2,8.8,6.6,13,10.1L341.6,253.2z"/>
	<path class="st3" d="M276.7,253.2c0-14.3-11.6-26-26-26c-14.4,0-26,11.6-26,26l0,13c4.4,0.2,8.7,0.6,13,1l0-14.1
		c0-7.2,5.8-13,13-13c7.2,0,13,5.8,13,13l-0.1,18.8c4.4,1.1,8.8,2.4,13.1,3.8V253.2z"/>
</g>
</svg>
