<svg width="442" height="55" viewBox="0 0 442 55" fill="none" xmlns="http://www.w3.org/2000/svg">
<g clip-path="url(#clip0_2052_260)">
<path d="M69.4692 38.9879C67.1352 36.5816 62.6632 38.8767 62.3203 42.055C61.6357 48.3992 69.1885 52.0371 74.0877 50.0371C77.3859 48.6884 74.0983 45.8447 75.4355 43.6599C76.4711 41.9669 79.3556 42.0087 80.6972 43.6408C81.347 44.4351 81.347 46.3608 80.6954 47.1466C75.0738 53.9149 64.0645 52.6062 61.5243 44.5214C60.8504 42.3767 61.519 39.9085 63.3064 37.9427C66.4087 34.5272 66.2889 34.0458 66.3165 32.5396V20.5961C66.3165 18.3366 65.423 17.4089 64.4222 17.4089C63.3634 17.4089 62.861 17.9299 62.0837 18.685L61.5265 17.8707L69.7698 10.1641C72.7198 12.1343 74.6712 14.3369 74.6712 17.8133L81.8 10.6273L86.4782 18.5101L80.5738 24.7689L76.5071 17.234L74.6707 18.9168V31.3756C74.6707 33.8082 76.0617 35.3201 77.9004 35.3201C79.2932 35.3201 81.5777 33.4593 83.0244 32.3064L83.4146 32.9975L72.6102 41.9242C71.7256 41.0765 70.3413 39.8912 69.4692 38.9879Z" fill="black"/>
<path d="M30.3848 21.8849C29.0517 24.3152 26.9721 26.8622 24.1472 26.8622C19.7221 26.8622 16.8995 22.9835 16.8995 18.4107C16.8995 13.6657 22.1772 10.7138 22.1772 7.06473C22.1772 3.01519 18.711 1.04714 15.2456 1.04714C11.7817 1.04714 7.83484 2.26232 7.83484 6.71856C7.83484 11.408 14.6577 14.1289 14.6577 19.338C14.6577 23.1584 13.2194 24.4318 7.24912 28.5414V28.6589C7.72972 28.5414 8.26377 28.4262 8.7956 28.4262C11.8329 28.4262 16.0982 31.9574 18.5506 33.8649C20.0949 35.1397 21.5353 36.0078 23.5611 36.0078C26.6019 36.0078 27.9849 33.5797 28.4121 30.5104H29.2112C28.6793 37.11 24.5726 42.2626 18.3916 42.2626C10.9287 42.2626 7.30257 33.6335 3.35798 33.6335C1.70727 33.6335 1.11844 35.9504 0.959868 37.805H0C0.160795 33.4613 2.71881 30.2207 6.12935 28.2522C7.46425 27.4989 8.5818 26.5716 8.5818 25.299C8.5818 24.3735 7.78317 23.5628 5.06481 20.6706C3.14507 18.5855 1.11799 15.8068 1.11799 12.1613C1.11799 4.23081 7.94263 0.00683547 14.4987 0.00683547C21.2681 0.00683547 28.8905 4.00076 28.8905 11.5828C28.8905 18.6447 23.2943 20.9585 23.2943 24.0278C23.2943 24.8941 24.1472 25.473 24.8399 25.473C27.079 25.473 28.466 23.5045 29.6904 21.423L30.3848 21.8849Z" fill="black"/>
<path d="M48.4446 18.6394C48.4446 17.5408 48.0188 16.8457 46.9507 16.7879V16.0929C49.6704 15.2822 51.4832 12.9119 52.3892 10.5389C54.1481 13.1984 56.3338 15.3431 59.1586 16.0929V16.7879H58.3061C56.8144 16.7879 56.4402 17.7708 56.4402 19.9716V32.878C56.4402 34.9047 57.295 35.6589 58.3061 35.6589C58.8936 35.6589 59.5857 35.02 59.9599 34.5586L60.3857 35.3101L53.3504 42.2563C50.7358 40.691 48.4985 39.0695 48.445 35.3101L39.7002 42.2568C38.262 39.9991 36.1307 37.7427 33.411 36.5809V35.8872C35.4915 35.8872 36.2897 35.1339 36.2897 32.8775V19.7393C36.2897 17.8869 35.4915 17.078 34.5842 17.078C33.8377 17.078 33.3593 17.5412 32.5585 18.1197L32.2934 17.5408L39.967 10.5389C44.2323 13.4881 44.2871 16.7879 44.2871 18.7564V33.6891C44.2871 34.733 44.5544 36.0607 45.5632 36.0607C46.0995 36.0607 46.418 35.8271 46.8447 35.5419L48.4437 34.3236V18.6394H48.4446Z" fill="black"/>
<path d="M106.964 32.9371C105.632 33.807 103.925 35.3114 102.165 35.3114C98.4877 35.3114 95.6624 32.2991 94.8647 28.8284L106.644 20.7253L100.78 10.5389L92.4118 14.4141C87.4548 16.7314 86.8668 18.7568 86.8668 28.2491C86.8668 36.3522 90.4395 39.5964 97.0468 42.259C100.247 38.9574 103.924 36.4096 107.339 33.5761L106.964 32.9371ZM94.5431 25.0076C94.5431 21.9988 94.6513 18.1757 94.7048 14.3584H94.8099L99.8204 24.1973L94.7048 27.7868C94.5974 27.1483 94.5431 26.5129 94.5431 25.0076Z" fill="black"/>
<path d="M111.963 19.9142C111.963 17.8883 111.11 17.1354 110.095 17.1354C109.512 17.1354 108.819 17.7721 108.444 18.2345L108.02 17.4825L115.054 10.5394C117.666 12.1012 119.905 13.7204 119.957 17.4825L127.206 10.5968C129.82 12.1586 132.06 13.7778 132.113 17.5417L140.853 10.5389C142.293 12.7949 144.427 15.0508 147.144 16.2103V16.9054C145.065 16.9054 144.266 17.6582 144.266 19.9142V33.4582C144.266 34.9052 145.065 35.7141 145.971 35.7141C146.721 35.7141 147.198 35.2518 147.997 34.672L148.266 35.2518L140.588 42.2576C136.322 39.3628 136.271 36.0612 136.271 34.0927V19.1617C136.271 18.1188 136.004 16.7888 134.989 16.7888C134.566 16.7888 134.085 17.0206 133.711 17.3094L132.113 18.5246V34.1532C132.113 35.2518 132.538 35.9468 133.605 36.0042V36.6988C130.886 37.5104 129.075 39.8811 128.168 42.2572C126.41 39.5964 124.222 37.453 122.039 36.6988V36.0042H122.676C123.744 36.0042 124.115 34.8442 124.115 32.8219V18.351C124.115 17.0211 123.423 16.7314 122.995 16.7314C122.517 16.7314 121.984 16.9632 121.557 17.2511L119.957 18.4672V34.1537C119.957 35.2523 120.386 35.9473 121.449 36.0047V36.6992C118.732 37.5108 116.919 39.8816 116.015 42.2576C114.253 39.5968 112.07 37.4535 109.245 36.6992V36.0047H110.096C111.591 36.0047 111.963 35.0209 111.963 32.8223L111.963 19.9142Z" fill="black"/>
<path d="M169.195 10.5348L161.039 16.4371V8.39143C161.039 4.22397 161.734 1.04164 165.892 1.04164H167.063V0H166.743C159.759 0 153.843 1.96804 153.098 7.69819H152.992C152.455 5.61401 151.282 3.52984 150.327 2.48864L149.737 3.12493C151.177 4.3401 153.043 8.97077 153.043 12.7324V30.7901C153.043 33.1052 152.51 34.38 150.432 34.38V35.075C154.323 36.4019 157.734 39.1837 160.561 42.2499C161.945 39.5326 166.743 37.9699 168.982 37.1C171.7 36.0579 173.512 34.497 173.512 29.8067V19.3302C173.512 15.2776 171.488 13.3705 169.195 10.5348ZM165.518 36.4646C164.134 34.8428 162.585 33.5123 161.039 32.2402V17.6523C161.735 17.0734 162.747 16.2649 163.813 16.2649C165.251 16.2649 165.518 18.0007 165.518 20.7781V36.4646Z" fill="black"/>
<path d="M192.65 18.6394C192.65 17.5408 192.224 16.8457 191.156 16.7879V16.0929C193.875 15.2822 195.688 12.9119 196.592 10.5389C198.351 13.1984 200.539 15.3431 203.364 16.0929V16.7879H202.511C201.019 16.7879 200.645 17.7708 200.645 19.9716V32.878C200.645 34.9047 201.5 35.6589 202.511 35.6589C203.099 35.6589 203.791 35.02 204.165 34.5586L204.592 35.3101L197.555 42.2563C194.941 40.691 192.705 39.0695 192.65 35.3101L183.906 42.2563C182.468 39.9986 180.339 37.7422 177.619 36.5804V35.8868C179.698 35.8868 180.496 35.1334 180.496 32.8771V19.7393C180.496 17.8869 179.697 17.078 178.79 17.078C178.044 17.078 177.565 17.5412 176.764 18.1197L176.499 17.5408L184.175 10.5389C188.439 13.4881 188.493 16.7879 188.493 18.7564V33.6891C188.493 34.733 188.76 36.0607 189.771 36.0607C190.305 36.0607 190.624 35.8271 191.051 35.5419L192.65 34.3236L192.65 18.6394Z" fill="black"/>
<path d="M229.586 18.8734L223.934 25.1237L220.043 17.5999L218.284 19.2779V31.7237C218.284 34.1537 219.616 35.6554 221.376 35.6554C222.706 35.6554 224.895 33.807 226.281 32.6475L226.655 33.3425L216.312 42.259C213.594 39.5372 210.556 36.7015 206.823 35.8271V35.1361C208.21 35.1361 210.289 34.6155 210.289 32.8784V20.9554C210.289 18.6994 209.434 17.7721 208.477 17.7721C207.464 17.7721 206.983 18.2954 206.239 19.0478L205.705 18.2353L213.594 10.5389C216.419 12.5048 218.284 14.7051 218.284 18.1762L225.107 11.0012L229.586 18.8734Z" fill="black"/>
<path d="M255.585 17.5991V16.9036C251.535 15.9776 247.646 13.7782 244.815 10.5389C239.432 16.3825 232.134 16.035 232.134 20.2595V34.2702C232.134 37.7431 232.664 39.4193 237.089 42.2568C239.487 39.8807 242.044 37.6839 244.709 35.6589C244.709 42.7182 248.816 43.5863 248.816 47.9255C248.816 52.2701 244.815 53.8323 241.405 53.8323C240.71 53.8323 238.153 53.7184 238.153 52.7902C238.153 51.7463 241.461 52.7293 241.461 48.7362C241.513 46.0767 238.902 45.0351 236.82 45.0351C234.741 45.0351 232.825 46.422 232.825 48.8546C232.825 54.2951 239.487 54.8762 243.112 54.8762C248.711 54.8762 255.532 51.228 255.532 44.2831C255.532 42.1366 254.786 40.8084 254.094 39.7668C253.343 38.7256 252.601 37.9741 252.601 37.1042V20.4913C252.601 18.4093 253.562 17.5991 255.585 17.5991ZM244.605 34.6124L242.578 36.2365C242.153 36.5791 241.724 36.637 241.462 36.637C240.45 36.637 240.126 35.0787 240.126 33.3398V16.5547C241.514 17.773 243.004 18.8138 244.605 19.5667V34.6124Z" fill="black"/>
<path d="M279.523 32.9371C278.19 33.807 276.483 35.3114 274.723 35.3114C271.047 35.3114 268.219 32.2991 267.421 28.8284L279.201 20.7253L273.337 10.5389L264.969 14.4141C260.013 16.7314 259.426 18.7568 259.426 28.2491C259.426 36.3522 262.997 39.5964 269.607 42.259C272.803 38.9574 276.483 36.4096 279.894 33.5761L279.523 32.9371ZM267.101 25.0076C267.101 21.9988 267.206 18.1757 267.261 14.3584H267.368L272.376 24.1973L267.261 27.7868C267.156 27.1483 267.101 26.5129 267.101 25.0076Z" fill="black"/>
<path d="M304.515 18.8734L298.863 25.1237L294.969 17.5999L293.211 19.2779V31.7237C293.211 34.1537 294.544 35.6554 296.306 35.6554C297.637 35.6554 299.821 33.807 301.209 32.6475L301.582 33.3425L291.243 42.259C288.522 39.5372 285.481 36.7015 281.751 35.8271V35.1361C283.139 35.1361 285.217 34.6155 285.217 32.8784V20.9554C285.217 18.6994 284.363 17.7721 283.402 17.7721C282.389 17.7721 281.911 18.2954 281.163 19.0478L280.633 18.2353L288.522 10.5389C291.348 12.5048 293.211 14.7051 293.211 18.1762L300.032 11.0012L304.515 18.8734Z" fill="black"/>
<path d="M365.163 14.2978C365.749 14.3552 366.493 14.3552 367.347 14.3552C368.573 14.3552 370.383 14.1808 371.561 13.9507V13.1965C371.132 13.2544 370.548 13.3144 369.959 13.3144C368.304 13.3144 368.041 11.9231 367.881 8.68377C367.612 2.89578 362.869 0 358.019 0C353.701 0 351.199 1.3896 348.209 4.74724C347.195 2.08507 345.917 0 343.04 0C340.534 0 339.31 2.60477 338.24 4.68984C335.95 1.27347 332.592 0 329.446 0C322.089 0 316.867 5.32613 316.867 12.6777C316.867 20.0849 324.491 20.0849 324.491 22.6897C324.491 24.425 321.61 26.1639 319.903 26.1639H319.638V27.2046C322.943 27.2046 328.965 22.6901 328.965 17.0182C328.965 10.0734 321.345 10.0142 321.345 5.55795C321.345 3.58991 323.637 1.73622 325.13 1.73622C329.07 1.73622 330.515 6.5987 330.515 15.3986C330.515 22.9784 330.033 26.2773 328.755 28.362C327.741 28.0127 326.835 27.9579 326.354 27.9579C321.13 27.9579 317.877 34.7871 317.184 39.3573L318.144 39.5344C318.468 37.5641 319.103 35.3082 321.235 35.3082C325.823 35.3082 329.02 42.2544 334.934 42.2544C337.657 42.2544 339.842 40.689 341.547 39.0721C343.198 37.5094 344.373 35.9418 345.067 35.9418C346.133 35.9418 347.464 37.5094 349.327 39.0721C351.139 40.6895 353.54 42.2544 356.737 42.2544C363.402 42.2544 371.078 34.1486 371.078 26.9141C371.078 19.3311 363.559 19.1011 363.559 16.2645C363.56 15.5125 364.151 15.108 365.163 14.2978ZM341.76 35.3091C338.297 35.3091 333.337 29.1179 329.394 28.4781V28.3624C336.855 26.4518 340.429 22.0529 340.429 13.6023C340.429 10.7653 339.735 7.98875 338.776 5.38397C339.683 4.05222 341.333 3.12582 342.828 3.12582C344.584 3.12582 346.556 3.93875 347.784 5.38397C345.383 8.56719 342.876 11.9231 342.876 16.3232C342.876 18.6962 344.373 20.7216 345.866 22.5744C347.304 24.3698 348.793 26.0477 348.793 27.8409C348.793 30.9672 344.584 35.3091 341.76 35.3091ZM366.918 34.6109C366.918 35.9422 365.211 37.3919 363.989 37.3919C359.937 37.3919 356.472 29.0561 351.569 29.0561C350.825 29.0561 350.078 29.0561 349.437 29.1736V29.0561C352.637 27.3199 355.354 24.1362 355.354 19.9109C355.354 13.6628 349.062 11.0563 349.062 6.94577C349.062 4.34322 352.098 1.73666 353.966 1.73666C356.529 1.73666 357.433 3.99482 357.648 6.48346C357.698 10.0734 359.193 13.6023 364.151 14.1229V14.1808C360.789 15.7448 357.164 17.8294 357.164 22.3444C357.164 29.522 366.918 29.9843 366.918 34.6109Z" fill="black"/>
<path d="M391.489 10.5389C387.971 14.4719 381.788 15.6315 376.615 15.457V32.3574C376.615 33.0511 376.51 34.5595 374.647 34.7361V35.4262C378.749 36.6387 382.372 39.2475 385.412 42.2581C386.905 39.1305 388.877 37.9754 391.805 37.2212C396.231 36.0621 397.086 34.8451 397.086 24.6601C397.087 16.6713 396.498 14.3584 391.489 10.5389ZM389.092 35.7755C387.811 34.5025 386.317 33.1102 384.613 32.1856V15.5736C388.343 16.4422 389.092 18.295 389.092 20.9554V35.7755Z" fill="black"/>
<path d="M423.522 18.8734L417.874 25.1237L413.983 17.5999L412.22 19.2779V31.7237C412.22 34.1537 413.556 35.6554 415.313 35.6554C416.647 35.6554 418.831 33.807 420.221 32.6475L420.591 33.3425L410.248 42.259C407.531 39.5372 404.493 36.7015 400.763 35.8271V35.1361C402.149 35.1361 404.226 34.6155 404.226 32.8784V20.9554C404.226 18.6994 403.374 17.7721 402.413 17.7721C401.402 17.7721 400.922 18.2954 400.174 19.0478L399.645 18.2353L407.532 10.5389C410.356 12.5048 412.22 14.7051 412.22 18.1762L419.043 11.0012L423.522 18.8734Z" fill="black"/>
<path d="M436.098 29.6377C436.098 32.1259 436.31 34.7885 438.068 34.7885C439.51 34.7885 440.736 33.6881 441.48 33.1675L441.909 33.7473L433.057 42.2562C431.409 39.5362 428.368 36.6978 425.383 36.0068V35.1351C425.807 35.2508 426.182 35.31 426.504 35.31C427.944 35.31 428.1 34.671 428.1 32.8774V18.5235H424.744V17.8281C430.34 16.151 433.537 8.10621 435.137 2.54826H436.098V14.3552H441.531V18.5235H436.098V29.6377Z" fill="black"/>
</g>
<defs>
<clipPath id="clip0_2052_260">
<rect width="441.909" height="54.8762" fill="white"/>
</clipPath>
</defs>
</svg>
